<mxfile host="65bd71144e">
    <diagram id="fT8Msf66ZPH9_WXR8h2g" name="Page-1">
        <mxGraphModel dx="1307" dy="729" grid="1" gridSize="10" guides="1" tooltips="1" connect="1" arrows="1" fold="1" page="1" pageScale="1" pageWidth="850" pageHeight="1100" math="0" shadow="0">
            <root>
                <mxCell id="0"/>
                <mxCell id="1" parent="0"/>
                <mxCell id="78" value="" style="shape=image;verticalLabelPosition=bottom;labelBackgroundColor=default;verticalAlign=top;aspect=fixed;imageAspect=0;image=data:image/png,iVBORw0KGgoAAAANSUhEUgAAAgcAAAKaCAYAAACqWfqmAAAAAXNSR0IArs4c6QAAAARnQU1BAACxjwv8YQUAAAAJcEhZcwAADsMAAA7DAcdvqGQAAP+lSURBVHhe7N13nBRF2sDxX3X3hM2BnJMSFEFBxYToqWfGAOqZDxXEhJ6e8fQVs4L5zJhzFnMOJyZEFJWcw8IuYdk0OXS9f/TsMDMsSdLs8nz9zAfsqh5me6e7n656qkpprTVCCCGEEAlG5gYhhBBC7NgkOBBCCCFEGgkOhBBCCJFGggMhhBBCpJHgoBGTXFIhhBBbg5LRCo2b1prq6mqi0SiGsXGxntYarTW5ubnk5+dnFgshhNjBSXCQxbTWKKUyN6cJhUIMHz6cX375heLi4sziBsXjcfx+P8OGDePf//53ZvFaNuZzCCGEaDokOMhy4XCYr7/+murqatxud1pZQUEBc+fO5eqrr6auri6tbGMMGDCAK664Aq/XSywWS+umiEQidOvWjb322ittHyGEEE2fBAdZburUqRx99NEsXrwYy7Iyi9FaY9v2X8o/UEphmmbmZmzbxrZtTjzxRF588UVycnIyqwghhGjCJDjYjlKb6z/66CNeeeUV3G538obt9XpZsmQJ48ePz9hz22jZsiVHHnkkubm5xGIxAILBIIWFhfzrX/9ip512ytxFuiCEEKIJkOBgO4vH4yxbtoyrrrqKV199NbM4SSm1VutAi1ataFZQQLy8Ah0MwkYmJNYzUMTRVMTj+LWdVtbQv5fq3nvv5YQTTqCmpgalFHl5ebRt21ZaGYQQogmQ4GA7mzhxIueffz5//PHHem/GDbnm1lsZ+fe/U3v51UR++x0KCjKrrFeeMqjRca6pXsU3oUBm8Xq1atWKgoICbNumrq6Orl278vDDD9O/f//MqkIIIRoZCQ62scxm9wkTJnDggQdCA0/rmf+f6f43XufSoSfBsUOxv5kApSWZVdbLMAzC8TjHrVzKpyF/ZnGSAuo/xbo+k9frZcKECey5556ZRUIIIRqZTWuHFptNKUU8HiccDgMQCASScw1k3nTrAwm3243H5cKtFO6UwMJeuQqWLsMXClGlNNV2fJNekXicGjuON/GersT7u5XCoxQWzvbUT5X5GesVFRX9pRETQgghso+0HGxlmS0FAF988QVjx47F5XJRWVnJL7/8kkz4y1S6887cee89dJj4C1UPPgKAbZooBbv23Z2dWrcm+tvv2FXV4Fp7NMP6WCiiaH6PhFkaj2Epp5VAAfnK4JOQn4fqqjN3g4zWBACXy0XPnj0599xzufTSS1NKGj4GQgghspcEB9vIvHnzWLZsGfn5+Tz66KOMGzcuswp4PPTt14/iUIjw9JnUhIPsvUd/HnzsUQq/n4gecw+gUB5nvgO/z0cwEsXIzwPLgk38VeqUQMCt1JquAwDD4JugjxuqV1GnbfKUgQEsjsdYHIumv5FSyX+7X79+3HHHHeTl5ZGbm0ufPn0aHC4phBAie0lwsBU09KR86aWX8uCDD1JUVEQkEiEYDKaVAxS3a8cbH3/EfkuWsXz4Rdh+P66iQvLzCzCjUeyMfZK/us18Km9obwVE0PhtjQYs5SQw3ldXxW01lZnVk1wuF3l5eVRXV7P//vvz2muv0a5du8xqQgghspgEB1tIQwHBE088wbx58/B4PLz66qvMmTMnrRygebt2DB81CvObb8n/dQr/vPBCWtX5ib3+JioaI24o/H4/tmWhvN7M3bcaDbiVIkcpVGLYo1LwQyjIe0EfGvAqhQG8F/TzaySU+Ra4XC5OPfVUzjnnHAYNGpRW1tDxEkIIkR0kONiCYrEYVVVVFBQUMGfOHIYMGZIWEGT206MUQ08+mecffpicZ14kdPtdhOI2cbdrmwYCG6s+YPAk2hrqkyNvqlnFXbWr8SqDGJo6207rajj99NO5++67cblcWJZFUVFR2vsKIYTILhIcbKbUJ+AFCxYwfPhwKioqsCyLGTNmEIlEMndxeNzcNm4cp3fuSrNHxmFNm0501Wpi8Ti2oVANTJWcDQzASvy8KvFaFIuyNB6j0DB5K1DHmNrVafs0a9aMLl26UFtby+GHH86DDz6YVi6EECK7mKNHjx6duVFsnNTAYMaMGTz11FO88MILrFy5kuXLlxOPxzEMI5kbYHk8HHrccfTKzaNvjY/zD/obO9f68D/xFOHlK9H5eWAaqE2c6XBb0kA88YolXi1Mkx4uD+1cbvJRrLLjLLNjRLQGpQgGAixbtozKykrKysrIz8+nTZs2FBYWZr69EEKILCAtB1tALBZj6NChvPvuu5lFaXrsuivvfPoJvSb8xMpRV2AYCuXxgJ0+dXFjlqMUAa0ZuXo5bwbWPe/BXXfdxVVXXZW5WQghRBbI3kfULJYaT02ZMoV//vOffPXVV8ltRgNP/icMP497brmF9i+9Dq+9SaHLhRWJoP1+p2++CSTn6cSrQBlcVlDCqIKSBkdCADz++ONcc801VFVVZRYJIYTYzqTlYDOsWrWKO+64g3vvvTezCCyLTh07YrgsXKbFPbfcyjEdO1N31rmE587DaNUyc48mQSfyEEpNi1mRMOevXs6cWIRcpVgSjxFO+bp5PB6eeOIJjjvuOElSFEKILCLBwSZIzTGorKzklFNO4auvvmpwSmFP8+Y8//xzHPj3v1O9fAUljz1J7lvjidXUouNxZ9KiJsxCEUazPB7DoxSr4nHOX72cP6POtNH1cnJyuPjiixkzZkzadiGEENuPJCRupNTAYMqUKTz00EO8+uqraYFBYfPmnH7+CPa03BxYWc1JXXeibTRG8zlzMd7/mNDk35whii5Xyjs3TXHABbS1LFqYLloYJi6lqLZtlsTXTBUdi8UoLy8nFovRqVMnSVIUQogsIC0HmygWi3Huuefy/PPPZxZxyBGH8/rLr1D60uvU/d/NxAzlrIOAAsuEBnIRdhQKKDFNPgr4OauynEo7nlmFRx55hAsuuCBzsxBCiG1MgoNN8PPPP3PbbbfxzTffUFtbm9zucrn41/XX849dd6PHNxPw/Po74QULCEdj2Fo7uYYulxMg7KBHW+FMv7zajjMpEuIRXzWfBNOXie7QoQPHH3881157LW3atEkrE0IIse3suI+yf8HSpUt57733qK2tRSmV7GaIRqMcMvhY9th3XyLvfkDVpF8IWRba60HleMHrBXPHDQxIJCrWaZtmpsmxuQX0tJzFo8BZxhpgyZIlvP/++0SjGQs7CSGE2KYkONiA1IYVr9eLlUgkzGxwqa2thWAQCgudgEAaZNaigKjWBO04gdTjk/L34uLi5DEWQgixfUhwsB6pSYgvvvgiDz74IHbKhEVaa7r368dd//0vu/45g/A9D6BDwaxcFyFbxDRENQzJzef8/GI8KUtFk2g9+M9//sOECRNStgohhNiWJOdgI0ydOpWTTjqJmTNnpm13e71cdfXV3DLqUuKXXE7Va2868xeYprQcbECpabI4FuWflRV8HQo4G1MWazrrrLMYM2YMLVq0aHBSKSGEEFuPXHU34Omnn+bEE09k1qxZadsLSkt55sMPuHj3fgTOGIb/p59RJSVpNzixbj7bplAZPFTSklEFJc7GlOP2+uuvc/LJJzNx4sQ1OwkhhNgmJDhoQGpjyoIFC5gzZ07atu677sr5p53GUbai1aTfCH7zLdGqKifXoAlMg7wthLXGQLGL28vJuQUcn5NPc8N0CpUiFArx7bff4vP5MncVQgixlUlw0ID6PAMSwxQzXXL1VYy95lqMW+9i9UOPopo1Q+XlSYvBJlBADM3qeIz+bi9PNGvNgd4cpzBxHAsLC9NyPIQQQmwbEhysw4IFC/jXv/7FSy+9lFmEys+Htm0wwmHsQKK/XPwlGnArZ7Gm1HUXAILBIDfddBP3339/sgUhGo2uNVJECCHEliXBwTosX76chx56iNmzZydbElweD9179KC0qhq+/d6Z4CgvL3NXsQlUoovBr212ttw0M0znS6kU0WiUH3/8kTfeeIN4fO0ZFYUQQmwdEhykSH0izc/PT64UWL/9wEMO4e3x4zm6fCXVIy8mtqwclZeb3Ef8NSGtUcB1Rc14qLQlpUb6aI/CwkJyc53j7HK50rp9hBBCbHkSHKRQSmHbNl999RUPP/wwoVAorby4tJRde/akMBwlNnM2hCPOsEWxWeqzClqYFj0sN66Mm/+CBQsYM2YMY8aM4fHHH2f58uVp5UIIIbYsCQ4y2LbNfffdx2OPPYbf7097So2Ew9QGAtimgSosBNOQJMQtoP4Ia62p1TZ2yrRISilmzZrF9ddfz9VXX81NN91EWVlZslwIIcSWJ8FBA1K7F1KDg7pQCJWb68yAKEHBFqcSMyhWJ0YoNNR5oLWWhEQhhNjKJDhogMfjSf7dtm0sy2Knnj0ZuPPO2F//j+icuSiXJXMabGFRNCWGwdE5ebQwTHQDa1h4vV6ZMVEIIbYyucpuhMKiIh4Y9wQ3HjMYe9QV+D74CHJyQG5SW5TPtulquRhX2pph+U4yqBBCiG1P7m4J9U+olmXhdq9ZThjAMAxatWmDmV+ArliOrvNJYLAV2IBbKUpNC29Kq0xq+4xhGMlRJEIIIbYOucMl1OcWLF68mOrq6rSyeDxOnc8HsSjk56M8bsk52AoUEAfCtk2BMihKBGCpRzoSiTB79mwikchaXQ5CCCG2DAkOUrz77rscffTRfP3112nba+rqiHs8kJfn3MHknrTVxLQmqG1OzSvkpWZt6Otek/8BUF5ezrnnnsttt91GNBpNKxNCCLFlSHCQYsmSJUydOpVwOJzc1qV7d4afeSatfvkN+70PwdbgstL2E1uOTrQetLNcHODJpaR+MaZE6048Hqe8vJw///xTWg6EEGIrkeAghdfrzdzEqcP+yWP33kvX8R9SNeYeiMchZTSD2PKcIY02VXacaEoAkBoMFBQUJP8uhBBiy5LgYAM8Hi/k5WFGIuhA0NnY2EYwRqNofwBdXY32+SASdXImGtvPIYQQYpuQ4GADguEwRCLYHjcqJ9GykO2t2Vo7LRzRKMTjqIICzJ26Yu07AHOXXqjmpc60z3a2/yDOss4NMQyjweW0hRBCbD4JDjYgigav1xm62PB9KrsoBVqjo1G0z4+OxTB79cB7/rkUPDuO3Csvw7X3nqicHHQWJ/TVN2qkLuOc2tBhmqZMhiSEEFvJDn91Te3Hrl/5D6BFq1b8c/h5HJqTR+i+/xJbvATlzdJcA6UgHkcHg+jqGvB6cR1yMN7zzyX3ikvxnn067kP/htG2DUbbNqjCgkSwk73RTlhrPEpxbl4Rh3hzMVFpsdmkSZMYM2YMc+bMSdkqhBBiS9jhg4PUtRNWr16d/Hu3Ht0Zc9/9HJFbgP/GW4nMnQ8pwUNWsTW43Rglxai8XMwunfGcfgo5119NztVX4B5yAkanjgDomtpEi0H2BgYklnH2KsXFhaVcUlCCK6XZQCnFH3/8wdVXX81PP/2UupsQQogtYIcPDgAqKioYMWIEd911V9r2RpGvZ2t0OIS1267kXHslOTffgHfUBbgPPwyjpCSzthBCCLFBEhwAdXV1vPfee2lLAdtxm1AoBFqjPB6U4fTlZ53UCEZrlGmia+uI/fQz8bnznG6GeDylUuOitU7LO6jfRiLvwDTXzIMghBBiy5DgIHGTKS4uztzcOCiF8niJ/TmN4J13E7xjLIH/u4W6s84j+MDDxGbNQodCmXsJIYQQ6yTBQUJq7kGjYyhnuGVVNXZVNbpyNXbFcnRVNUQijWLIohBCiOwhwUFToDWYJionx3nl5qAK8p1lpU2rkSRPCCGEyBYSHAghhBAijQQHQgghhEgjwYEQQggh0khwIIQQQog0EhwIIYQQIo0EB0IIIYRII8EBYNs2tbW1mZsbOQXaBttOX0ZBa2feA5n6QAghxDpIcABYlkXbtm0zNzdyGmWYYJnOJEn1DANMU+Y+EEIIsU4SHABt27bl2WefZdSoUZlFjZfWqMICjNatUW53crMqKsJo0RwsS2ZOFEII0aAdPjjQWuN2u9l1113Zb7/9ktsN08CbkwNKocMhtG1DNk+xbNvOVMmRCDochmAIDIXKy3NaCuq5XeB2J+qGnf2ymFIKT8Zxr5/qOh6PE4vF0sqEEEJsvh0+OEhdU6Gurm5NgQatEzdOpVBk6aqMqZRa8zKUk1dgZ6zIaGvn50itm9X0WukR9asy0tjXxBBCiCyldOqVdgf35JNPMnz4cACat2zJEUcfxal99uAQZRJ57U2is+c46xVkE63RkQjWHrvjPvzQRGBgYLRojrVHX8xePdOrR6PYi5dgz19IdML3RL7+BntZBYRCTj5ClvAqRY1t83qgjvFBHxNCQeIpYcLuu+/OmWeeyeDBg9lpp53S9hVCCLF5sudukGVWrVjBi888y1chP55LLsDq0AEdCmdW2/60hlgMo0UzrAF7Ye2zN64D9sN95N8x2rTBLi/HXros+dKVqzFKSnAdfCDW3nuiiopQlpl13QsepQhrzbP+Gr4JBYij03Io99xzTy6//HIJDIQQYiuQloMUqS0H9a654w7uGDWK4NnDCXzyGaq4OK08K9g2qrDQSTSs7yrwuNd0K6T+huu7HEwLXVuLXrnKyVGIx7Oqi6HQMCiLxTi1chk/hUOZxfzzn//kqaeewsii1g4hhGgq5Mq6ATleD7g9GOEIOpi4SWXRTRQA00RXVRH7Yyqx3/8g9tvvxH6YSOyHn4hNnETs55TXxJ+dsgnfEZ8+E13ny7rAIJW5jjGXtm0TjUYzNwshhNgCJDjYgFAwhPbVEfe4MXJznY3Z1tiiNbhcqIJ8VEEBqrAAVVyEKilGFTfwKilGlZSg8vOceRCyNDAQQgixfUhwkCIUWrv5+pWnn2bEZZcx74RjKL7m386wwHAW5h40IRqwlEGJYeJKCVzWObJECCHEFiXBQYqOHTvSt29fvF5vctvCuXN5+uWXWdF/D4xjjnT666Mytn5rUYAJLIlF+F84wOr4mqGYWmssy6J9+/b07dtXhjEKIcRWIsFBisGDB/PBBx9w8MEHp20vKijADIXA53cea+WetNVYSpGjDF7113FGZTl/RNNbaVq3bs2TTz7Jddddh8vlSisTQgixZUhwkFA/aKN9+/YUFRWllZmmSUF+gTO7oM+HDkekn34r0IAFeAwDn7apSwyvTD3Sbrebbt264XK5pOVACCG2EgkOEupvNLFYjHBGToFt25QvXUq0tg7Vpg1GYUHWzQvQFBhAWGsq4zGCKUmfqemf8Xi8Ca6gKYQQ2UWCgwZkJrvV1tRw6fDzuOmDdzEeuoe8Y4+CYFAChC0s3zCYF4tybmUFT/tqnI0ZrQM1NTXEU/IQhBBCbHkSHGRQSnHYYYex2267Jfu0Y7EY82fP4aeFC8g7cCDurl0S8wNk+WJMjYxLGQS15tOQn8r6NSG0pnnz5hx66KEMGjSIwYMHU1JSkrmrEEKILUiCgwymaXLVVVfx3//+d63cg3yPh3gsBqFwYn6ALJzzoFHTGECxkbKKJNC3b1+effZZPv30Ux544AG6dOmSVi6EEGLLkuAgRepM0kVFRdTUJJq2Eyb/+BOXXHwR37YopXD09ZgtWzhLI4vN4lYKDTxVV8OttZXUZKwkGQ6Had68OR6Ph+LiYszUJaiFEEJscRIcpMjMfu/bt2/ajahs0SLGPf4EvzUrxnXRSIyiInQwmLaP2HQepTCBt4N1fBz0J5MRlVJ4vV66detGMHGcQ6FQWhAnhBBiy5PgYB1222033nnnHUaMGJFZRIE3B5TCCATR9bMqSu7BX6IBF4oCwyBfpX8d8/LyuO+++7j77rspKCgAwOPxrBXECSGE2LIkOGiA1hrTNGnfvj3t2rXLLObjt9/i3ddfwz7pBEqPPhJd53OCBLlpbTSd+PKVGiZzYxEerqtmZjSSVicYDLLrrrvSvHnzZAuOBAZCCLH1SXDQgNQbkN3AcMU3X3iRy2+/nYWnDsUYdiYqL9eZqEeauzda/RGOo/k06OfSqhVrzYZYWFhIIBBI2yaEEGLrk+BgA84++2wef/xxmjdvnrZ9/rx5nD98OC+VL6X0xWco6NsHu7zCmftAnm43KE8ZVNpxrqxayb11VZnFDBw4kGeeeYb+/ftnFgkhhNjKzNGjR4/O3CgcWmuKi4vp378/ixcvZuHChcnEOLSmbN58anI89Dz6KHLq6vD6/djBIMRiYEjctT4FhsHyeJzrqleyKL5mISuXy0WXLl246KKLOO2008itXyZbCCHENqO0pH5vtGeeeYYRI0YQi6Wvyti+Qwcee/xxjs4vonrkxdjLyiE/P62OSFdqWiyIRjh25VKmpXQn7LLLLjz99NPstddeGBJgCSHEdiFX3w1IjZ1at26dDAyUUsnchLIlS6BNa+jZHQJB7EBQuhYaoAGvUpQaJl8H/dxZW0lFSqsBQDQapUuXLhIYCCHEdiRX4A1ITU7UWtOyZcvk3+sDB7fbzaqFCwkvXARt22CWlkA8LgmKGUwgpmFZPMYz/hqe8NWsmSY5oU2bNpKEKIQQ25kEB5vgoIMO4r333mPQoEFp26PRKNeOupSrn36KvMcfouTM07BXrECHw9KCkGgxUECxaTE3FuGsynLeCiQWt0o5PqNGjeKxxx6jTZs2a3YWQgixzUlC4kbSWuN2u2nfvj2maVJWVsbq1auT3Qy+2loWrVpF8333oSDHS7Fpgc+P9vthB5/u14UiCvwRCfFyoI5XAnVEU8pLS0v529/+xqWXXkrfvn2xLCulVAghxLYmCYl/0dSpUznuuOOYP39+ZhG33nsv/zntdPzDLyT09beo4vQFnHY09SMTzqks5/PQ2l0GJ598Mo8//jjFxcWZRUIIIbYD6VbYBKlxVHFxMXV1iaZxSEug07k50KoleTm5lChFiWHiDgSxa+t2mHkQdCLHoMgwcBkmRYaBP+X4GSnHIBaLSWAghBBZRIKDTZCanBiLxdIWZkqdSXHV4iUs+O03plauYnIswq+REDWdO+LtvQvKsiCa2qjeNLmVIgJMi0aYEQ7yRyRMnDXBgZ0IFPLz8+nUqROh+jUqhBBCbHfSrfAX2bZNVVUVd955J3fffXdaWfOWLWlWWIRdUUHAV4fHsLj/qSc5dvc9qDt9GOG5czESox6amvrkw1LTYmYkzIjVFcyJRclTivJ4jIDWTgUNXq+XcePGceyxx1JYWCjrJgghRJaQhMS/QGuNYRjk5ubSunVrAoEACxYsIBx2JvMJ+P1Url7N6kiEOqBK2wTatCKvuIguXbtSaFoEZ88FQLlcGe/eeGkgVylylMEP4SDP+mt4M+DDp22qbDstCbFbt26cd955DBs2jOLiYgkMhBAii0jLwRYQj8c56aSTeOeddzKL0uy8Sy/e+fRTdv1hEqv/daUzzbLbnVmtUctRCp+2uWD1ijXDFRswZswYrrzyyszNQgghsoC0HGwGrTVKKQzDYPfdd6ewsJAJEyak1TEMI5nIWFVVzW+//463c0cGjDyfnGUVmDNmEgkFneb4RtaKUB9V5ipFoWGSY1pMCge5snoVX4UCRNBrJV+2a9eOe++9l6FDh1JQUJBWJoQQIjtIcLAZlFLJAKF58+Z069aNGTNmkJ+fT7t27aisrExfh8G2KZs/n2BRId3+djBzvvyKylWVtD7wAHI8HlhdhY7FnPfM0umDTcClFKZSuJXCpRQLY1F+jYZZGYvxTtDHs/4aJzBIaN68ObvtthtFRUUMHjyY6667TgIDIYTIYtKtsAXFYjFqamooKChgzpw5nHjiicyePTuzGt6cHPLz81i9chWDDzuMl15+hdznXyZ46x2EbBvb7UZ5PJm7bXc6MQrBjdMa4Em0CoyuWcWdtavxKkVcg08nhmsmvlpnnHEG99xzDy6XC9M0KSwsTHtfIYQQ2UWCgy2kvgUh1VNPPcX8+fNxu928/PLLDQYKLXp0Z9g//4n59bcU/P4n51xyCa1qfcRffR0VjREzFH6fH9tlobzezN23mvpAIEcpFGCgUAq+DwUZH/Sh0XiVgQF8EPTxW2TNyor1XC4XZ5xxBsOGDWPgwIFpZQ0dLyGEENlBgoOtoKEb37/+9S8efPBBioqKCIfDDS4uVNSuLa9/9BH7LVnG8hEXYfsDuIoKKSwsxIxGsf0Z+2jtNN5v5k22ob0NIKQ1Pm2jE1Mg5xoG99dWcXttZWb1Bg0cOJDXXntN1koQQohGRoKDbWTBggWUl5eTn5/Pww8/zBNPPJFZBTweduvbl6JQmMjMWVRHQgzYoz8PPfE4hd/9hL7zblAK5XFGOPh9foKRCEZ+HljWJq8CqROBQb4ycCuVzBJQAIbB1wEf/6lZRZ1tk6cUhlIsiUUpy1hmObULod5FF13ExRdfTI8ePdYKlIQQQmQ3CQ62soZaESZMmMCtt97Kt99+u8GZAUt33onbx46l/c+Tqf7vo6AUccMABf332Ydd2ncg8sNP2JWVsImjHSyliGrNxHCIhfEoLpwuBAXkGwafBv084qvO3G2d9ttvP0pKSjBNk2uuuYZ99903s4oQQohGQIKD7aS6upohQ4bw1VdfZRalUUphuVwo20bH4gBEE8/49z/+OJcefwKhM84h8tPPsIkLPOUrRbVtc05lBe8GfViJvIL6UMbWEEsZdbA+zZo144033uDggw8mEolgWVbaehNCCCEaDwkOtrHUloTPPvuMuXPn4vV6eeaZZ/juu+8yq69X/8MOZcBOOxP+8BPiy8phE0c4uBSEteaTkJ8VcSfw2FjnnHMO+++/P36/n2g0SsuWLRk8eLCMRBBCiCZAgoPtoKGuhgcffJA77rgDr9eLK9E9YJomfr+fJUuWpNXdVnJycmjbti2maSYncvL5fDRr1ozHH3+c/fbbL3OXBn82IYQQjYsEB1li9erVrFq1CqVU8uZaUlLChAkTOPXUUzeYm7A17LPPPjz66KM0b96ccDiM1hrbtjFNk7Zt25KTk5O5ixBCiCZAgoPtrP7wr+tpu7a2ljvvvJOysjLy8vIAsCwLrTWff/55g3MnpKqfxXF9DjroIHbbbTeiiaWktdb4/X4OOuggzj333MzqSdJKIIQQTZMEB43YVVddxdixY1FKJbsiUsXjceIZuQSmaWKaJgCRSIS8vDxeeOEFTjjhhLR6QgghdlwSHGSxDT2Zz5w5k2nTpmFZVlo9y7JwuVw899xzvPTSS2n7jBw5kqFDhxIKhQiHw7jdbvbZZx+aN2+eVk8IIcSOS4KDRmhDXRH17r33Xq644oq0bc899xxnnXVW2jY2IhARQgix45CB6I1QatLi+gSDwcxNDU7bzEYEGkIIIXYcEhzsYKShSAghxIZIcCCEEEKINBIcCCGEECKNBAdCCCGESCPBgRBCCCHSSHAghBBCiDQSHAghhBAijQQHQgghhEgjwYEQQggh0khwIIQQQog0EhwIIYQQIo0EB0IIIYRII8GBEEIIIdJIcCCEEEKINBIcCCGEECKNBAdCCCGESCPBgRBCCCHSSHAghBBCiDQSHAghhBAijQQHQgghhEgjwYEQQggh0khwIIQQQog0EhwIIYQQIo0EB0IIIYRII8GBEEIIIdJIcCCEEEKINBIcCCGEECKNBAdCCCGESCPBgRBCCCHSSHAghBBCiDQSHAghhBAijQQHQgghhEgjwYEQQggh0khwIIQQQog0EhwIIYQQIo0EB0IIIYRII8GBEEIIIdJIcCCEEEKINBIcCCGEECKNBAdCCCGESCPBgRBCCCHSSHAghBBCiDQSHAghhBAijQQHQgghhEgjwYEQQggh0khwIIQQQog0EhwIIYQQIo0EB0IIIYRII8GBEEIIIdJIcCCEEEKINBIcCCGEECKNBAdCCCGESCPBgRBCCCHSSHAghBBCiDQSHAghhBAijQQHQgghhEgjwYEQQggh0khwIIQQQog0EhwIIYQQIo0EB0IIIYRII8GBEEIIIdJIcCCEEEKINBIcCCGEECKNBAdCCCGESCPBgRBCCCHSSHAghBBCiDQSHDRhSqnMTRiG/MqFEEKsn9wpGgGtdeamjeLxeDI34fV6Mzdt0F/994UQQjROSsuVv1GYPHky3333HV6vF6/Xu94btmVZWJbFG2+8wdtvv51WduaZZ3LMMccQCoWwbTutjERrQzwep6amhh49enDEEUdIa4MQQuxgJDhoJMaOHctVV12VuXmrOvHEE3nttdewLCuzSAghRBMmj4SNxIknnsiDDz5Ix44dM4u2OMMwuPzyy7nmmmswTTOzWAghRBMnLQeNgNY6mVx4yCGH8NVXX2VW2aKKi4v5/vvv2WWXXSDj3xdCCNH0SctBI1B/Y/b5fAQCgbW2byn17xcKhaipqVlruxBCiB2DBAeNiMvl4pJLLmHw4MFYlrXepMS/QmvNXnvtxc0330ynTp0yi4UQQuwgpFuhkUht2v/f//7HkUceSTAYzKy22W6//XauvfZakO4EIYTYYUnLQSORepMOhULJwGBL3LxT38Pn86WVNXlbMjbeku8lhBDbkbQcNEJTpkzh1ltvZcKECaxYsSKz+C/Jz89n9913Z9SoUZx00kmZxU1bNEps5iz0ipXoWBxlGmCaoAHl3PR1LAZxOxEAaFAK5XKB243Kz8PceWdUQb7zftopT4pEic+fj72kDAwTtA2miblTN4y2bZx/SwghsogEB43YxRdfzMMPP5y5+S/ZZ599eOutt2jbtm1mUZOna2sJ3H4X0c++wq6qBq1RGXM76Hgc7PrgIMEwUIX5mN13Jvffl2HtMyB1F0c0SnzREkIPPUr49bfA44ZoDJWTg/eyi/EMPQGjeTMJEIQQWcUcPXr06MyNInul5gF89NFHTJo0Cf5i90LqPqWlpVx22WWYprkD5hooVG4ORqtWGIWF2CtXYi8uQ4dD6JpadDyO+8D9cR99BK6DDsT990Mxe+xMbMof2PMWQCyG9vtBKYyOHVGW6QQRsRjRn38h+OAjRD7+jHjZIvAF0cFgYp8ACjB329VphRBCiCwhOQeNTOpNu02bNhQXF2MYxl8auVC/j9vtpmfPnslhkjtUYKA1yuPGdeBAvCPOwTP0BKwe3cHrQeXlOX8WFeI68u/kXHoROaMuxHvOWeT8axSuPfuhCvLRtXVEPvyE8OtvoVeudN7XtokvWEjs51+I/fIrKi8P1777Y+3aC7NjB1ReHrFfJhP57Av06irno4QjTuuEEEJsZxIcNGJXXHEFr7/+Ol26dMks2miWZTFmzBgef/xxCgsLM4ubvtRAKBRGRyJo204kG6SIRNHB0Jr/1xprv32x9uwPhomuXI29cDHx2XMgFoN4nMgnn2MvXUrudVdS8NIzFDzxMN4R52L13c1pWQiG0FXVxOctID5vPva8+en/hhBCbCcSHDRCWmu01ni9Xvbaa6+0so196q+vF4vF6NWr12a1QDQZ8TjY8YxRB4njadsQS+QdAKAxWrXEaNECFGifHx0IgNcLluUkLObnY+7UDdfBg7B274PZexdcgwZidt/ZeQc7DpaJys1B5edDXi6YckoKIbY/uRI1Qkqp5M29pqaGvLy8ZNnG3tzr63m93rT5EjY2uNghpR4aW6P9iYAAnFELxcWYXTs7/2+YuA7YF9ffDnYCCIBYDFVYAAUFTpXCQox2bTG7dMZo1RKzU0fUX1hSWwghtjQJDhq5Vq1a8dhjjzF8+PDMog06+OCDee211zjggAMyi0SSdmKCnBxUYSEklq9WHg/R734g+s236KpqrN374P7bIFRurrOboTDat8fo2B6MRFRhWUQ+/4LYhAmgFK7DD8Vz/GBICe6EECIbSHDQiNV3Ley7774ceuihmcUb1KtXLwYPHkyzZs02usVhh2OaaG0Tnz2H6ITviP06hfi8+UR/+BFdVYXRri2uvw3CM+R4XAcNAo/H2U85IyCU14sOBLGXlRP5+DMiH35CbOr0RLdDASo/35lXQQghsohclRqx1C6Aurq6tDLW0UWQus3v9ze4XayhPB6Ixgi/9Cr+Sy6n7p8jqD12CP5r/w+rV0/y77mDgueexHvJBVh79EG53Wn763AYe/ESAnfdg+/ckcR+mpScTCn6xZeE334XHYmk7SMzLQohtjeZ56CJUErRvHlzDjnkELp168bs2bOJZN50EoqKijj99NM57bTT6NatW2bxjisQxC4rc+YvWLTYmQgpHgeXC9e+AzDatiU+Zw72snK0z48yDIz2bbH26IvKyXEmMsoIshSJZEbTxMjPR1kmOhp1RkbU1qGURhUUoMvLic+dj1FavKZrQgghthOZIbEJyJy0aOrUqRx66KEsX748rV69nXfema+++or27dtnFu3Q9KpKoj/+ROiZF4j+7zuU14MOhTBKiskdcztGYQGBm+8gvmgRRGPo2lpcRx5O7jX/xuzVE5Wbk/mWaXQoROiBh50JkebOc967RQus3fs43QxFheRcdjFmj+6ZuwohxDYl3QpNQGaXQDweT/v/TFrrDdYRGbRGR6LO6IRI1NmWWF9B5eSAtRHTH0dj6EDAGeUQCjndC4ZykhxNw/lTuneEEFlAgoMmKBQKJWc7bEggENgqyz03TcpJAQiFUfn5WHvvidG2jZMnYFno6hpif05F19Rm7rg2pbD69Ma13wCsXXqhigoTXQ4GyrKcaZclOBBCZAEJDpogpRRWxsJBqSzLWqu1QayfDoUwOnbAe/55zgJL8ThYFvH58wm/9gbxOXMyd1mLys/DPeQEvBeOxHPicRjt2q5phXBqpPxdCCG2HwkOmqCddtqJRx55hMMPPzyziBNOOIH7779/h1x9cbPE46jcHMwe3XENOgDXAfuj8vOxV64iPnM20c+/Jvb71I0aaWB0aI+5e1+M4mJniWjLBW4PWC5pORBCZAUJDpqg0tJS/vGPf6wzODjhhBMoSMzSJ1IYiX7/tCf4xM1eKZTLQnk9uAbsjfuYIzE7tAOl0NU1RL/5luhHn2AvX+HsFYlgl1cQX7AQe0nZmpkUcd5e5eY43Qk5XoyuXbF22QVzp25O/oIQQmxnEhw0YjLQZAtIPYa5OSiPNzEpUcax9bidp3vA6NQB9xGHYe21J2bHDqAUsWkziHz9P2KTJmOXLcOet4DA6FupO/Ef+C68lNiPE9e8lz9AfMZMdOVqjHZt8Jx0PJ6R5+A5ZQhGy5Zr6omtYnPPm83dX4jGQIYyZrHMIYoN0VrzzjvvsHTpUryJefkty8KyLN566y3efffdtPqnn346hx9+OHV1deyxxx7su+++aeU7pEiE6C+/Ev/9D2LTZhD77kfic+c6zfyxKOTk4D7sEKx99sbs1hXXvgNQpSVEf/iJyBtvE37jbeyK5RgtmjsLK/XpjbIsQi+9SvyPP1B5BbhPHIz7sEPQ8Ti6cjV6xUq01li9d8Fz+j+cORLqaS3dC5thY86bcDjMO++8w8qVK5PnzfqEQiE6dOjA4MGDMRJTaAvRlElwkOXqhx029GtyuVzMnTuXY445hlmzZmUWb9BZZ53Fo48+Sm5uLrFYbK1/wzAMzNSbVhOla2oJ3H4X0c+/xF5dBbZ2hibqRA+DBsJhVGkJ1h598f7zTFyHHAxA9Mtv8F8/GruiwhmaaNsYbdtgtG2Nrq1Dr67Grq11lnHWGmIxjDatsfbZG+/I87D67Jb5ccQWoLUmFotlbobEefPrr79yzDHHUF5enlm8Tr179+bNN9+kR48eRKOpiaTpdpTzRjRtEhxsZ/WHf11POlVVVVx99dUsWLBgrTwBt9tNVVUVX3/99XovVuvSpk0b9t57byzLwk4uRex8Jp/PxxFHHMEVV1yRtk+qjXlCaxSiUWJTp2FXLIdozHmKT7u4awhHnOWVS0owu3bGaN3aKamqIvbHVHQwlFjWOQYej5NTkAgGdCTijEpIBGAqN9dZhbFn9zWzIUprwUbbmO/dkiVL+M9//kNFRQX5+flpZW63mxUrVvD111+nbd8Qj8fDgQceSHFxcYOBRzweJxgMMnToUEaMGJFZnLQxn1+I7U2CgyyxdOlSFi5ciGEYyQtHcXExP/74IyNGjGjwYpSq/gF3S9pjjz0YO3YszZo1IxwOJ1sxXC4XvXr1WitYaZT+6k25/rT5K/um+qv//g6urq6O6dOnE4vF0p7SlVIUFRXx+eefM2rUqLR9GmYAawLjddv4M2zQoEHccsst5OXlEY1Gk+eN1+ulV69e5Mr02KIRkOBgO0p9grjjjjsYPXo0Xq8Xl8sFiebJSCRCbW3tWk3+24LL5aKgoADDMJL/vs/no3nz5jz33HMccsghmbvIU5HYalK/W19++SWnn3461dXVa7UMGIZBOBymtnYjJqbahJv+xnK73RQUFKCUSp43tbW1dO7cmZdffpk999wzcxchso4EB9tY5s2zurqap59+mqeeeorp06en1d2QIYcdR5+B/Xh5wccs8pWTYyaWC95IymVgh+P4viojtmrTZkwcMmQI/fr1IxAIEIlEaNOmDcOGDaO4uDizqhB/Web5AvD666/zzDPP8Mknn6RtX7f0AODvRwzjwP3bEA0+CnbVRocGlgmWBR99Bt/9mFlab/3Bxumnn06PHj2IxWKcdNJJ9O7dO7OKEFlBgoPtIBQK4fP5KC0t5Z133mHo0KGZVZIs06KosJCIiuOPOmPl7VAUDHj0gUc57vxTOO/nm5i0chpFrrzM3ddL5VjYvigr7vmNuq+WYOS71lyIFeiIjR1cf3dGvby8PF566SWOPfZYyeYWW1Q8HqempoaCggLmz5/PCSecwIwZMzKrpTEtN4WFhZhGEG07S5MHApCTA48+9ionn9wbOArsxZm7rlvia/3Y/XDFf5xlMTwp8bhSzisQhJTV0OtL1woaRo8ezZVXXindDCIrSXCwlTX05PPBBx8wevRoTNOktraWmTNnppWn6tV+Z5545HF+dM1izO/PoFCYGCig5849ad6uJTNrF1Ab8WMZm5ghbSiIayKL64hXhcFUzgQ9SmHkWPi+X0bVK7Mz91qndu3acf7553PDDTekbW/oGAixLpnfl0WLFjFy5EjKy8txuVz88ccf61iOfM0NuEvX/XjggQfp0OoFQrUPoBMrZxsG9OixK6Vt8yH2O+hQ5pusm+G8li+EufMTm1LiYNOEvDx4+nm496E129elqKiII488kv/+9780b948uT3z5xdie5DgYCto6OT+448/mDt3Lvn5+Tz//PO89NJLaeUAOaaHvw06mEBenJ9X/Im/too9+g9gzO13Mdk1j0envQYo3KazboLP5ycSCpPvysVSJno9zZkN0s711MixUC5jzYONcloVApOWU/XybOxQDMNjgqmILq4jssSX9japz0S77ror119/PV6vl+LiYgYOHCjDusRGST1vysvL+emnn8jPz2fixIlrBZz1du19AD17NMOOfInWPtBQWwcHHLAnN918C5hvAU8maie+qWHQ4fo80LWf6NdHa1A5gJMW1KCfvoTb74FoFHJznQBiyh9rAorUf9Pr9XLbbbfRvXt3tNbst99+NGvWLPXthNguJDjYRkaMGMG4ceOSoxEaWjK5fet2fPbeJyztGmTEt6MJxMLkuXKwTOfGH9cbk1W9BWnQtgatUZaB8phUvzGHyqfWnRuhEos+RaNRdt99d9566y26du2aWU2I9XrmmWc455xzIDGp17pG6zzw4KuMumQA8dpD0bF5a+JbQ2GZVmIkwtrn2tZk2866XAAuN+CG//s/uOWuzJrO+WKaJrFYjLy8PF588UWOP/74zGpCbHPm6NGjR2duFJuuodaCMWPG8MQTT/Dpp5/yySefUFNTg9Y6beRB53aduO+2u8ndtzULeviI9fDyR3wBC0LlmF4LLIU/EiBuxze922BzaFCW071geE2Uy8BwmyiPibt9Abn9W5K3fxvy9mmD7Y8SW7EmobF+zoSVK1cyZ84cioqK6N69e8qbN3y8xI4n83sQjUYZO3YsTzzxBCtWOOtUpM7BAXDpZXcx/Ny9OPKQ7zny0GpKWkzF8PyC4Q1h5oCZqzAsDXF7rfff2rQGwwNmAZg5TmCACS0KoXcv+MdQaFYKv/5OsgWh/ueLRqPMmzePUCjEgAEDMt532/4cQkjLwRYUiURYsmQJOTk5LFiwgNNPP51FixZlVoPEZaEwr5Ahpwzlpgdu52Xfl9w35XmiwTAubZFreTexwXMb0KDcBsptOl0PlgEKql6aRfUbc1EeEzsYI14dTvvsJ554IrfddhuWZZGTk0O7du0y3ljsyEKhEEuWLKGgoIDff/+d0047jdWrV2dWwzBz2Hvvfjzz1H307DUPOBPCsb/cRbCtZHZF/PQVnHcx1NY6eQqLy8C213z2bt268dRTT9G5c2fi8Tjt27fH7Xanv6kQW5kEB5spNaKfNWsWp59+enKdg7KysnU2h3qweGXci7Q/vBe3LHiauYEygrEQOm6jUBgqSzP+ldNku+b/FfHqMPG6CEaei7ovl7D62fRM8oKCAlq2bElNTQ3HHHMM48aNw7KcvAmxY0o9b37++WeGDRtGdXU1lmVRVla2VmsBwD/PGc1NN55F+2bXYrg+hLgf4job44G1JZIZMSBYC8vKobAAfvsdTvknVNesqepyuWjXrh3BYJAuXbrwzDPP0LNnz9R3E2Krk26FzZB6gfvpp5949NFH+eCDD/D5fFRXV2PbdtoEQjkeL+f842xKerehsmuM3scOYHnLAG/M/YzqUC25hhelVPY3H+qUl60xCty4WuVitchxWhXiNrGVQXQ4jgLCkQhVVVUEAgGWLl1KPB6nbdu2lJaWZr6z2AGknjfffPMNjz76KF999RV1dXXJrrd6Bx18Ikce0Z/dek7ljH+0ZI/+Bko9A8HViaAgy8+VetpJf9AxcOVCaTvIK4GOLZ2ExeXLYcUqAIVtx6mursbv91NWVkY0GqW0tJSOHTtmvqsQW420HGwBdXV1DB06lM8++yyzKE2/3fvx/vh3+T5/Dpf/MIZYPIZHuTDVNswl2MqMHAsdtVnxwBTqPlv3GPIbb7wRiUt3bBUVFRx33HH8/PPPmUUA5Obm8dLL73P8cSUQORSilRs303FjYgE58PQjTlfDuq7GRx11FM8//7yMZBDbjLQc/AWpTz4//vgjF110Ed9++22yCyG1taDeFcMv5cJrR/Gm/T0frvyOqkgd8biNtvW2TTTc2hRgKtwdCjBLvAT/rGyw2XfmzJnMmjWLfffdl7y8TZu8STROqefNZ599xmWXXcbPP/+c7EJIPW/673kYDzzwKH/b/3s8uQ8AC8GOOwMPkvkFjZvWoAwnF6FrW+jXF6b8Caur6mus+RnLysqYPHkyXbt2pUOHDsntQmwtEhz8BfUXuLlz5/Lwww/z+uuvp+UWaK1xKYvd+/Rlp87d6NSxE0PPP438A9py79QX+GPFLPJVDm5lYjalwACcPuC4xt2xAKtZDtFyP8oysFrlYvuiENcowOf38/vvv9O+fXs6dOjQNBZxEuulEmsNzJgxg/vvv58PP/xwrdVAwUPXrrtw/ojjOfvsXnhy74eaHyEWB9uZpKupUMrpbtBh8LaAXfvAimVQVQ3dd3IW8vT5ARSxmDOSIS8vj9LSUmbMmIHWWrrmxFYj3Qp/UXl5Occff/w6m0RbFDbj1dde5W+HHkp15WrGLn6J15Z/jm3bznCnbM8r2FyGgriNHYihPCbx6jDL75pMeHZ1Zk0uvPBCHn744czNoonITNpd3/THLVt159XX3ufg/adAeATomgZbnpqcxOXAV+f8uC4LrrwBHno8vVpubi4ulwu/38+VV17J7bffnl5BiC1EWg42UuoF7rvvvmPs2LF8/PHHaXVaNWvJdZddTe4eLajoEaFk3w6sKvTzW2gOX6ycyOzqRXhNN1YTyjFYJxswDcwiN2ahGyPHwixwo8M20aXpMywuXbqUyspKunTpQklJSVqZaJxSz5f6Pz/99FPuvfde/ve//6XVbdN2Jy6++FoOPtDHMX+fz7FHenHlfguh35w7ZVMPpOu7GAB3MXgKwcqDtqXgccMf0yAWc45BNBolHA5j2zbl5eVUV1fTvXt3aXkTW5y0HGyiqqoqRowYwZtvvplZxPHHHc8Tzz3J66FvuHXyE8QjMQzbGX3gNly4lLXpUxw3FQqsUi/+ictZPmYyseXOIlIKlTwmY8eO5aKLLsLj8cjiTU1A/YJJHo+Huro6zjrrLD7//PPMapx51j955qm7Ma2bIf4gBEHbO0RMsE4aUAUQXAlDz3BWgkxV30UDMG7cOM466ywsy5LzRmwxEhxsgu+++45rr72WSZMmEQ6Hk9tdLhdjb76THkf147XA10wLLmBlYDXxWNx5gkJhKiN75y7YRpTbRIdiRBbXUf3GXHzfLUsrLykp4ZhjjuGOO+6QiZKagIqKCv71r3/x559/kpeXx4wZM6irq0uWFxQUcvMt9zP0+Dzat34UrD8guhpiiZanHTg4AMADxKBsCTzzAoy+w5maOVOLFi046aSTuOWWWyQHQWwxO/bdahMtW7aM7777jnA4nDYXgWEYHLDfAfTq05sJq35jxsp5mHEDl7KcFgPD2uEDAwAdjmPku8jt3xJXuzUjFOqPZVVVFd9++y2BgNOqIBq3YDDIt99+y7Rp0/j555+pq6tLO29cLjcHHHAw7Tt1gOg34F8NUZV4bE57qx1S/YKR7XvAgL3WbkmpP5YrV67k+++/T3tgEWJzyR1rE7jdblwuZw7UzAaXmpoa/GEfhVYeOZZ3x+0+WB8FOmYTr4tih9cshpN6LIuLi6VptIkwDIPi4uK0bam/a61tamqqgBBoTyIgkPOmXv1oBnBWmsyUeiyLiorkvBFblHybNiD1BCwsLEwrq4/cw+Ewbtuk0JWf1ocuGuIcMx1KWSkv5YnINE1JSmzEdMrCYiUlJQ0u172mpaiaaDQXKMqsIjKEw2tWesxsQSDRtSnnjdiSJDjYgPoLWU1NDVOnTs148tG4LRe79+nLak+AqVVziOk4phzWddPOEtCuNnmYxZ7EtjXFPp+Pn3/+Gb/fv2ajaDRUYvrvSCTCxIkTG+wi0lpjWl72HjCA4sJFwBRpMViXxGFp2QJ27eVMtdxQllh1dTUTJ04kGFyzOqoQm0PuYutRHwjYts0FF1zAlVdeSbw+fE84ZfBJvD/+PSa2XMCVP9+LPxokx/Sm1RFr6JiNjtkUDe5Cq6v6YZamH6s5c+Zw2mmn8cQTT6RtF9kvNXB+8MEHOfnkk5k/f35yW2q+wamnXsgbr79K/97PQOBiIJosEyk04IdDD4IP34DDD8ms4Pj111856aSTeOWVVzKLhPhLZJ6D9VBKMW3aNJ544gmef/75tKcgyzA5/cRTGXTa4azqHmd8+TdMq5xLjunFlOTDDTKLPJjFHpSpsGsixKvWJFOFQiFWrlyJYRi0bt16re4ckZ2UUlRUVPD6668zbty45HLlqdMiu935nHjiMEactzu77z4D03weQtVNZkrkrUHbzrDG4pbOAIaCfBg00Bm5sLScxHHT+P1+Vq9ejWVZtGnTRqYlF5tFhjJuwP/93/9xyy23ZG6m7259eH/8+/xcNI+Lv3VmKcuVFoNNYyjMAje1Hy1kxX2/oaPp47S8Xi9vvfUWRx11VNp2kb0+/vhjBg8evM6lyvfffxBvvvkWrVs/DXVXZRaLDbEAN2DC4w/ABf9au5uhefPmvPvuu+y3337pBUJsAnnEbUBqvJSTk5NWBnDJiIu46YHbeazmPR6d8QYKcClLnns2lQYdiZPTvwWtru6Pt1f6GG3btqXVoBFIPV8KCgqSXW+Zw31HjfoPD9x/Ia2Lr4D4wylpBnLmbDRjzeE6+UR4/TnYfbf0KlpriookyVNsHgkOGqCUIhgMMmXKFGbOnJlZzKED/8ZRBx/NV6t/4bulk8kxvbgNS1KqNpXW2IEYrpa55B/cHqtleiBmWRYTJkxgzpw5ySfR1IV6RHZQShGPx1m4cCETJkzA7XZDRtBg2zYHHXws/fccCPp18C1KpN07TeJiI0WcHARdCyUdYOg/oHWr9Cpaa7766isWLlwo54v4yyQ4WIdp06Zx0kkn8fzzz2cW4fPV4cdPnuElz3JuaHJ5+4sU6KiN7YuiI+nJnoFAgOuuu45rr702ObNeJBKRC14WCgQCXHrppVx33XXrnIzH+R2GwC5MXHm0nDl/UX2jTLAKQhmHe/Xq1YwaNYpbbrllnb8LITZEgoMUqU86Ho+HJUuWpJX33LkHN1x/A5XdbMb8+QyV4RpyzMRwPPGX1ecaFB7eiYLDOmB4rbTyVatWJReW8Xq9MtlLFqk/ZwoKCli5cmVaWXFxMRdddBG33DKGm24aze67/gjxG0E3MKOP2HRhcLngXxfBaSc5izSldtFUVVU12C0qxMaQq2yK1D7SRYsWrZXtu0ef3bn5lpup6aZ5YMbLVIaq8RoSHGwuHXOCg4JDO1B84k6onLUnzpk7dy4rVqygrKyMSCSSWSy2k/pzZs6cOWnnD4lJwy6+ZBTXX38l//d/N9Jnl0ngfwF0QPIMtgAdBssFg0+BUReAy01aS0wsFpOuBfGXSXCQIR6Pc91113H++edTU1OTVhasC4ANHuXGpUyUktkQtyRta3Q4ju1Pz3T/7bffOPXUUznwwAMZOXJk2th5sf29/PLLHH/88UyePDlte3V1HaGQM914LA7aTh3NI+fN5kqNxQIB8CVWQq/f/MUXX3DiiSfy4YcfrqkoxEaS4CCD1ppJkyaxbNmyZNa12+Vm3732YdeD9uDdhV8xrXIuuVYOhjz9bFE65CzMVHBoB1ytcwFQKGpra5kyZQqzZs3i+++/p7a2NnNXsR3NmTOH6dOnp/Vvd+vWizPPOJ7ivM+A97HDL6DtxdJgsKUl0jZat4JhZ0CH9vVhl5NU/dtvv7F48eLMvYTYIAkOGpA5fK6wsJD/3vMAR100lGunP8SnS74nx/TISotbmB2M4WqdS4tRfSk4rCPAWi0zxcXFWFZ6ToLYvnJznUAu1YjzL+ehh2+hc/tHoW4w7vgwDP1zZjWxJfigVx94+kn4x5D6jWvOG69X5l8Rm07ubgn1iVWWZSWHYtVTSlFQUIA710NdLEAkHkXJI9CWpwHTwMhzmqKTUg51Qyv9iW0vNXk3MzeHZMCQD0YgcZ+KJ37Bct5saVonJkfyrFmcKVV+fn7mJiE2SIKDhPrFYv7444+1sq6j0SghfxA7HCfX8uIyrLWeaMUWoIC4jR2IYhZ7sFrmoEyV1j0dCoX45ZdfqKqqSrtBiW2rfm6DZcuWMWfOnMxiAoGQs16CnZMRD8jvbEtTKrE0RQQ6toe2bSB1McwZM2awdOlSolFZv0JsPAkOUowfP56jjz6ar776Km17MBjEhYnHdMuTz1am4xodtik4pD2t/7MX7m7pM72Vl5dz7rnnctttt8nFbjubPXs2Q4cO5b///W9mEdGoAeTKJWZbSQQHF4+EN1+A7jutKbrttts477zzWLp0aeoeQqyXnLkp6ofKpT6R9uuzBxdfPorv1UxenfcxtrZxGdLnvVXZGrPUi7trEUbummOtlEJrjc/nY8GCBdJykKKhY9HQti0pEAjw+++/p61U2qZNB845ZzgD91sN8TvBrkjbR2wd2nZeZhH03Q2cNBDnQSYWi62VMCrEhkhwkKKhxJ1Th/6DW++4jU+NX3l4+qvY2sZtZPSJiy1L4Qxp9EXRsTU3uNSbnfSjpqufYyASiRAKhdBarzXvwJZmmuZa+R99+vTngQce5sCDVoD/FohLcLAtKLVmaGN1NcRjpHXhFBUVyeRhYpPIt2UDlFIYGGj0Vn8SE2JzjRkzhuHDh6ctL842aEWop5Rq4Ca0dYMUIcSWl3kWiwzRUBhbx3ErF24ze1sMbK2J2rHkK2xHCduR5J8RO0pMx7fZTWKz1T8GJWZPzGSaJh6PzE6Z6aeffuLFF1/kjTfeYNKkSXz77bfU1dVt9VaEesFgmGBIA66UmKCRfOeaCK0hnDGJqFJKzhexSSQ42AANGKoxTHek0//TNlo7f9raafXQupGNsdB6rbXq622rm11j07p1awAuvPBC9tlnH4YOHcovv/ySWW2r0VqDVtJasJ1lzpjccIuOEOtmjh49enTmxh1Jat/srFmzeOuttwDo0K49F468gGYHdOLT8C/8UjmdQCyEpdae9397UShsbVMb89MxtzWHt9mXXYq6skdpT45pN5BDWg/gwFb9OLT1APoUd6fInU9t1E9luBpLmRjZfoPVYBZ7UEB0qS/tAdTn81FWVkbr1q1p1Spjzdod2IcffsjkyZOJxWJorQkEAlRXVzN9+nQ++OADioqKaN++feZuG52jkFovGAzy7LPPUltbi8fj4eST/8m5w/am107v4zI+bpz5BgaQA3ideQPSXqYzXYPW6VMXZxXlfMy2bSAWg1mJUabRaJSlS5eSk5PDTjulDGUQYh2UbjTtzFtXJBLhgQce4KqrrgJg0P4H8tnHn/Ji8Asu+9+d5Fu55JrerJrfoP5CbSmTI9rux9ldBgOQ78qhe0GntLr+WJBvV/zK64s/47uVU7C1jUZn72ROTpMNVnMvvm/KKB/9c3JJ5/pRCwDPPvssZ599dsbOO64RI0Ywbtw4yDhO9f71r39x0003EQ6HiUQiKKUoKSlpMBl3Qz777DPOOussli9fTmFhEe9/8AMHDvSBbwDY9V1D2XO+rFfiNNA21NaBz78mAFA48wbkeKGgIBFANNzbtd1pDcrlBDjjX4ETTiPxEzi/h/PPP59HH310owJBsWOTdiZg6dKlnHHGGdx+++3JbbZtO0N/YhqP4cLIwkWW/PEg+VYuI3c+iQt2Ppl+pT3pV9pzrcAAIM/K4YCWe3BSx8M4uu0BFLhyidhZPE+AwukqidppIxaob7pOMFNnexFpMgMDEoskHXLIIRxxxBEccsghHHXUUfzwww9pdeq7oNbnxhtvZNiwYaxatQoS+zirZcadfANna9o+Wc3ltA7E4vDoU3DIMXDkiXDUEDjmJBgxCp572bn5svaEkFkjNR6LJE/vNb8Hlyt786ZEdpHgIDFe+9tvv6W6ujq5zdY2kUgEbWtchoXKokPlZBU4N/wOea3Yt3kfPIaLT8p/4ONl3/Pxsu94r+x//LJ6OqvC1URtZ5XDAiuXAc16c0CLPcg1c4jaDcy1mmV0XKPjDT+mmaYp/agbSSmFUorly5czadIkJk+ezMyZM5kyZQovvvgi77//Pi+99BK//fZbsu76/Prrr2mLkwHEYtE1wcH6d88ehnPDr14Jv02Ep56H199ymuP/mAq//wm//g4ffgLvfADvvA/L5yWunNn61UvEArH0xU1BgmmxCbL1671NmaZJSUlJ5uaspbXzpNbCU0rX/PYUuvP4buUULpx0O8Mn3swFk+7gwl/u4Ol545lTt5iwvSZ1uZmnmB6FnfCYLmyd/cGB2DLW1xrw7LPPMnjwYM444wxeeOGFzOIGZS5O1miZELdh7nx45Q341zXw2x+ZlZwWhZ8mwZj74bOvEi0Ncp8VTZgEB42U03ro5AwUuvJwGxb+WBBfLIA/FsAXDWBrjdd0Y2YkUZrKRKEaU6Ov2ArqWwdSg4aGWgzWFVQ0Cdo5lzwu50k7FMqssEYs5rwaQYObEJtNgoNGyelWyDU9mMpges0CFgcqyLNyyHflkWflUuDKpTbmZ15dGb5o+oQ4cW1LYCAavOmvWLGCWbNmMWPGDBYuXAjrCBiaDNNpiVu42JkbYI8+0LM77LYL7NITWrVcU1UBgUDKHAJN+LAIIcFBI1Q/l0HHvDYUuPK4d8YLPDv/fRQKt2FhKgOXYfHDyt95eM7rzK5blLa/kb1jFMR29u6773LYYYex9957c/3112cWNz1uiMacZMN5C+HVZ+HHL+H9N+CN5+Gfp6+pGo7AjNmwcFHiyiknkWjCJDhohFTiv+WhSqbXzGd23SJWhqogceOv/7M26qMssJzVkRps7ST1acAXD2Jru0mECDk5OZmbdmhutztz00ZTSlFXV8eSJUvw+Xx8+eWX3HHHHdx33308+eSTBIPBZN0mkfWuQNdCbS0csB8MPQ6694Hi9tBpF9hlL9h/H+jaZc0upSXQrFniRFq74UWIJkOCg0bIUAaGUsyuXcykymmAosCVCynXKw24DBe5phdba2KJ5MOqSC0VwVVEdTz7J0HaCNXV1di2TSAQIBAI4Pf7d8iX1ppwOLzWmgqbIjP3oKKiguuuu47LL7+ca665hilTpgDg9/vTAoVGSTmv6hoIBOGiEXDeCCAA1AF+IAa5OdCts/NnSTEMPgp23y0xKKPhQTRCNAkyCRIwf/58jj76aGbOnJnctv8++/HuW+MZb//IDZP+i6ks3Fm2VLMzkdG6p3deHamhpbcZT+x9PYNa9gfg9+rZfLh0Am8v+ZJlwVXkmFk837oCI9+N739lLL9jcnISpGSxUvTu3Zt27dphZ84Xu4MxDAOtNdOmTaOsrCyzeJM1NIHSgAEDaN26NcFgkD///JPy8vJkWUFBIa+/8QVHHB4G3+Gg/3qQss0oiEScJMPcfMACool5DOLw+0R4/hV44VVwWXDwgXDFKNi1FyQbaLLx6mk4P8PLT8Pp56YXXXrppdx3331NO49EbBESHDTi4GBdNBo0WIZJr6Ku3LX7KHoWdiEYD/PG4s8ZX/Y1M2sX4osGcGXzz7Se4KChm5dwbOljs673S93eKIMD1rQgoJ3ZESMRWLAIpvwJP/4MX38Lf05zuhNOOBZuuR7adAHCWdy1IMGB2AKkW6EJsrUmqmP0LenBSR0Po3VOc+La5s/qOUxY8RuTKqcRjIWzOzDYgIZuVsKxpY/Nut5vXdsbFZ3oHlDOqIXV1XDPf+HUYfDgozB1ulNtdRX87zv46DNYMicxx4FcPUUTJl/vJkahiNkxaiI+Oue15bDWA8i3cvl19Qyenf8+v1bNIK7tLH3k2Xjy5LNuW/rYrOv91rW9UUosppSfB8cfDRefDwP2goL8NVXKlsKTz8G7H8LKcrCjcgUVTZd0KyS6FY488khmz56d3NbYuhWcZZpB44xCyLVyuLLXWfyz62Dm+cp4ZdEnjJvzNiE7TL6Vm1wnIqtHLKynW6FeaWkpubm5TeMpdjPU36irqqrw+/2ZxZtNKUWLFi3IyckhFotRWVlJKGXGoEbbrZBJAfnOKIbnXobxH8D3PzktB/VpLcceCddcDn17Q15xIk8hm0i3gtgCJDgA5syZw4EHHkhFxZolZhtTcKBQRO0oITtCXTRAn5Kd+Xevs/hbq72wtc2tU5/is4ofCcZCiVYDiNoxTMPEY2TxkLQNBAeGYXDbbbdxwgknOItkNZWm7r/A6/USi8X4v//7P95+++3M4k2WmWfg8Xh49tlnOfTQQ1m6dCmXXHIJEyZMSJY3meCAxNTINtRUOXMa/DwZHn4Cfp/qFB+wL5xzJhx9OLTsAKxnVsXtQoIDsQVIcACsXLmSBx54gHfffZepU50rwIH7DeTTjz7h5dBXXP7tXeRZOeRk2ZLNJPILQvEw7XJbsmtRN4LxMD0LOzNi5yFUhqt5v+x/vLjwI+b7yih1F5Fn5dDcU0zX/PZUR2qZVbcIrTWGysL2UQVWMy++b5ZSflPDSza/+eabDBkyJGPHHdcll1zCQw89lLl5o2QGBEVFRRx++OForWnTpg0333wzRUVFALzwwguMGzeOSZMmEQqFKCws4r33v2fQgT7w7dN4lmw2EqMU6uP++oUlAXKdv5cvhGtHO6MWbBv67wGnnQSnnAjtugFZNKpTa1CW89nffhmGnE6iOcT5PYwcOZJHHnlEggOxQVl4R9j2WrRowa233sqll16a3Ba34/gDfnTUJsfyYigj6wIDhzNb4u4lPbi81xncuNv5nNr5CCxl8OHSCTw6500CsRDtclqSa3lpndOcPZvtwtldj2Fgy35pcyBkIx22sTNaDOpvYKZpJlsMhGNzjkfmc0L//v158sknef3113nggQeSgQHAmWeeyYMPPkhpaSkk9g0GA4k29lznfpSV50sGOxEQBBKvWOJj68RcB0DrVs50yj12dv5fKfB6wDCy70dMjcfW9PqktwAJsTF2+OAg9YLo9XqTf58+cwbDzjuHuq+XcHe/f9GjqDOBeHa1H9ZGfYDiuPYHcXz7g+le0InuhZ3okteOElchR7bdn7F7XMZ9/f/N/f2v5L5+/+a2vhdxWqcjidgxKkKViZFc2fcUoTwmOhyn8vkZVL08Gx1Ln8dgn3324emnn+bAAw9M2y42XkNPjwceeCCvvfYaL7zwAjfccAMFBQVp5annS25ubnLJ7GAwwI3/dzl3j/0QX+wRyD0yZa8spJzWgrJlTl7BBf+CK66DX35N3FRzE1dHDcqENm2gTWtn19ISp/WgqDCllSFb5EJ1Fdx0HYy5b83mdu3aceedd3Leeec1+HsXItMOHxykniipCVZV1VW8/9EHBKet5vROR9EmtwVhOzsyj+rXVmid05x9mu/GSR0P46BW/ckxPbiUidd04zHd7FHSk9M6H8mQDodwXPuDOK79QRzUck/2arYrM2sXML1mHkqprOxSUJaBjtr4v11GeE412Inl8xJ22203zjrrLNq3b5+6m9gE9Tf6du3a0adPH7p27crQoUM5+eSTOeOMMzjooIPS6pFxvgQCgeTkU7FYjJ9//o433/6VUPxsMPdN1stKyhmOWF4BX33rjEJ45El4612Y/BsEViXquJ2rZFU1+APQsgX06+MsypSbmCwpq5jg88GzL6/JkSDROnrOOefQu3fv1NpCrFP23RWyjHIb+OwgMR3PmufrqB0jZscZ3G4Q/7fb+fyt1d7kW870yRvDHwvy/YopTKuej0JhZmFwAE4bqcpJWW46pQk3EokQjWZHsNZYrOuJcdSoUXz//fdMmDCBs88+O7N4nfs1JD/Pg1LBLMzSy+A0meH3w6pKKCxwWgz++wQ89AR8+T+I16++6IUvvoZfp8B5Z8HQE6CgIPEeWTgxpzKgMGUIJkA8Hqeuri59oxDrkaV3heyRk5NDnpFDmCiBmHPB2/hL5dbhrK1gsDhQwVcVE3luwXs8M/89xs19e4OvFxd+yLi5b7PQX54cuZCV6p9W13Fj0lrv8FMmb0jmTV1rzV577cV//vMfrr76akaNGsUVV1zBMcccQ35+Pm3btqWwsBCt9Vr5BxvL7XFTWJjjPFIn36Lh3+F2pZ38gp13gsMPgeJEOoXfDx98Avc9BFde78yIeMM10LYNXH8lDDkeeu6c3VdORSIfIkM8nm3NHCKbyWiFFE8++STDhw9P2zb66hsYce3FXDPjv3xZMQmP4UJnyeUuruPEte1czDfyM2nAUAqXYWGgsi2fKsnIcxFbGWT5bZMITq3MLObMM89k3LhxkmCVYcSIEYwbNy5tW05ODvF4nHg8zt13381ll12WVk4icMgMJjZkypQpHH300Sxbtiy57eCDj+SZZ5+mU9uHIHRb1iXsraUAIpVwytkw/kPIz3dGJMTjYMed5ZxdLnj9OTj+1MS0ydHsS0RMKoBlc+DoIc4U0PV69+7N22+/zc47J7IqhdiABuLLHVdqzkG9x555gpH/HM4J9n5cv8dwTGUSTrY3bm+Ji7nauMCg0dBOd45Z4AJrzVc09ebl8/mSfxdrNHSDv+qqq5gwYQIff/wxQ4cOzSz+y2KxGKtXr07bNmnS95z6j6G8+U4ryH8ZrM5p5VknDG4vjL4OPn4bxr+y9uudl525DdDZ2Y1AoqGt/jGvtBgsi7THhZqaGmlpE5tEgoMU3bt35+CDD04bslWxYjkfvfchPXV7DmjdD0OprBn6ZyoDt+HCYzgJiBvz8ppu3IYLla2tBgowFZGFdfi+KydetSZg01rjdrvp3bs3+++/fzJTXqxRHzTtvffeDBo0iKOOOoqTTz6Zvffem8MOO4z27ds32GXQUFCxIc2aNWPo0KG0adMmuc3nq+XHH79n+sx84ERQxWn7ZBudWECp735wxAlwyDFw2GDn70cNheP+AUcPheZtQNelDHXMMsp0XuVz4c13obKK5Aft0KEDRx999FojT4RYH7m6pvj73//OO++8w6BBg9K2F5UUEyJCXdTvNL+mlYotSZkGhsfE900Zy+/6hcii9CSq1q1b89hjj3HFFVfgcmXx7I7bic/no7CwkMcee4xvvvmGN954gx49eqTV+SuBQEO6dOnCCy+8wIUXXphZRE6ODVRlYTp/uuS8AHWAbz2vyDrTX7KDyxlZ8eg4OHM4LFi4puiaa67hkUceoW3btql7CLFeEhwk1D9NFRUVkZOTk1ZmGAZFRYV48nKojfkJ25GsnBug0dNOq4GR70LbzrLTkJ5MYVkWLVu2XLNBpDnvvPO4++67k0PWcnNzMU2zwdaCzZH6fqktbfVyc/OcDnDTn9EUn8XnjV7PK4tpnRhy6YJIAwN4SkpKtlhAKHYcEhwk1J88sVhsrVnm4rEYM2bNZNXiCrrnd6S5pyS7M/0bK0Ohw3Eii+qwa1PyOlIuztFoVIZkNaD+Zn3ssccyfPhwXC7XOucn2BIy5zvIVFa2iFUr5xAPdQCrGE17ICf777SNkDKdlo/KRVBdk1nKVlmISzR9Ehw0IPNkqq6pYdjIcxl/98s8uNuVHNNpEMF4CFsChC3KyLWILvWx/M5fqPnQaRfNbKHx+XwyJKsBDd38G9q2NWQG0wAPPngbZ5xxOXOWXA55U4iYb2Kr/TKriS0hD375DQaf4qwk6Vjzu49EsiWBWjQmEhxkMAyDIUOGMHDgQNxuNwC2bbNi1UqWz11K39Y9aVvYkrqYn7h2lkcWW4aRY6FtTWhGFTrsBAAaZ9Gfk08+mSFDhnDmmWfSokWLzF3FdrTvvvty4okn0qxZs+S2gL+OnyZOIab7AZ3w5A7AsIpTGg7kvNlcWq85jKEQ/DAxfT2F1q1bc+qpp9KnT5+UvYTYOBIcZDAMg/PPP5+xY8eu1Zdqeiz8tT4ikQh5Vm4WL8bUONmhGDpqY+SlL42922678eijj/Lmm29y11130alTp7RysX0ddthhPPvss2vdhIqKCoiEVwAQCNQRj6VOgS3nzeZKJlPi5BoUZgxGOPDAA3nqqac44IAD0guE2AgSHKRI7aPNTEoE+PaH7zh72Nk0n25wZ/9LaZXTLOsWY2qMlMv5Gla/NY/KcdOwfelZVaZpkpvrTA/t9Xq3WXO52LD6c6Y+8THVqlWr+M9//sNJJ53KuecO54fJB0PBraDWTmAUf0EORCJw351w7Y0QyFg62rKsBq9jQmwMCQ5SpN50/H5/Wl+dUorlK5fz1ttvU7BU8Y9Oh1PkzieSJYsxNWbKMkBDYNJyQtNXo6N22rixcDiczAMJBoMymUsWqT9n/H5/2iRiSikCgQCffPIJb775Kq+++hpzFuwC/BPUxq8DItbDglgM3hwPP092/p4aN4dCoQaTRYXYGBIcrINt28mLXeaTqm1BXTyALTkHW0aiwcbwrnnyTD2qklDVOKzv96SUwu2KJCYUkC6FLUZBfl7GhoRIJLLFh7CKHYcEB+vQuXNnRo8eTf/+/ddaiCY3N5ccM5eAHSYYXztTW2wCDVgKI89Kdi+QaK52u90cffTRDB8+PNk8alnWWsGa2P48Hg8XX3wxRx99NJZlrXVTMgyDvLw8wAOqLhEfyO/xr6o/vLmF4E5ZXkRrTW5uLkOGDOGss85KJlULsakkOGiA1pp27dpxzTXXcOKJJ2YWs6pyFStrVtDMKqTUU4hO/Cf+gsTcBrFVIexQ+hBFr9fLFVdcwVlnnZXMOXC5XBIcZBmtNR6PhzPPPHO9M1euWrUcHVsNuk3iyiPnzCZTzkuZzgJQy5dCMCPXoKioKJHrcdI6fxdCbIgEBxvQUJ/dzXfdyo2XXseN3c7jsj3PZnW4Bn8sKF0Mm0KDMhVWMy+h6aud1Rd/Wwkp3Ti1tbXrbaoW2SE1WItEIgQTd6vU7bZtc9Pof3Pp5Y8TMV+C/PNTZh+U82ZDkg0xuUC+M7fBFx/DCafBTz+zJmoAqquriUYlF0psHnP06NGjMzfu6FIvaqtWrWLp0qVUVFQkE+HqfHUsnDOfgd32onlJKVaJl5qon6pwLS7DkiBhIyhLYYfjhGdVU/fpYvw/lKNjaxINi4uLOeqoozjiiCPSFvYR2a2uro4VK1ZQUVGRzNkxDAOtNXV1Ncybt5wWrQ6lTYsiClr4QZdDPCbxwQaoxOjeqVNg8s9QsdiZ8OiDTyAaVclWmObNm3Psscdy2GGH0bx58/Q3EWITSMvBBpx88sm8+uqrybnq69UFfJxy/hn8/MLXPLj7VezTso/kH2wC5bWI10RY+dDv1H6yKLOYU089lRdffJF+/fplFokstscee/Dmm29y8sknJ7el5h9UVi5l+HlH8cTTq0G9Bi75/W4Uj9Mw8NATcNQQOOw4ePmNzEowfPhwnnnmGXr27JlZJMQmkZaD9dBao5SiqKiIzp07o7Vm+vTpaRe7FcuWU7lsJX067cKuXXsyu3oR/ngQS6WP+RbpzCIPdjBG7fsLsOvWNIG2bt2aiy66iLPPPpsOHTqk7SOyW/35opSic+fOFBUVMXv27OQw1NQWuSVLVlFRUUOnjvtS2rYNRP4kY4UmkaA1qBxncaW33oApf0I8Dqkjejt16sRll13G6aefTqtWrVJ3F+IvUTozrVikqb/gAXz22WcceeSRye4FpVQyUPju/a/pdHRvjv3kYpYEllPkyk97H5GgFMoAHdeEZlax8sHfiS71JYv79u3LZ599JisvNlKp58vq1asZOHAg06dPT5bXl2mtMU0XH386lcMOqYO6fYBYsp5I4XIOTVkZXHYNvPVuZgU46KCD+PDDD5OJu0JsLulW2IDUpx2fz5cWGNQzTRNvfg4oA388RDguSzo3SIPhMTEK3NR+vIjld00mWp6+yFVtbe1aC19lhS0RQ2/Oe2zOvttQ6nnh9/sbXEGzPqDOy8ulsMADxEHFJDkxg9aACXhh4s9w9Enw3kdrylOPddaeN6LRkm6FTRCNRonH45SVlaWdiKZp4na7CasoXbp2wXYrFtaUYSoDU7oXHAqMfBfxqjC+/y2l9uOFRMt8aaPZevfuzemnn87++++fGBOfRZRCV64mOuE7Yj//QnzKn8RnziI+Yybx6TOIT/md2G9TiE35ndhvvxP7/U/i02dgz52HvXQZKj8PlZ/emqRXVxGfOZvoV/8jNnESsT+nEp82w3m/6TOx585DV1WjmpWiGuF49VgsRiAQoEOHDvTr14+Kigp8vjWtRKZp4XJZFBeG6dC1E7hXQqQqER/s2EGCBlSh02Iw4St49Cn4/GunK0Gp9FbL/v37c+qppzJgwAA8npRJD4TYDNKt8BdccMEFPPbYY5mbGbTfgbzz1tu8HvkfN01+DMswcdWnGQuMfBf+CcuouOOX5KqL9UzT5Omnn+ass85K255N4lOnEbjtLmJT/kBX1yZGjyVuYs4VO32HaBRyczG7dSbnkgtxDz5mTZnWxGfMIvLxp4Seeg57+QpUbo7zuFjfOlVSjOuA/cj9v+sw2rVds28jpLXm1FNP5bXXXsss4vAjTuTll1+gtORGqLs7s3jHVQAVc50Wg1+nZBY68vLyeOWVVzj22GMzi4TYLNJysJFS+1J33XVXWrduzbfffps2z//KFSuY9sc0dmvXg9MOG8q8yDKWxVfh8XrxRwMEoyFchoWhdoDeHA2YCiPPhVnkQdua6tfmUP32POKV6YtV7bLLLtxzzz0cddRRWd1nqjwejI4dMLt1RRUWYpctxa5YDoaB+7BD8J7+D9zHHo1nyPG49h1AfMYs4rPmQNxGV1eD34/ZpTPK63FyL1wujJYtsHbvg/voI3AfNBAAXVXtBB+GwuzYAdffBqEKCzM/TlZLPV9INIH37t2b4uJiJkyYkFa3fFkFv/8+nY7tB9Jx5+PBMxmsWogknqAzg64mSOtEbJmfGJnggU/egStvgIm/gG2vfQz23ntvxo4dyyGHHCItBmKLk+BgI9U34ymlKCkpoW/fvsyZM4dFixYlJ+qJxmPMnDuLznlt2a/bnnzx+7fMmT0Hc2WMXqVd6dqqE6vDNYTjkSbf3aA8BjpsE5lXQ7TcT3RRHVWvzCa6OL0Puk2bNpx77rlcfPHFWR0YoDXK68Xs1BGzc0eIx4lNnY69fAVGURGeU4biPfM0rD33wOy+E1bfPsT+nIa9aDHEYthLytC1tbj27I/RsgUAyuvFaNkCs1cPrF16YfXZDb18BXbZUnRtLSo3B3OnrrgGDUQVZKzHm+VSb+j1503z5s3p1asXM2bMoKysjFjMSUCMRkPMnj2VnLz+dGjXn8Wz38EORyhq0Q+lfBAPNfleBuV2MsDmz4QFc2B1Bfz3MSfHIHVUQvv27enWrRuFhYUMGzaMc845RwIDsVXsAI+wW07qBa+goIAXX3yRK664Iq0OwFOvPsvRRx3Ft/9+A//o31l200TOCx3GPfteSbGngJromn7XpsrIdxOvCrHywSksvWICy++cTCwj+bCgoIDHHnuMa665Jm17Vkq92fn8EAqlPO4B4TC6zrfmSh6N4urfD2vffcDjQdfWYS8tJz7HySNoiA6H0aFw+t2gCUg9b9q0acObb77JiBEj0uoAPP/sWA49bDCDDl/IQ0+fDe4PIGe/lBpNM0LQ2kk6xIBbx8C+h8Ahx8J7H9fXWPNzjxw5ki+++IJPP/00q7vgROMnLQd/Qf2TkGmatG3bFrfbzezZs5PTxkaiEXw+H7FgFOJA2MblAzOm2LvPnngLc/lz1WxA4TKaUE6CBpVjYngsAhMrqHlvAYFfVkBcOzkGKdktffr04dJLL2Xo0KF4vd7Ud8l6uqqa+IKFxCZPwV7h5Aq4BuyN1XsXVF4+GAbEbewlS7EXlxFftBC9shJVWIjnhMGYPXZ26mSKRolN/pX4rDno1atRbhdm506NsuWgIfXnjcvlok2bNhiGwfTp05NT/UYiYQKBILEYlK/wEvDDTp13oaBlC4hNcaZBaEJdDFqDcoHKh4XT4P4H4ZU3obYW/P76mQ8dLVq04Pzzz+fMM8+kQ4cOFBcXJxcjE2JraOAKJTak/klIa0337t255557OOKIIzKrpXn1k7e4Y/RtHOjvyQnNB9E6pzku08LGbhqLNiknx4CYJrYySM34+dR9sSSzFgBut5sRI0ZwxRVXUNAEbnqQ+PmVSnu41TW1Tq5B3Ebl5GC0aIbRqQOYTbtLaV1Sz5u+ffty7733ctBBB2VWA2D+3O+47rpL+ODT9ujYpUBXZ1ifagLnCs73RZmJeZ/88NpbcNOdsHxFaqU1P+tRRx3F3XffLTMfim1GgoPNkNpcOnbsWMaMGZNWTmJe+XoLFi1g6Okns+S9qbx62FgG7rQXNVaQmqifUDzcOOdG0KA8JmahG1eLHEKzqqi4bRKByc5VLvNn6tKlC6+88gqnnXZa2vbGK3EB93icp/v6G7/bRXTiRCJffIm9chXmbrviPvJwVFHjSizcGurPG4/HwyOPPML111+fWSXphhsu4V//foqY63XIG+Uk7Jmgkz0vjeuc0ToxqVFi8SS/D4adD2Pur6+x9s8zZswYbr755rRriRBbm3QrbKb6ptKCggI6d+7MsmXLaN26NV26dKG8vDxtdTQNVKxcjjdq0btldz7/6WuCq30c2+cQcvJyqQivJhKLYms7axMWlalQbhNlGRguE+U2iCysI/jbSqJlPvzfLcP/3TKw1zz1tG3bloEDB9KmTRuOO+44LrzwwkbdJKqr13Qr6MpKJ7GwsBBCIezy5dgrVxKfOp3Y5F/B5ca1/z54Dj8M14EHYLRrh1rXMrqxGLHJvzXZboVU9edNUVERbdu2ZenSpXTs2JH27dtTVlaWHMPv91WzaNFKWrY+hIqyP1k4czKtWh+Mu7QDmEucu61df09d+8aaNSwnr0DlQFU5fPMllM2Hr/4H9/wX6lLSkHJycjjwwAPp0qUL+++/P5dddplMJS62OZnnYAuybZtoNIrH42HRokUce+yx/Pnnn5nVsEwT07IIh8P8/e9/543X3+C5uk+57dcnMGyFCwvLyM7gAEOhDOcirFwGGIrKJ6dR9epsp0w5UyOnGj58OPfffz8ejwfbthv9GvP2goVEvvqG0BPPEJ8zF5WXGGVhGGBZEI2g8vJxH34o7iMPxxq4Hyo3F+I2mOt++tPBIKEnniLy3kfJ93UdNJDcG67FaNu45zlYH9u2iUQieL1epk6dyjHHHMOiRWsW41LKcCYZC4do164Fb771BfsMKIfwMRCLNY4lGcxEgOB2hiiecjbU1oHHDZFookUhoV+/frz++ut069aNcDiM2+3eIYZziuwiLQdbiNYawzCwLCfBsLi4mJYtW7L//vtzzDHHsHjxYlascJraba2Jx51JgOy6CMvLKvj4vY+om7GSG466lD7dd+W32tnEXM7SxnVhH7atcW/L5EXt3PyNXAvlsTC8Jma+i+Afq6h6ZTaBiRUEfl1BYOJyApOWE69JDEpPuch5PB4uu+wyzjnnHDp27IhhGJiJZvfMcfCNSVrLwYoVKK8H1yEHY/XdjfjMmdgVKyAWQwdDGEWFWP37oTweSARV67QDtRzUyzxvWrRoQZcuXaipqWHu3Ln1tYjHnWGPdXWKlSuDfD/hOz78YBpt2p9Pm65nguc38PgTcwQo58/ETXdbfs+0BuUBctfMV4AH/vcF3HEXfP0FvP8xTJ/p1HcuA2s+35AhQ7jiiisYMGAAAJZloVKGUQuxrUhwsIWknrj1J/Iuu+zCgAED2HvvvVm6dCnTpk2jVatWKKWSa91X+2v5cfJEyqYtIH+x5tK/n4Pb4+GjP77Et6Ka/Iibbs06kuP14k+M9zYSK9/ZWmPXr4SX8lk2mZGY3S/lpSwDOxAjtsxPrDJEvCaM7YtS98USat5bQHheDeFZ1YRnVTmBQeZbGgZ///vfueeee+jWrVtmcaO+0KUGB3ZFOSo3F+85Z+P++6HY5RUQDkMkQnzRYgiGMNq2caZA3tA8DjtgcNDQedOzZ08KCgr4/vvvyc/PJz8/P2Xa5SizZv3KpEkzmPQrtGx7Ib167MfqsreprqimaiVUlkPEl0t+QQeU2wACTnZV/WtzqURLQOp7Gs42ZYG/BpYugNXLIVgNoVp4eBw8/jT8NAnmLch8Q0f37t25/fbbOfTQQzOLGvX5Ihon6VbYRpYvX051dTX5+fncc8893HfffZlVcBkWnTt1JuqyWRpYQbTKR/8D9uWl515kgms6N09+DKUUHsNplvcHAkTDEXKtHCxlbvqoB+1c6AyvCVbiqqmdC52R68L3v6WsevgP7EAU5bVQhiJeE14rGFDpDQYAXHPNNYwaNYrWrVs3uQtbardC7M+pGM1KybnqctxHHo69bBnhV98g/PJroDVGu7ZY/XbHO3I4rgMSY/ZT50dIsaN2KzSkrq6OsrIySkpK+Pzzz9c5pr9lyw40a5aLji8AnO9lVRUcccSBPDHuSdyep4C7ErUT39Qw6HD9r6Chb++6aQ3K63QPrMvHb8GlV0M4Anm5zr9TsRxWV9XXWPvfPOKII7j77rvp0aNHshVFiO1JWg62svqnofz8fJo3b05hYSHNmjXD7/ezYMGC5OyKALa2WV29murKKuzaCETBU6PoXNSOP6f+yaQfJhKeWU1wWiXB6ZX8rcMADtt9EBWx1dRoPy63C+UyNv6VY4JSBCavIPBDOeHZ1YRnVhGeWU14TjX+HyoI/rYSOxDDro0Qr4mstSZCqiOPPJKBAwfSr18/hg0bxs4779zkAgMyWw7q5znYqz/W7n0wu3ZxEhPLlqKDIajzoetqMUpKMDt0cEYrrOuY7IAtBw3RWuPxeGjRogX5+fl06NABrTVLly6lpqYmra7fX8uqVZWsqoyzqlKxqhL8AahYUYTp6sz8Wb8w6fup/DYJfv4BpkyGZqXHUNxuP/DMA3fYudFvzMvjdBnMnAJvvQG//gxTfoHfJjmv3yfDrGnw+jvw7fdQUwurKmHlKgiG1v6d9+/fn6OOOopevXpxyimncPDBB8uIBJE1pOVgO4lEIpx44ol8+OGHmKaJ1jptnYaN8dg9D3PCxafyz+//j4kr/6TIlb7q34YYORa2L8LyMb8SmLQ8s3i9TNNM3vhjsRjt2rXjzTffZJ999sms2uQ02HIw6iI8p5+C0bYN8bnziXzwEeE33iY+fSbK68Hq0wfXEYc5dRLTJ2eSloP1u/nmm7nxxhsh8f2rz9vZVI8+9hYjz++DXXsoOr5oo9sNrESAcNvNcP0tmaUbJ/VzP/zww1x44YWZVYTIChIcbGOpiUU//vgjS5cuxev18uCDD/L5559nVl+vAbvtSYeeXfhhxRRWhqtwq00bBaAshY7aBKetxq5bO29gfS677DL+9re/UVdXh23blJaWMmjQoOxbanlLSekK0KsqiXz2JcH/PkJsyh8YzZuRc/UVeM8+A1XgBGjxWXMIPfwYkS+/dqZLNk2sPr3xXjTSaQmoH+GQIfT4k4TfGk985mxUfh7uQw8m945bUE31uG5A6vkyd+5cfv31VwoLC/nkk0944IEHMquvQ3ozfp++g+jZo4R45HOw/Rs9AtIwnMEmv/0Bs+ZkltZbu8sg1X/+8x/23ntvIpEIAwYMkCGKImtJcLAdNJR5/OSTT3Lffffh8XiSQ/0sy6K2tpbZs2endT+olLXct5gGrmklJSV07doVl8uVbNXw+XyUlpZy//33079///Qd1vGzNRU6HMZeVo49ew7RnyYRefd94nPno4oK8Zw8BPeRh2N0aIfZrStYFpEPPyby7gdEv5mAXV6BatEcz/HH4hp0AOYuvZwuhlgcu7ISZZroOh/hd94jNuF74kvKUDlerD364hl2dmJq5lxUfr4zXHIHk/m9+uWXXxg1ahS1tbVrBaSWZVFVVcXs2bPTWhcaPm8a+OJvhPqPstbbAc2bN6dz587JFkESORTt27fnv//9Lz169MjcRYisI8FBlvD7/fh8PlRiJAKJm/OECRM47bTTqKioyNxlqzviiCN45JFHaN68eXJ0hW3bGIZBUVERbvd6srKaoPjMWQTv/y+xKX+iK1ejw2FnLFpifgOjZQus3rviPulE3EccBkD0q/8RuOEm4gsWOvU8HoxWLZzVFvfaEx2JEX57PLqqClxuCAXR4YjzvkqBZaJMC9fA/fH8YyjWnv1RpSWZH22HE4lEqKmpSX4fU5WUlPDhhx9y1llnUVtbm1a2LZxyyincc8895OfnJ4N627YxTZPi4mJJOBSNgmS/bGdaa7TW5OXl0apVK1q2bEmLFi1o0aIFlmXRrl07AoFA5m5Jm/OUvqF9lVJ06dKFgoKC5Gdq1aoVLVq02OECAxI5AfG584jPmkV8wUL06iq0P+CsuLhoMfEZM4nPm49evTq5jyouQodCaL8fXV2DvXAR8dlzic+Zi72sAntZOfE/pxGbMYX4H38SX7QYXVmJrq1z6i+rIDZ3KvHZc9DVNejEMsc7Mq01brc77fuY+rIsizZt2qQMf1zbhr7767Ix+9Wft0VFRWnnTfPmzbEsq4HWCyGyjwQH21lqS0FDwuEw7du3xzAMSkpKKCkpobS0lNLSUjwez2ZdaOr3zc/PT75naWkpxcXFKKUoLS1d7wV2R6O8XswunTF7dMfsvjNG544YHdphdGyP2X0nzJ49MLt0QhUXrdlJ2xitW2G0b4/RqQNm952dV9euqNYtMdq0wtylJ9ZOvTF774K5804YnTthdEzU79YFq9uuGF27oIoKUfLUud7zpV4sFqNjx46YprnWeeN2u//yeaO1Jicnh2bNmlFaWpp875KSEoqKijBNk6KiorRp0zNtzOcXYnuTboUs5/f7mTZtGoFAINkc6fV6sW2bm2++mQ8//DBzlwY13N/qPOVcf/31HH300YTDYUhcAGOxGK1ataJ79+7JWQ13dDoQwF5Shvb7IRZPn89f22BaqLxcjBYtUM1Knc11PqdLIdEtA4BlobxeVGEBaI29ciVEYw0v46w1aI0qLMRo1dIZ0uiSAGFDampqmDFjBuFwOPn9zc3NJRgMcs011/Ddd98l69bfrBs6PxoybNgw/v3vfxMMBgkEAmn7x+Nx2rVrx0477SRBgGjUJDjIYnoDyX0vvvgiTz/9NF6vt8F+TJfLhd/vZ8KECcmuicwgweVy8emnn3LwwQen7JluQ59jh6Abnrhovf7KPmKzbej7+uSTTzJ+/HgKCwuZMWMGU6ZMyayyXkOGDOGaa65hzz33zCxKs6HPIUQ2k+CgEYvFYusd6+3xeFi+fDnHHXccEydOzCyGRHDw9ttvc8wxx2QWCdEkpd6077nnHv79739nVtmgli1bMn78ePbdd9/MIiGaBAkOdgBff/01Tz31FC+99FJmEYZhcPjhh7PTTjvh9/s544wz1mpFkCcg0Vg19N0dP348X3/9NYWFhXz//fd8/fXXaeXrYhgGOpFADHDMMcfQvXt3gsEgfr+fLl26cPXVV6ctR97Qvy9EYyDBQROWemH6+eefGTZsGNXV1bhcLpYsWdLgjIznn38+N954I6FQiNzcXFq1apVZRYhGp6ysDK01kUiEiy66iE8//TSzCh6Ph3bt2mFZVvLcMAwD27ZZtmzZekcNARQVFfHyyy+z1157UVtbS9u2bdMCBSEaEwkOdhChUIglS5ZQUFDAH3/8wT/+8Q+qqpIrwSSVlJTQokULqqurOf3007n33ntBnoBEI5L5XY1EIpx22ml89913FBUVsXTpUvx+f9o+AH369OHZZ5+ldevW1NXVAZCXl4fP52PkyJF88803mbukUUrRsWNHbNumoKCAcePGsd9+zmJbmZ9JiGwnCy/tALTWuFwumjVrRn5+Pp06dUIpxfLly1mxYkVa3VAoRGVlJX6/n4qKCtxuNx06dKBgB1r4RzQeDd10lVLU1NTw2muv8euvv/LVV1/x3HPPUVlZSWVlZdoww+7du3PyySfTq1cvBg8ezHHHHUdBQQHNmjWjWbNmFBYW0rx5cwzDoKCggIEDBxKNRtealKy+y6Gmpoba2lpWrlxJMBiktLSULl26pH3Ghj6zENlGWg52YM888wznnnsuWmssyyK2jgl2HnnkES644AJs20ZrLUMbRVbRiSGE9Zcyl8vFl19+yXHHHddgC0Gqq6++mjvvvDNz83qlJjFuaAGofv368f7779O2bVui0SiWZUlgIBoFCQ52MKlPLeXl5fz000/k5+czceJEbrjhhszqAPTu3Zvu3btTV1fHmWeeyZlnnplZRZ6GxDaV+n0LBAL8+9//ZtasWRQWFuJ2uykrK+OHH37I3C2psLCQ22+/nRNOOIG2GStebui7vHDhwuQCUF988QV33XVXZpUkr9fLQQcdhFKKFi1acOedd9KmTZtk+Yb+LSG2FwkOdlCZF6VFixYxcuRIysvLcblc/Pnnn8lJkVIdddRR3HzzzRiGkUzQ2mmnnSRxUWwXVVVVvPfee1xwwQUEg8HM4jRFRUXssssu1NXV0b9/f8aNG4fL5Uq2OGzMTTrzvJk6dSqXXHIJlZWVFBQUYJomS5YsYeHChWn71Xv44YcZNGgQNTU19OjRg2bNmmVWESIrSHAgAIjH49TU1FBQUMD8+fM58cQTmT59emY1PB5PMv8gFAph2zb33HMPI0eOhAYunkJsKQ19t6666irGjh2btm1djjrqKJ577jny8vIIh8MUFRWt9X6bKhqNUltbi23buFwuCgoKuP/++9c5d0JRURGxWAzLsnjsscf4xz/+kVlFiKwgCYkCrTWGYZCTk4NpmjRv3py8vDx69+7NoYceSnl5OZWVlZAIIgKBAIFAgEgkQjQapby8nHg8Tu/evZPLTde/7+ZefMWOLfU7VP/nM888w1tvvcV3333Hm2++mfxuNuSAAw5g5MiR7L333hx//PHsscceuFwuvF4vKjFb6F/9jupE/k1ubi55eXl4vV4Mw6C0tJRmzZpx2GGH0alTp7QZGMPhMNFolHA4TF1dHWVlZXz88cfYtk23bt3Wev+/+tmE2FzSciDSNHRBuvrqqxkzZkzatkx5eXm88847HHLIIaxevTrZ9yvE5sps1TrhhBOYMWNGZrUGW7XuvvtuLrjggrR6DX3Ht5TM954+fTpDhgxh3rx5FBQUUFNT02AC46mnnspjjz2GYRjE43GKilIW7xJiO5DgQGxQdXU17777LhdeeGHaRDD1E8TU6927d3KdhzFjxjBw4MBk2ab064odW+YNtjHnw4TDYaZOnYplWZSXlzNy5EgWLVqUWY1mzZrRo0cPampqOOigg3jooYfSyjOPiRBbmwQHYp1SL0iBQIArr7ySefPm4Xa7mTBhAtXV1Zm7JI0cOZIhQ4ZQU1PDrrvuSs+ePdPK5WIn1mfZsmVMnDhxgyNpdtttN3beeeesHEnT0L97ww03pP1cy5YtSysHaNeuHXfccQfNmjXDMAwGDRokUzKLbU6CA7FRdGIsuWVZ1NXVMWTIED7//PPMakmp47+vuuqq9Q73EiLT008/zbnnnguJZcXXNQfHo48+ysiRIxvNHBz1yYgA5513Hk899VRmFZRSWJZFNBqlXbt2fPDBB+y+++6Z1YTYqiQ4EBvU0JPK559/zowZM/B4POTn57N06VJuv/12ampq0uqRmIXukEMOwefzMWDAAC666CJYx/uKHUNDv/u33347uZTy5MmT+emnn9LK6/373/9mt912IxAIcMQRR9C5c+fMKlmnoZ/3p59+YvLkyRQWFjJ+/HjefvvttPJ6gwcPpk2bNsTjcS6++GL69u2bWaXB9xdic0hwIDbJui5CkUiEs846i/HjxzfYH1yvd+/ePPfcc+y+++4YhpFZLHYwZWVlxGIxtNZcfvnljB8/PrNKkmma7LPPPrzwwgt06dIluX1d38ls1dDnff/99xk1atQ650eoN3r0aEaOHInP50vOuNi+fXu8Xm9mVSE2iwQHYovx+Xw8/PDDXHPNNZlFadq1a8fdd9+91hjvhi6aoulJ/T2fccYZfPrpp5SUlFBRUZFc8Kghw4cP59Zbb6Vly5aZRU3CtGnTGDZsGJMmTcosSmrRogWlpaXE43Hq6upo2bIlzz77LP369UvWkfNIbAkyz4HYbPUXI7fbTcuWLbFtm7322otOnTo1OJFSXV1dcp6ECRMmEA6Hk4tB1ZMLXNOR+btUSjF//nweffRRnn/+eSorK1m9ejWRSCRtP4DDDjuMo48+mt69e3PGGWew6667QgPv2ZjV/ywtW7ZMzpMwcOBAAoHAWgujBQKB5PHy+/2sWLECpRSrVq1iwoQJFBQUrBU8NaVjJbYhLcRWMnPmTL3TTjtpQHs8Hm0YhgbWep1yyik6HA5rrXXyT9H0RCIRbdu21lrrG264Ya3vAaCVUtrtdmtA5+fn648++ijzbXYYN910U/KYuFyutY5VQ69bbrlFa611PB7X0Wg08y2F2GjSrSC2mMwnlEgkwrfffks0GqWuro5rr72W+fPnp+0D0LJlS/bZZx/8fj+77747Y8eOlVaERqr+ctLQ7+v+++/n/fffp6ioiD/++IN58+ZlViEnJ4exY8fSo0cPQqEQ+++/PyUlJZnVmpyGvuPz5s3jjz/+oKioiA8++ID77rsvrbwhO++8M71796ampoYTTjiBiy++OK28oX9HiIZIcCC2ioYuQldddRWffPIJRUVFzJ49e60mU4BWrVrx2GOP0blzZ8LhMH369Ekb4709NfQziYYtXryYBQsWYJom+fn51NXVccUVVzTYn15QUEDv3r0JBALssssuPPbYYxQWFibLd7Tj3lCA9csvv3D55ZdTV1dHfn4+pmmyYMECFi9enLJnun333ZexY8ficrnweDxrjXLY0Y6r2DQSHIhtxufzoZTCMAwuvfRSxo0bl1kFwzAoLCzE5/PRvn173nrrrWSy1ba+mGX+e5n/LxwNHZcbb7yR2267jdzc3OTKh/UZ9pkOOuggXnnlFUpLSwkGgxQWFq71fju6aDSKz+dDa43L5SI3N5fbb7+d//u//8usmuRyucjPz6eqqopBgwYxfvx4iouLk+UN/d6EqCcJiWKrq78Iud1u3G43LpeLNm3a4PF4WLBgQXKqW5VYCKd+Xvzq6mpWrFiBy+Wie/fu23yCG6UU33zzDU8//TStW7emRYsWmVVE4jiFw2FeeOEFXn/9db7//nvefvttKioqiEQiBIPB5O+03qBBgxg5ciT77rsvxx13HHvttRemaW6RBZGaGp2Y3CknJ4ecnBw8Hk8ycbFly5YcccQRdOzYkRkzZiQnHlNKEf9/9u47PopqbeD4b2a2pycECF06CIiI2EDBimIDu6hcG6Ko13JFvSr2/tpREL2KoqigIiqiNJHei/TeQkmv23fnvH9sdtmdJEhJQgLnez/7uTLnzCTZ3Zl55pTnBIN4PB4AcnJyKCoqYuHChcybN48mTZqQmppq+EmSFMU4CEGSakp+fr445ZRTyg2qomwQVvi/e/fuLdxut3H3GhEeODd+/HhjkRSluLhYnHnmmZV+hsbXc889ZzxEZLCi9M+M79WCBQtEQkJCufe5os9BURQxderUmP0lyUhmoZGOGa/XWy6jYvhpMbq3y263V5rkpbp7xcKtFcc6YVNFf2dF22qK8WcnJCSUGxtirBPdElBaWhpTRiWDGKWKGd8rt9tdLkdERecSZatXRo/poII6x5LxdzH+W6oZsltBOma8Xi+5ubmkpqbSuXNn8vLycDqdxmokJCSQmJhIZmYmq1atYtWqVei6TsOGDWMuktXRFL1o0SJmzpzJoEGDaNOmDVTTz/kn4ab22bNns3HjRpo2bRrJ0X8sKIqCz+dj6tSprFu3jqVLlzJ16tTIINPK3h+z2Uzv3r3p378/HTt2NBZLR8jpdFJSUsJJJ51Ey5Yt2b17d8x6FNGfh9lspkGDBrjdblauXEl8fHzMWIRjTVEUdu7cyYwZM7BarbL741gxNiVIUk0KBAJClM2Bv+6662KaP8MvRVGEyWQSJpMp0kQ6ePBg46GqxUsvvSRUVRWTJk0yFtU4v98v+vTpIzp06CCysrKMxTVu9erVolmzZgKI+WwO9jr11FPFnj17jIeSjpKu65G8Bjt37hSdOnUq995HvzRNi/z3+++/bzzcMTdmzBhhMpnERx99ZCySaoicrSAdExU9fc+dO5e1a9cSHx/PuHHj+O2332LKozVr1oyLL74Yt9tN586defzxx6GS4x6uMWPGMG3aNBISEli6dCnLli3jzDPP5Oabb+buu++utIujukT/TWeffTZ79uxh8+bNWCyWKvl7/0lFP2P8+PF8/PHHzJw5M2Z7NE3TePrpp+nYsSMlJSV4PB6aN2/O5ZdfDpUcVzp8Fb2PP//8Mzk5OQC89957rF69OqY8Wrdu3Tj99NMpLi6mX79+DBw4MKa8ouNXpfAtKPpnjBs3joEDBzJ69GjuvvvuSL3q/D0kA2O0IEk1zTi4Sgghxo4dK5o3by5at24tGjduXO7JJ/rVvHlzMXv27EgrxNG6+eaby/0MQHTv3l04nU5j9Rrh8/nE6tWrxWmnnSaaN28u5syZU+PZJLdv3y62bdsm1q9fL3r37l3u/QGEzWYTbdu2FY0bNxYXXnihyM7ONh5GiEo+c+noVfS+PvXUUyIjI0O0b99e1KtXr9xnFv26+OKLxcaNG8W2bdvEjh07jIeqVtnZ2WL9+vViz5494uWXXxaA+O9//ytyc3NFMBg0VpeqmQwOpFqpqKhIbNu2TeTn54vRo0eXu4gZX2lpaWLUqFHGw1R4saxIdL177rmn3PEBcf7551dYvyaMHz9eNG3aNPK71KtXr1qbg41/n9PpFFdccYVISUkRJ510krDb7eXeH0CcdtppYu3atSIrK0vs2rWrygI26cjl5OSIHTt2iJycHPHII4+U+8yiXw6HQ5x00kkiJSVF9O/fv9IA1Pj9qApvvvmmqF+/vmjWrFkkiNE0TVx66aWyK+oYkAMSpVpHCIHNZiMlJQW73U56ejqKotCtWzfatm3Lxo0bI/O5w8Kjtf1+P3PnzqW4uJhWrVrFNEMerFlSURR2797NN998w+TJk9m7d6+xCoqi4PF4SEtLq5GcB9G/76JFixg7dmykzOVy0b17d/r06VOu7pGKPoaiKBQUFPDVV1+xdOlSpk+fzrhx4ygqKqKwsDBmsFvHjh25+eab6dSpE1dddRV9+/YlLi6OpKQkVFWtkt9NOnzh993hcJCcnIzD4SAhIQGTyUTPnj1JS0tj8+bNMfv4/X4KCwvxeDzs378fRVHYunUrc+fOZfbs2RQXF9O6detDPq/+SfS+P//8M1OnTqWoqCiS+0QIgd/v595778XhcBj2lqqVMVqQpNosMzNTdO3aVVDWhF3ZYk59+/YVRUVFQgghPB7PIT3pfPfdd+WOU9HrlVdeMe5a7T766KNyv8dTTz1lrHbUAoFAJKfEb7/9FlkEyfgym82RQW1PP/208TBSHTBr1iyRmpoqKFsY7VAGlF544YWioKBAiMM4rw7VY489Vu7nAaJjx45i06ZNxupSNZMDEqVazfhUous68+bNiyz5/PTTT/P333/H7AOQkpLCmWeeicfjoV27drz99tsx8/DDx40+/pQpU7jssssgaupgWPS/33nnHR566KGY41SXrKwsXnzxRX777Te2b98eU9aoUSPOP/98nnnmGdq2bRtTdigq+t2nTZsWycefk5NT4VoIAA8++CADBgyguLiYDh060Lp165jyio4tHVvGz6S4uJgFCxZgNpvZsWMHjzzySLm8I0ZJSUmcddZZeL1e2rRpwzvvvBN5ojce/1CtX7+eF198kVmzZrFv3z5jMQ6Hgy5dunDPPffwr3/9y1gsVRdjtCBJtVVFTykvvvii6Nq1q+jdu3elAxfj4+PF2LFjxbJly8ScOXNEcXFxzDH8fr/YsmWLeOaZZyptiYh+3XXXXeLvv/+ukayNO3fuFA0aNIj87PDTXfj/VVUVCxcuNO52WDZv3iz++usvsWzZMnHXXXeV+3vDr1NPPVWcddZZ4txzzxULFiyIOYau6xV+PlLtZPysvF6vuOOOO0S3bt1Er169RHJycrnP3/iy2+3i008/Fbm5uTHHOlyzZ8+OHNPYehH97yFDhkT2Mf7+UtWTwYFUpzmdTlFaWir8fr/4z3/+U+4CFr7AJCQkCJPJJNLT08XMmTNjjpGTkyMuuOCCcvsd7NWhQwexatWqmONUh71794r27duX+/nhV1pamlixYkWk/pFcNB988EEBiMTERGGz2cr9DEAkJyeLv/76SwghREFBgfD5fMbDSHWYruuiuLhY+Hw+kZ+fLy677LJy34HKXv/5z3+Mh/vH72F0+aJFiw4pGHnssccq3F+qHnJAolQnhZswzWYzFosFVVVp3LgxcXFxrFmzBq/XG1Pf5/Oh6zoul4u9e/diMpno3LkzlKVGfuedd/4xux9RZT6fj/vuu4+0tDSI+n2q0rRp03jvvfdYunRpZAEdIyEE2dnZqKpKu3btKkzzHP27zZkzh/fff5+ZM2cyb948pk2bxk8//UR+fj5erzdmoGHYmWeeyRNPPMFll12GyWTCZrOhaVq1/M1SzQt/jlarNbLAU3JyMi1btuSSSy7hiiuuoEePHqxbty4yUDBabm4uWVlZTJkyhV27dtGtW7eY70VF3xNFUQgEAvzwww98/PHHrFu3rtwgY6PS0lLy8vJo1qwZKSkpxmKpqhmjBUmqi8JPEn6/X1x99dXCYrGIhg0bVvokfPLJJ4v169cLIYRYs2aNOPXUU8vVOdirYcOG1b54TXQTv7G51bjtkksu+cdpgyUlJZVO0zQePzk5WaSkpIikpCTxv//9L3IM+cR2fKvs8w0Gg+Kaa66JnFeVTWXt2LGjWLt2rXA6nSI7OzuStbEiXq83psXO+B2s7Ps5ZcoU46GkalD+MUOS6qDwk4nJZOL1119n0aJFTJkyhfPOO89YFYAtW7Zw00030bNnTwYOHMimTZuMVQ4qNzeXO+64g2effTYyULEqRB8rPj6+wu0VbYuLi4ssElXWXRhVE7Zv307//v354osvYraHGesPHz6cRYsWMW3aNK688srIduMToHR8qezzVVWVV155hUWLFvH7779HptAabd26lZtvvpnTTz+dgQMHsmfPnpjy6O+mxWKJmZ5o/A5Gi94nKSmp3Hap6sluBem4EW6+TEtLo2HDhjRs2BBRNk/6tNNOQ1VVsrKyAAgGg+zfv5/du3eTlZWF3++v9MJopCgKuq5TXFxMSkoKN954I0T9/KOhKAp5eXlMmzaNn3/+udwMhcrYbDbi4+Np3LgxDocDpSxvw5QpU9ixYwe//vorY8aMIRAIoChKud/TbDbTt29fOnfuzOmnn86QIUNo1apV5HhV8bdJdVNF5xVlXWunnXYaJpOJ/fv3Q9l5lZWVRU5ODtu2bSMpKYnS0lJWrFhBSkoKiYmJKIpCbm4uP/zwA7///nvknDwUJpOJpKQkUlNTqV+/fiQglqqBsSlBko4n0c2kH374YbnmyqN93XzzzTE/rypMnjxZOByOcj/rUF6ffvpp5DgjR46MbD9Yky1lAyy3b98uRFkTcmXNy5IkDOfVqFGjyn2fwq/o2T+VfTeP5HXhhReWm3UkVS2Z50A6YezYsYOZM2ficDhYvXo17733XoVLRB+ORo0acdFFFzF06FBOP/10Y/Ehi34ynzVrVqTZVjHkW6hIdJ3u3btz+umnI4RgyZIlLFu2zFg9okOHDjz22GOoqkpKSkpM9wGG30mSKhNeXjkuLo6VK1fy2muvGasAcPrpp9O9e3eEECxevJjly5fDIX7HMdQ799xz+euvv0B+T6uNDA6kE4LxArJu3TrOPfdc8vLyYuodjuiL1ZgxYxg0aJCxymHRdZ2ioiK+/vprHn30UXw+n7FKpf7pAmuxWGjZsiUWiwW/309xcTG33norr776akw94/skSQdj/L5s27aNQYMGkZmZidVqZfv27Qf9Hv/T97YyPXr04P3336dr165YrVZjsVQFZHAgnZDWrFlD7969jyo4iPb9999zzTXXQAUXzENVXFzMPffcww8//EAgEDiii2ZlOnTowDfffEOzZs0oLi5G13USEhKoV6+esaokHTG/309WVhYOh4OdO3dy4403HvZg30OhKArp6em8/PLL3HXXXcZiqQrIAYnSCUXXdf7880/GjBnD0qVLK5zXfySEEJhMJpo1a4bFYjEWV8gYRIRnWmRmZsJBRo4fiuh9e/XqxdChQ+nbt29kDntKSspRp72VpGhCCDRNIzExEbvdTkZGBgDNmjWjV69elJaWRnKJHI1wa4PT6aRXr16cc845IL/HVU62HEgnFJ/Px9VXX82UKVOMRUetffv2TJ06laZNmxqLKqXrOl6vF7vdzr59+7juuuuYN2+esdoRS0lJYcKECVxwwQXGIkmqUffeey+jRo0ybj4qL7/8Mv/973+Nm6UqIPMcSCeEcAxssVgwmUyR7VX5pKGqKqmpqVD28w4l7t62bRt33nknffr04dZbb2XdunXGKkesb9++/PDDD5EnK6LeB0mqThV9z6ryXAv76KOP+Ne//sWOHTuMRdJRksGBdEJQFIWCggKmTp1KTk5OZHtFF7Ej5Xa7mTRpEnl5eShluQT+6filpaVMnDiRWbNmMWPGDAoKCqrsInrKKafQp08fbDYbuq5DNV2gJcko/D37p+//kQqfX3v27GHChAmUlpYaq0hHSQYH0gnjp59+on///ixcuNBYVCW2b9/OwIED+fDDD41FlTKbzSQnJ8dsq6oLavR6DDIokI4n0S1zKSkpmM1mYxXpKMkBidIJY/bs2fzyyy9QDTfL6OPt2bOHoqIimjdvXu7GHyaE4KeffuLDDz9k9erV+P1+Y5WjVlJSQnZ2Nk2bNo0sECVJNUlRFDZt2sS7777Lb7/9Rm5urrHKUdN1nX379mGxWGjXrp2xWDpCckCidML4+OOPGTJkiHFzlYruSpg6dSoXXXSRsQqUXdCuvvrqmGClKk/F6ONNnDiRq6++2lhFkmrE+PHjueGGG6Cav+cDBgzghx9+MFaRjpDsVpCOa9EXori4uJiy6hD+eTabjcTExArLwqKnPBrLjlb4eIqiVLiMsyTVlOj1D6rre47hfJKOnrxqSMc1RVEoLS1l8uTJ/Pjjj8biavXLL78wadIkxo0bx/bt22O6HlRVxWazxdSvDhaLJSYoquqLsyRVxBiU18SYgJo4n04kMjiQjnv79u3joYceYuLEicaiauPxeHjllVe4+uqrGThwIJMmTYopF0JUWQKmfyIHJko1Lfp7Fv39q041dT6dKOSYA+m4V1hYyK+//kphYWG5pv4jIcoywSUkJGA2m9F1ncTERP7++2+ef/75CgddnXLKKZx++ukEAgFUVcXv9zNnzpzDnp99JH22LVu2ZODAgTz++OM10rUiSZQNiH3ttdcYN27cYX/Pox3qd75ly5b07NkTk8lUYaDg8/lQFIV77rmH8847z1hcIXECZ12UwYF0XKvOkzs/P5+SkhI0TSMlJYUFCxZw2223sW/fvkid8M+u7DQ71AtfNIfDQcuWLWPyF4QFg8GYnAa6rpOZmUmfPn34/PPPSUpKiqkvSdWloKCAQYMGMWfOHJo0aYKqquW+65qmVTgmRlVVdF1n586dh7T+yeGcR0OHDuWBBx6InCvG/YLBYGShshO5q0IGB5J0BDweDzfccAOzZs0iNTUVVVXxeDxkZ2dX+NRSlbp168bYsWNp27YtLpcrEgAJIfB4PHi93piAKBAIYLPZaNCgQYUXYkmqDrquk5WVhcfjiclKSlTQ7nA4MJvN5W7QcXFxuN1u7rnnHr755puYsqOVlJQUCZKNP5eyBdCaNWvGF198wamnnmosPmHI4ECSylTUyrB+/Xp+/fVXhBCRQVUOh4M9e/bw7rvvUlJSElO/qlX0RHTSSSdx//33k5GRgdfrhbLV8DRN4/LLL6d+/fox9aNV9DdKUlU71O/Z/PnzWbVqFTabLaa+1WrF5/PxySeflFtrpKJzojrcddddnHrqqZFzTNd1fD4fZ511Fr17946pe6h/b10igwNJMvD5fAghsFqtvPbaazz55JPGKgdlMpuxWiwQ1OFITi9FAQHegI9AMGgsPag33niDhx9+GL/fj8lkqpFR4pJ0JPLy8rjhhhuYMWOGsegfaaqK1WZDoBA8zHNMURSEruP3eo4oyLj55pv58MMPiYuLIxgMYrVaj7vAABkcSCe6iiL+Dz/8kHHjxpGYmMiWLVvYsmVLTPk/ufiqy3n0gX9j3rCPwN48hOnAPO9DYTNbCAqdl7//nBl/LzEWH1SbNm1o0aIFTqeT2267jXvuucdYRZJqVEXn2OzZsxk+fDgLFy6MPJkfjpNbt+LV114l25bMiv0FaIrCod6f7fEJ7N+2me9eegp36eG3/NWvX58uXbrgdDo5++yzef3112NyORwvZHAgnXAqulgtW7Ys0kUwfPhw5syZE1NejqrQrXt36sUlEMwrASEIBIJ4vV7uvvce7njwQdiQBXvywHyYFw6zBXSdTyb8j0+n/4zdYsVUdvExayayiwpYvm2Dca9yevbsybPPPstZZ50lZylINaqic2zz5s3s3LmThIQE/ve///HJJ5/ElFekY7u2ZDRrTpbLiy8oUIGi4iIuvvBCXn/9dbJtJpZnBdDKGtwOhT3exP5tmXzz4pPsXrcGe0JCTLlmMuFzu9m5ZhU+jzumzKhhw4a88cYbXHLJJQftzquLZHAgnXCMF67S0lKuuuoqZs6cSUJCAm63+x8HFSbXS2PCxB+4oGUXSv9ahRLQEZoKCCwWK1abFYICdB1Q4BAvXNG8Pi++gD+0f5mEhCSmL5/P1a89hvMfLlwAaWlpjB07lksvvdRYJEnVxniOATz88MO8++67OBwOgsFQIP1PPv7gPa698x5+3pZNrieARQ0d22w2Y7fb0Y+kWwEFXQ/i97jRg8FyUYUjIZHcPbsZOXQQu9b+HVNWEUVReOWVV3jiiSeMRXWaDA6kE0b0BSs/P5/333+f0tJSXC4XX3311UEHFw6863bOaNsJ74ZdeIpLSW/YkJsG3kxiakPYvh90AWpZEODxgtcDqhradphEOBywWMFsDm0Is1op3rOLr2b/Tl5JEQ6LFYfVxtz1qxg354+oigdceumldOrUCa/Xy7XXXkuvXr2MVSSpykSfZ6NGjWL9+vXYbDYmTpzI5s2bjdVp0iCde4cModiWxMb8ElQFAmVjZq7t359O3buyvsCPKxAs6z5Q8Pv9uFwuVCHQDvMcE0KgahoWmx1V08rOuAPMFhvO4kIW//w9+7ZtxmKzY7U7yM3cxYwvRxOsYJG0rl27ctFFF+F2uzn77LO56aabjFXqHBkcSCekCRMmcOONN5bLEwCQlJxEQkIiutApLSgiPSmFz78eS69e58GsDeDxh276LhdCD6Ic5piCoyGEQNE0sNpAKZuWGJfA7L9+Y9D7z1PkKsWimckpLkCv4NQeOnQoTz31FG63G4fDQcOGDY1VJKlKrFq1ihtuuIGNGzcai3A47KSkpLI/L5++fS9l7JdfkJMQz9xMN6qioIXG5OJxu0ODa1XlSBrfjogQAlVVMdvsaCYTQgjiEm3sXLuBUQ/cwa61f2NPSKC0IJ+Az2fcnZ49ezJ69GjatWtXp6cOy+BAOq5V1Lz5xBNP8Mknn5Cfnx+zPew/jw/jjsF3U+p2ITbvw749j5atWhKXlAIlrlArAUAgEHrqONTOzqqiKKBqB3obVA1ncSFbs/aQYHOwcscm/vX+CxS7nYYdIT09nYyMDIqKirjhhht4/fXXY8orer8k6WAq+s589dVXDB8+nO3bt8dsD7u636W88NLLLMz3ki1MtG/dioBmpsQXCH2tyw4XDATR9SDqMfhOqpoJRQ1FKapJw+dykbVzW6hx0FnK188OY+ealcbdUFWVdu3a8eabb9KvXz9jcZ2hPffcc88ZN0rS8UJRFILBIL/99hvLli1j+fLlfPzxx+zZs8dYlYS0FK686iruueZmTunSjcYJ9WhsS6GBJRGL248ocYauWUIPvZTDGAVV1YQeGs+g64hAAIvdQYNGzUhp0oIWcfEUu500Sk2nS4vW7M3Pxe0L9e+6XC6ysrIoKioiPz8fm83GunXryMzM5KSTTjouR11L1Sc6MJg/fz6zZs1iy5YtfPHFFyxdutRYHYumckGf3lw36A5Ouegigg2b4HOkUOj24PH5UYSO0A+8oHzgUVNE1O8S9PvRTCbSm7Ugo1ULkus3xuMsxWSxclKXbvg9HpyFBWX7CXJzc9F1nWAwyLJlyxBCkJGRYfwRtZpsOZCOe5s3b+ayyy77xymJ/a+9hi/HfEH8rmJYvQNM6rG7+VcFexze4kKuffMJfl0611gao0OHDvz444+0b9/eWCRJ/8jv93PDDTf84+Jm7dq25ddJP2Fu3YEpW3MQgFaHTzGTxYJmMjHhtWeZ/OFbxuKIIUOG8MEHH6CqKj6fr07kRpAtB9JxJ/pp5scff2T48OEsX77cWA2Ai6/ox4vPv8AVbU7jivan0yolA3JKoDQ8E0CpUwGCEAJFVUNjEkxmTJrGyY2aYbdYWbhpDZS1phgvTPn5+axdu5aEhAQ6dOgQUyZJRtHn2KpVq3j44YeZNm1ahTMQOrRtwztvvEGXvlfSuOeF1O/YlRzdRJ7THeohq0PnFwAi1JVotloxW22omkZKgwxSGzVl+6pl+Ct4D7Kzs1m2bBlffvklO3fuPOSFn44lGRxIxx2lbMGhDRs28PLLL0cysMXcEBWFFi1b8sA9Q7jlllvpmtaKpkocZOUj3F4UsxaabVDHLlyRvzEYQHg9KLpOw9YdaJucxqodm9lbkEtQL591UQjBjh07KC0tpVOnTqSmpsouBqlS4e/Z/v37GTlyJJ9++mm5NT0A0tPSuP7mm7nnsWHU794NvWEb9ru8FDhdmFW17gUGHOhK1INBAj4vfo+HBie1onHbDuTs2k72zu0E/AcGKipAUVERa9asYdOmTezatYv27dvTsGFDLBZL1IFrF9mtIB03op9m5s2bx6233hozIEqJysnetkN7vvr2G7rZG6BtzoJA8EC64zp4vTooTQMhKCop5j9fvM+n0ycZa8Ro06YNn3/+Oeecc46xSDrBRZ9jBQUFXHvttcycOTNSHi4TQmAymfj+67F0vfhyFhT6cOoKwchYguPrNFM1DaELggE/f30zhm9fPHjK9eTkZF577bVancFUthxIx4Xoi9Zvv/3GiBEjWLhwobEaAOdefAFD77ibyzudiVrog705RGYdHE9XrDJC11EsVmyp9UjSNOLtcZzTvgvnd+7Ome06sb8glwLngRwP+fn5FBQU4HA4aNeuXcyxpBNX9Dm2fPly3nvvPb7//vsKpwN37diB+4beT/fLB+BMTmNzXin+YFkmw+MsMKBsUSZFVUmuXx+LzY7JaqV1tx7Ub34Sezaui9QLL1vt8XjIysoCoF27drWyBUG2HEjHlR07dtC/f39WrjwwxUhRFOwOB26nk5TEZMZ+N47LLrgUfl8GLi9YYpeTPa5pplBLAoTGJfi8PPDhS4z4bYKxJt27d+fbb7+lVatWxiLpBObz+Rg8eDBffPFFzHa7zUZQCHxeH6++8jLDnnySyfucbC0sxaHV3fn+h0UIVM2EZjYTl5zA1uXL+ejeW8mMChCiJSUl8d1333HJJZcYi4452XIg1WnRTzO//PIL999/P6tWrYp0HwA44uJ4+6MPGHbb3Vzb6jR6NGiJrcgHxWV5AA4zw1qdpiqhsRRQNiVT0K15a06q34ipqxbFJE7Kzs5m3rx5NGzYULYgnMCiz7FNmzZxxx13MGXKFHyGBEBPP/Yow559gYw+l5F+6lkU25PIdnkJBnW0uji24EgooYcRVVPRgwKLzUbr087A53GTuWGtsTZer5eFCxfi8/k4++yzjcXHlAwOpDpNURRcLhcrVqzg/fff588//4wJDBo1acyAq67m4UF3067VKZxkSsLm8iMKi1G0I0tvXKcJAcEgBIMIvx9FDxLfqDkd0uqzryCX/YX5lHpcUNZUunfvXrxeL02aNCElJQWr1Wo8onScU8pyhWzZsoXPP/+czz//PCYwSE1J4bzevbn13vvpcs5ZBJp1wG2JI7u4FF3XMZ9Q51hoXJMeDOL3ejFbrTRt3w6ESsG+PdRvfhLxySkU5+UiRKg7Jj8/n/3799OoUSPS0tJqzSJpsltBqvOWLVvGtddey44dO4xFvPneOzxy+z2oS7ZBQemJFwwcCkUJpWJWFF7//jOeGPuhsQatW7dm3LhxnH766cYi6QQQzqj5xx/l1++4/bZbeeu99/nbb2F9gSt0isnbSoSiKAT8foJ+H46kZP6e+Qcf//suPIblou12OyNHjmTQoEEx24+VE6QjSDreRMe0drs9MrhHUZSYfOa2+DjUBHso5bG3/IIpUmjAIpoGKWlYzQcGRqlR+RBycnKw2+1Re0nHM+MzY1JSEgUFoQyAlA2sC9MUSElOxmS14fQHy+17otN1HavdQVL9hqRmJGGLT4gEBkrUOeZ2uyP/XRvI4ECqk8InUTAYZPPmzTgcDii7qOl6KLVxg4YNiFfNUOINPcmY5bz9iiiKAnoQnCUk2uNIT0wBQBcicqG32Wxs2bIFt9stL/4nAEVR8Pl87N27l4KCAtauXRtz49J1HUVRiHM4SE5vQL7Li9vrxarV3AJJdUWo5cCHu6SY0gIfiqLSqE0oE6mIOseAyPsdDJbPRVLTZLeCVGfpus7jjz/OmDFjyM/Pj5lS1eu8c3nt1dfoYk0jPscNHl8oj0EtisxrFSWUCdLj9bBq+2Ye/vwdFmxcHSnWNI3U1FRuv/12nn/+eWw2W8zu0vFn7dq13H///ezatQubzcbOnTtxOg8s5tW4cWM+ePcdmvfoyZagldKgwK/rMjg4CFXT8Hu95O/bw+QP32LBxG9jyhMSErjooot46623aNGiRUxZTZMtB1KdE45nVVVl7dq1kUVOops645MSOfuss4hPrQ85xRCQgcFBCYEIBrGlZ3DGyV1xWA/c/FVVJRgMkpOTw4YNG2RgcByLflbUdZ2FCxeybds21q1bh9PpjF2CWNc554wetGyWwX5PAKe/bEVFqVLBQIC4pGTant6d5AYHlktXyt7XkpISlixZUiu6F2RwINU54RMnEAjE9INHtxxoikpRcTF4y/IYHPtzrdZTFAV8HpylJZijUidHv682my3m6VE6vkTflDweD0lJSTHlMd8Fu528wiJKgmDVFLTowEGqkKIoBP1+nIWlkUyRhMf9lElMTMTtDq/tcuzIqYxSnTR37lyGDRvGnDlzyt2sHnpyGPcPvJ2mBTpaTjH4A3KWwqHSBRqCk5u1wmE9sFhTWG5uLitWrCAjI4PmzZvHlEnHByEEH3/8MW+88Qbbt2+P9H9HBw43DriaJ58ZjjOjJTs84PIHjtcEo1WvbFxUWuOm1GvanG0rlhCImhrqdrtZtWoVmqbRuXPnY9aKIEM9qU5at24dEyZMIDs7O7LNERfH+X36cO9Nt3F617MwZxZAfokMDA6DCPjRNBPdepzLfX2v5byTT43pYsjKyuL7779n48aNMftJxw9FUfj111+ZP39+zGJKQgisFgsdO3bk2lv/xbl9+5JlimNHUSgvhjzLDo2u6+iBAK1OPZ0+A+/k1Esux5F4oIWmtLSUmTNnMnv27GMWGCCDA6kuie4PjY+PjykDuP2uO/l27Ne0cZph9krQVDlD4TApihKa2ZGfS5vGzfnpiTe59bxLjdVqTaIWqepEn1+JiYkVbu95ztn8+MP3ND3nAiZsK8Dp9Z04qZGrkqJQWpCPZjJx64tvcdVDT5YLBBISEmL+XdPkpyrVGYqiUFxczNdff824ceOMxSSmJpPeOAMFE5SEnmbkIMQjI4IBsNpJbnoSCfbQNNFo48aNY+zYsRQWFhqLpDpKURQ2bdrEq6++Wm5tkjCTptGufQfikuPJc/sI6ro8xY5QMBBAUTXqN88gqX6DclOEZ8+ezVtvvRWzsmxNksGBVKfk5uby9NNPM3ny5JjtqqpiU03g8UMwAOYTaDGlaqAoCgT8UFqC3VJ+dsKvv/7KSy+9RG5urrFIqsPmzp3Lf//7X9avXx/TnRCWmJxMXkEBLncAm6agysjgiCmKghA6rmIfCLAnHGitAVi6dCnDhg1j9eoDU4prkgwOpFrNGE0nJydjNptjtrVp15avvhnH3Rf3h4WbQ+MMTPKrfdQCAfD7uf+y6/jmkZdo2aBxTLHZbCY5OTlmm1T3RJ9jlTVlx8XF8X+vv8ZDw19kXpHOhrwSTKpMeHS0hK7jdTnpcPZ53DdyLO3P6hVTrmlaTBdPTZJXUKlWUxSF3Nxcpk2bxl9//cUvv/yCx+OJqRMXH0+/q64ko1Vb2JsfSngkn2iOmhA6QgSp36o9V57eC7sldtGl0tJSJk6cWOGaFlLdoZRlQ1y1ahVz586NbI/JeRAMctH5fTijcwf2+HTy3T4ZGFSRgN9PWpOmdLu4HykNGsWUaZrGjBkzWL16dblVMKubDA6kWm/58uXccMMN9O7dmyFDhpCZmRlTrgd1CgsKwOMJ5TSQ862rhAIoKOBxk19ajF62ilzYzp07GTx4MB999FG5Fh6pbsnKyuKuu+7i/fffNxaFKApFRUWUAhZFwSRnAFUZRVEI+Hw4CwsI+GMDAI/Hw0svvcTjjz9OUVFRTFl1k1dRqdbzer2RRV88Hk9MhsTrb76RZ//zOKm7S2DbvtC0RXndqlpeD6nxibwy8D6uO/sCYyklJbGry0l1TzgDZrQmTZrw7LPP8v477/DKa6/jTG/KomwXuhBosmWuSgV8XoQQ9B54BxcMuqfc+ANjeviaIIMDqdazWq0VrgioKAo333oLAwbeSHyWEzJzQ90J8sJVpYTPi8MRx9WX38BNPS82FuNwOMpNw5LqFrPZXG68QUZGBg8++CAPPPQQ/37wAdwpGazJKUYgU4dUtaA/tGJsj8sv54JBg7HFxU7Vjo+Px2Sq2UHWMjiQaqXoZuqDzan3erwQLLtayStWtQjlPgB8Pko8ZVNEo1gsB5Z5luoOEbUiYEJCAlpUymzKkvWE0/i6vD4UocsUydWlLLgO+MHrcuIuW9I5zGQylQveqpv8pKVaSVEU/H4/c+bMYdy4cQQCgZgyyppCPeE+OtliUL2EDh43HZuexO3nX07j1PRI0cKFC/nqq6/Yt29fzC5S7aYoCoqisGbNGj788MOYbKMALqcTPRB6olX0IKoQMv6uZl6XC0dSMr0H3kGjNu0i27dv386HH37Ihg0bYupXJxkcSLWWy+Xi6aef5qOPPsJf1uxGVKuCxWLBomrg1wk92krVRgjwuune6TQ+e/BZenc6LVI0a9YshgwZwooVK2J2keqGTz/9lP/+97/lgru4+HiCIhQN+HRBzfZ4n5i8LidpjZsy8Lk3OOfagZHtmzZt4pFHHuHHH3+MqV+dZHAg1Wperzfy39H92uf06sUXX3zBeQ3bwNLN4AuG0iVL1UYIAaoGZmu55mWPx1PjA6akqmGcIqcoCkOHDOG5195kg7AzfX8pC/K9FPl1zLJ1rnoJgaKomK0WNFNsPhfKVqKtKfJqKtVq0QMRo8chnNz5ZG688UYyEhvAjmwIBuWYg2qmKEoo+6TXTaBspb4wh8NRrs9aqhus1tj8FYqicPlll9Lvgt7sF2ZW5JWy1enHrctuhWqnKAhdx+f2lJvWSA2P75HBgVQneb0+An4/6IGyxZXkVUuSqkqpsxQ3YFIENk3FrCryZnGCkZ+3VGdEdys43S50rWyGgmzqrEGh99rpDY1ij2xVlApXypTqHl3X0X0+TGWfdvgl1RAl1IIQiOpSDatoSnd1kcGBVGsZ585Hdyukp6SCywf+subtunL1isyqqCu/sEHZZ9AgKTVms67r7Nu3D13XZbbEOsZ4nqWmpqLZ4yg98HHXLWWzMA72qtUPFEIgdB17YhJmQ5dPXl4eLperRs4x7bnnnnvOuFGSjiUhBIqiYLVaGTduHNu2bYuUNWjYkLfefYfb+15Nyo4ilPzS0DS72nyyh/8mTQNHPFisod+37CJgvDjXakIHITitVQfaNWrGgo2rcfu8BINBFi5cyL59+zjjjDOw2cqv5CjVHuFzDOCvv/6KrKlw8YUX8O5772PvcCprSwVOfzAUzxr2r40URUEzmbA64rDFxWG22jDbyr9MFguqpqIHg7Xz/BMCPRgkvVkLWnXrwf6tmyjKCU0zXbduHStXrqRLly7Uq1fPuGeVUkRNhCCSdJj279/PrFmzeOmll1i7dm1ke8tWrZj+15+clNoUfp4f2mip2cxhR8RqQ/e4mbtuJW6flyZp9Wma3oDEuASoQ6P8IzeV+hnsXLucnv8dTGbegfnxPXr04NdffyU9/UAeBKl2Ki4uZunSpbz99tuRJdCH3H0XI0d/wvxSmL9zP/EmrU4MQlQUBT0YxONykrVtM0U52aiVDJDVTGbiklPIaN0We3wCwRqcAXCohBAkpdfHVVzEO4OuYc3sGZGyuLg4pk6dytlnnx2zT1WT3QpSrfT1119z0003xQQGlDVfFxYWgssdGohYV6YvWm1kFeZx/ydvcut7z/LJ9EnszN4HZkutb/WIFnnKcrsocJaiG54tEhMTa9+TmFShJUuWcN1110UCA8qmpHq8XnSfD6um1pGvpoKiqvg8HvZt2cQvH7zJR/fdxqj7b+fjB++IvEbe/y9G3X87Xw//D7O/HYOzoACztXa2cCmKgt/jwVlYSLAsEVVYSkpKjaRSriNXVulEU1paGvnv2JuNqDMdoUKI0M3fEceiZfN4Yfz/WLN7G06vh1KPi4AerFOBQTkVfA4yMKg7vF4v+fn5xs11jqKAqplwFuazc80KMjeGHigCfh9+rzfyCvr9BPw+UjIa0/GcPtji48vdeGuf8udYTZHBgVQrRfdZ19WeL0XTIBigND+H8fOm8/HUiQghSE9Mxma2oCpqhTdYSaoJJpPpoOuW1BmKgslspmD/PjYvWUh8Shr1mjanfouW1G/ekvrNTyK9aQuSG2SQ0rARp116JV0vvBR7QiIBQwIo6QAZHEhSdVAUsDvYn5/DyN9/5K+1yyNBjny6rgZVGWQdybGOZB+pSiiKgtlqI3f3DtbN/ZNzrrmJ5ybPYdg3k3n0q594aMwPPPDpNzz02QT+/dl4elw+AM0cyj5YVx88aoIMDiSpqqkquh5k7+4dLN68ji37MykwrLImVTFFQd+1G9/vU/H9MQ3f5N/xfjsB77jv8H4zvvLXuO/wfjsB308/E1i+IpRps4LgTd+fRWDxUrwTfsQ79pvQvt9OILBwcaX7SNVPUVWCgQA5u3eQvWsH7tIS9mxcz+YlC9iydAH7t20m6PfTqHU72p15Dq1PO4OUho1kgH4IZHAgSVVN0wgEg8xdv5JFm9ZgNZuJs9Vc8pITVWDVatzvvI/n3Q9wv/EWzsf+i/PhYTgffaLy18PDcP7nSVzPv4xv0q+IqAW+ogU3b8E74Udc/32W0gcfwfmfJ3H+50m834xH1MLR7icKTdMI+HzsXr+awqy9AMz9/mveu/MGRj1wB18Pf4zZ345h/7YteF1OnIUF+Dxu2WJwCGRwIElVTdWwmMyoikogGMTj8xEIyhtIdRNeDyI/Hz0vHz2/AJFfgHA6ET4/wu9HOF3oeXno2Tno+7NCr8IihM+HCAbBpKGEx7qI2IGvitWGYjKFjuPxIrw+8PtBUVAMiWpkF0PNEVEDElWt/Ah+XQ+imcw4EhNxJMZhslhRDIuGSRWT75IkVSVFAa+H7KICCl0lmE0mWtTPICU+0VhTqmJqRkPMPc/B3OsczGefialHd9SmTVCsFhSzGbVxBuae52DpexGWK/phuepyTF06oZhMoOvo2bkEVq9BeL2hz1FRQttzcglu3kxwdyYgUOw2FJsVrFZEcQnBtevQd+0iuGNnJGCQaoaqqghd4CzIx1VcZCxG6DoF+/eyYeFcNi1eQnFuNkG/XwYIh0C+Q5JUVRQFNI3MvGzmbVjFml3bsFusXN3jPDo2OclYW6pi5tO743juaRwvPovjqcexP3AvplO6hFoGnE60Du1xPP0E8aM+IOHrz0n4dizWG69DeDzo+7Lxz5qN+6XXCMwtS64F6Hv34/99Kt6x4/BNnoIoLgFNCyWu8vsJrFyF67X/wznsv3hGjETPq/tTA+sS1WTC7/OydcUSMjfE5kQBKNi/lxVTf+Wzx+5j7NOPsHHRPJxFhWgmkwwQ/oF8dySpqpQ9bS7YuJqv/vqdFvUzuKzb2dRLTMZUSbY2qYoIARYLSlISisOB2igDtX59FIcDdAFBHcVuD21v0hglPg7FasHUuROmbqeiJMSHBh0uW0FgzVpEqROA4LZt+H6ejNqmNY6nHsfx7FNYr+2P2qQRWC3oubkElq3Av2AxgeUrCW7dFhqgKNUAhaDPR1FOFpsXz2f/ts3GCujBID6Ph4DPx5ZlC5nz3RdsXDQXZ2EBejCIoshbYGXkOyNJVUHT8Pt8bNm1jSVb1rEzZz+9OnTl1K5noAsdj3Ft9rqwAExdYngfhdOJcLsQAX9klTsCgdB214EVJZW0NMynd0etVw98PvTCYvTsXERZciBRWEhwz14sV1yG/T8PYf/3UGy3DcTU9RSUhITQ+IOiYkRBEaKwCJGTiyiRM1Oqm6IooR48lwtXYSGBQKg7x5GUTFxSCo7EJKyOOLSoTILBQIC1c/5k3Zw/yd65jYDPV2mKZUkGB5JUNRzx7MrN4u6Rr+Dx+Zj05Juc1qU7qBpJjnisptC8agBNVbGZLcTb7GC1gaLI0dPHiqaC2QyqCoEgeNyoqSmozZqGijt0wD70HrR2bSO7qK1bYb7korKAwg/BYGiWg6qhNm+Gkpwc9QOk6uRxluJISubGp1/hP1/9xP2jvuLB/33L3e9+Qr+hj9Kk/cnGXcjeuY1tK5fhc7vQTDI4qIwMDqRayReVuaxWz0kO/24lxazL3M6sNcv5e+cWMnOz+HPRX/z0x498N28aW/ZnRnYpdrtYn7mDmauXsmXDagJ+P0oFI62lqiRCAYDVimKPyr5ZUEhgzVr0rCyw29A6dEA7qUWkXG3cCPOF56PWrx/ZpiQmoLVoDjYbqApKYiJqUiJKciJqSt0JDILBIC6Xy7i5ThBlL1XTSEhLo/3Z59Htkivocv4ldOlzMadc0JduF1/OmVddT8eefajfoiVWRygbZFFOFtk7tuL3eVFUGRxURgYHUq2kRTX31eqn6rJBTWt3b2P1zi2kxCfy19rlnPv0EPq+8G9ueOspBo98lT/XLIvsklNUwB8rFvDGxLF8PHUiJR4XWCxRB5WqXmiJbIJBiMpLENy2Df+cuejZOWgntcB6zVUxrQSKw45aPz0moMAfQLjd4PejxDnQWrZAa98WrVmT0GDFOkJVVcxlmQLrnLKppvaEROKTU/G5XZTk5eIsLKA4Nwe/x0O9ps256I77uOe9T+kz8E6atOuIoih4Sktwl5QggsHa/eBxjMngQKqVBgwYwBtvvEGrVq1itquqRnJyMjjs4A9CsHYsd+zxeyl2OSl0hvqbfQF/5OUPBNB1HTU8zgAI6jr7CnLJLspH13WoIwOjIoGazUFyXAKq4eJaXFxc+4I5RQG7jeD6jbhffZPS/zyJ86lncT71LMFVq7Fedw1xr72I48VnsVx9BWrTJuX3jyKKi9Ez9yDy8lHr1cN8xWVYb74B80UXoiTEx9Stzbp27cro0aPp1atXZJvNasVmtaKaLfiCeq1P2aAoCprFgj0hkbjkFOwJiWhlXXiayYTZaiUxvQHdL7uaLn0uLhuAqGB1OFBUFXEMFzY6GCEEZpuNuKTkyN8TVlhYSKAGEm/VjSuSdEIRQtC+fXsee+wxTjopdgqg1+th1cpVlO7ahUh2gM1yLBcui/zsBJuDZvUa0K1lOxqlptM6owmtM5rSumETWtTPINEehy4EQghURSE5Lp4uzdvQvnELzJoJ9Loxwj08/cu7dycrd2zCV7aqnaIoOBwOOnToUCPLyR4eBUXT0EtKCPy9Bt/3E/G8+yHut94j8PcaTJ06Yh14I5a+F6G1b4eSmGA8QAx9336Cq1ZDMIjWpg2WC/pg6XcZ5nPORqkjCxkJIWjQoAGDBg3inHPOiWzPys5m7bp1+IryqWe3oCnH9vT6J0IIPKWl7Nm4jm0rl7Jn4zo8zlI0sxmh63icJfg9bpqd3JEWp3TDZLWQkFaPek2aY7JYELXk4SKGoqBqGoVZ+9mxemVM/gaz2cypp55KfHz1B6EyOJBqnfDTtdPpJGiYFrZv7z7uGPQvXv78IwKnt4RGacd26ljZTb15/Qxu7HkR3z36MjOe/5DJT73DlGfe5Zen3mbsv5/nwlNOj+ySkVKPfqf15Onr7uCBftcRb3eAzxt10FrMEsoG+Mw3H3P7By+SW1wIgMPh4O233+att94iMbGWJXwSOsLlxnxaN+JefQHzheejJMSjJicT3LgJz1ffEJi3AOH2GPc8IOoROrhlK75Zs1GbNcV8bk/UZk1RG2egZjSEWhcYVSy6OT16fM8vv01hwIABFCyby8XNUrGZNAJ67QsPQrMVFISus3/rJsY+8whv39afsc88wt7N60lITUY1mULdSWWnqaKoxCWl0LRDJ1qc0g2L3UGwFmYu1TQNi83Oop+/58Mht7Bj9YpI2dChQ/nqq6/o0KFDzD7VQQYHUq0VCARimqgVRUHXdQry89m0czsiOe5Ay8Exvn5ZLVZS0+rTqlUH2rfvQtu2nWjdthPt23aiW6t2pCemRNW10CA5lXaNmxHfoDGqpiH0WvgEU5Gy7o8NmTspdJagl30+mqbRqVMnUlNTY8aL1BrBIEpCPFqH9lguvRjz+b3BZkMvKETfsRPfjD8JLF5i3OuAsqmQgZV/E1i2AkVVMV/QB/MFfUK5FADMpnJdEHWBHvXdCwQCbNq4EV9hHukmUGt1y4GCz+OmYP9etq9cRmHWfjYumsefX/2PueO/xVVUiD0+AYvdQW7mbpyFBTRu15GTunYno1VbzBYr+rF8sKhMWctBwf695O/bE/M7nnTSSTRr1qxGxorI4ECqM6IDhXhHXGjMQW25qep66OnfWQIlRVBaDKXF6KVFFDpL8JY1v4eq6nj9PkrcLvC4QYg6NDAq9Bkk2MtuiOGtQlBcXByzrVZRFITbjSgpwXxeL6w3XY9aLy2UBtlsIjBnLv4ZMxHOykfvBzP34P3ya/St2zCd2QPLlZehdTgweBHKvge15Tt5hFRVRTVb8B77mLtyigIK+H1eAn4/CfXSAQj6/SyY+B3fvfRfdq5ZhbOokNKCPLatWEJRThbtzjiHll1PI6lefVSTqXYG5SLUUmUOr/MRpSZnl8jgQKqTbDYbFqsFVBP4ArX5MoauC5yeA4l3CpwlOL0egrpeJ58066yy4FKpl4bplM5YLrsErWMHhMtDcO8+AkuW45v4M/re/cY90bftILBgEcLpxHxhH+yPP4rWqqWxGr6fJ+OfPc+4uc5JTEwkDggIBXdQx6cLdBFupD/2RNn4nfikFJp0OJluF19O/RYHPo/sXdv5+tnHePPmK3j/rhuZ9/3X6MEgp1zQl0Zt2hPUgzFdRVJ5MjiQarXo/tBoO3bsYM6cORQ7C6BhcmhKYW072QUoKNjMFk5p0YYuzVvT9aS2XNC5O52atSTRHldnBiJGqKGkQZohL73P54tpnj7mTOZQ/39kFogIBWJmc2gRpmZNsVzWF/OZZ6AmJUBAJ7gllCo5sHR5zDgW4fXhn7cA/9QZ6Nk5oZUZS0oIrllHYNnyUMrl1Wvx/zWHwLIV6Hv3RfatC4wj34UQLFy8mMVr1pOqBGidaCfDZsKqKdSab2vZVEazzUa9xs3ocv4lnN6vPy27dqdF56606HIqqqpSnJtNaUEeFruD9KbNyWjVDkdiMrqhy7I2Cc/A0CrIfWL8rKqTImrrOySd8IqKirj44otZvHgxlJ000V/X+vXrM3LUKAZceDnMWQNOD9TCjGe60HF5PXjKAh1N1bCYTFgtFkyaqfYFNZUQQqDEJ0IwwKA3nuDLWb9FylRVZdKkSVx++eUx+xwzXi/+hUvwjvkS78+/gc+L5crLcTz1OFqHdpEWG9+vv+H57AuCa9ej5xWgOOxYr7sG6y03YDq1KwDBTZtxvfYW/t9+B7sNxWoDm7XsBlX283xelNRULL3PxXzpxZh7HZgBUNvdd999jBw50riZPuefz+j/fU7rFs3IKXEyN8/LHk8Ai1pb2g/KuheEIOD3E/B5CUQ/TAiBINRlp5nMmKxWzBZruetIbSKEwGy1EZeUyKR3X+ebF56IKX/++ecZPnx4zLbqoj333HPPGTdKUm2gKAqpqanous7mzZsjT6bRsxkuHXAVXbueAluzwBsIpcOtZRRVxRKXgCMpBUdCEnZHHBaLBRUQQkepNY21B6EoKBYrG7auZ8Qv4/hj5ULySkJTrE499VQeeOAB+vTpQ0rKgYGXNS24bj2+HycRWPU3/tnz8P0+jcCylejZOaHERz5faBrilq3g9aK1aI7asCFqfDzBzVsIbt2KKHUiCgvRd+5C37AR/9z5+H+dQmD2XPTMTITXi8jLR+zdi8jKRmTnILKz0fP2oHh1zH0vwnRaN9TUY/c+HK74+Hjsdjs7duyI6dO2mEzcedstJCYno+pBtrsCFAZ0TLWtK0xRMFutOOITSUhNIy45JfKKT07FkZQcWmdBM6HX8pY6q91Owf59zPrqM5ZOmUT+3lBm1aZNm3LnnXdy5ZVX0qSJIQ9HNZEtB1KtJKIG6c2aNYvLLrsMt/tAvz1lI+S/Gv8tN15+LUxfAaUeMNe+loPjgqpCXAJf/vINg95/PqZo2LBhvP766zHbjgXflD/wjPok9DTp8RLctTu0IqO1LPuk1we6jtqiGZYL+mAbfCdKSjLoOq5nnsf32x+hAWpeXyQtMoFAaJlmsynUTVHJ1VI4nWgtmmN/7GHMZ58R2rcOycvL4/zzz+fvv/+ObOvWrRsTJ06kWbNmlLg9zMh2sdsdwFqbWg6OM/EpaWxcOIe3buuPs7Agsv2iiy5i4sSJxNVgHg0ZHEi13owZM7jiiisqDA5++u1XLr+4L/yyHEpcYJdpiKuaEALFZIZ6Dfjp53H0f31YTPmjjz7K//3f/8VsOxZEXj7BvXtD/9AFeL2hQEELZcUjWDa7xWpFTUlGbdwokpdA37kLPS8/NDYhqIe6DDQNhB76t6YdfFyLHgSbDa1Jk1ASpdo4nfMg9u/fz8UXX8zq1asj23r06MHUqVNJSkoCYGJmEduK3CTIALzqidCYmLTG6WxeupLXrutLUU5WpPjCCy/k+++/j3wWNUEGB1Kt9+uvv3LFFVcYN6OqKvc+cD8DL7+aro4G2F06FDtDNwL5cFN1TCa8bjerdmziiz9/46Pfv48pvu+++xgxYsSxnY5ZdnE9bLoeWR/jRLZz504uuOACtm7dGtnWsmVLHn/8cTLq18cdDBLf4VR8SenkOD0E5Wj2KqVqGnowSNb2Laya+Qe/j/4AZ2Fo2XCAs88+m4kTJ1I/agGw6iY/X6nWq2yBGF3X+fC993lk+FPkNk+Etk1CT4wy3q1aVju5JYXcN/qNcoEBUDvSJR9JYEBZd4kEZal5o23fvp2hQ4dyZf/+DB1yD/H7t9OzcWg9jWAtzJpYl4UHSv4++n1+eOP5mMCACj6bmiDPDKnW69y5MyNHjuSzzz7j5ZdfJiMjI6bc6XaRWC8N4uJCOQ9q05S6OkyUvbA7SHLEUxqVqwEgIyOD4cOHc9tttx3bVgPpqKWnp/PWW29x0003RbYJISJT54qKikiOjyMV8AlRK1Mq11VCCExWK46kFIKGqYoWi4W77rqLp556ioSEg6/5UdVkcCDVakKIyEjd22+/ncGDB5frd9ODQZYvWoxzXyakxoOl8oFj0qEL56/37c9k2db1xmLS09MZOnQop512mrFIqkOEEDgcDi677DL69+9vLAbAZrOzau06NuzNJs2kkGAxyVOsimiaRkleLttXLcVdGlrVNUxVVQYOHMhFF12E3W6PKatuMjiQajXjE2lpaSklJbEn0Pq167jh2usY9fuPcFY7SE2EQO2eslQnmExgMvPer99yzRtPsHnvrpjikpKScp+FVPdEn2PRKbCjt5eWlnLv/Q/w1jNP0jNJo329RAJ6bV3wuO5QVBVrXDxr5/7JB3ffxOpZ00Lby957j8dzzNKSy+BAqlMSExN54IEH6NGjR2Sbruvk5OSQXVIASXYwm0PrLkhHTAgRyjLoiGdvQR55JUWRRZYAzjjjDO65555yrThS3da1a1fuuecemjZtGkkUFE4a5HS52L19G41SEklymMtSKsvw4EiFp2vbE6z43C6yd26PrPUghKBNmzb8+9//pnXr1sZda4QMDqQ6JTU1lccff5yhQ4caixCBIAGXB/QAWGvBILk6TFEU8PuhuLDCiR9Dhw7l8ccfp169esYiqQ477bTTGDVqFOeccyDDY/SENpPFQk5uLh63D5umosqxJkdMKVty2lnowu/1lmsl7devH++++y4dO3aM2V5TZHAg1RnRF6mKlgX++ouxDLrzDlbrBXBqq9AI9qAcnHhE7A7WbtvITW89xbdzpxpLK3z/pbot+vwy3qjCFixaxM0Db2HTzClc2DSVBIsJv2w9OCJWRxzOogLGPTeMyR+9VS6ls3qMZ9Ic258uSYch+oIVneY1PHBu7549fDP+O3LMQWiRHprSKEdVHz5FAbuD7KICvp07lX0FeZH3OKwml46Vakb489V1HY/HYyxGURQKC4uYPn06hTu20MahYdE0OXPhCFnsdvRgkBXTJpO9YxsYrnFut/uYLmYmgwOpTjKeNOGoOzk5GZtmgmB4Lp68cB2OyLulqNgsFuJtoRHSxqca4/svHV+CUatShm9Y0d8Bi90BgC5PsSOmlC0I5UioeNzOsT7H5MJLUp0UFxdHvXr12LRpU+yIeSHIzc3FEhR0OKsHqCbILQql0K2kqVQ6QDFb8Hu9/Pjnr3wy/SfWZ+4gGHWRatKkCf/+97+59NJLazRbm1SzUlJSUBQlZq2FaEXFReSXODn9lM7Uq1+PzCJnKOO0PMf+kaqZUDWN1bOmMePL0WxbuRSfO2rBK4uFO++8kxtvvJGTTjqp0i6e6ibTJ0t1TniUL8CQIUP4+OOPjVU4p/e5jBkzhtZOM2zeLxMjHaq4eFz5uVz64kPMXrcipkhRlEiqZOn4FH1ubd68mQEDBrB582YSEhIoKirC7/dH6qanpfHT9+Np0O0s5mY78eqElkiOOp5UntlqQ9U0vnrmUaaPGWUspnfv3nzzzTc0bNjQWFSjZLeCVOdER9Ivv/wyn3zyCcnJyTF1Fs1bwLX9B/D9qnlwdnuIs0FABggHI4QAsxVHfAJ2qzWmrF69eowaNYqnn346Zrt0fIk+t1q0aMHYsWNZvHgx3333HZ06dYqpm5OXx62338G4D97hwgZxNEtyyPEH/0AIgWYy4Uh0YHWUX2Fx2LBhjB49mgYNGhiLapwMDqQ6KdzglZaWRs+ePSN9pIqioKoqAb+fVStWsqe0ANLjQ6vkycRIFRJCgKqhxCWQu2srY6f/zN68nHJ1evbsecyfZqSaIYTAbDbTtWtXunTpwvnnnx+ToS88kn7bjp3s2LCOxgl2EmxWfDIxUnllAYHV7iA+OYXSgjzmfj+eXevKd9l07tyZNm3aHLOuhGgyOJDqpOiTp7i4OLIwiRAiZiCPCeXAwES5Dn2FFEUJvTeqyrdzp3Hbe8+xeteB1fkoW1zpWGVqk2qe8eZUWFgYsy36HLPYbASCQQLBoBxzUBFFQQ8G8fu8qCYTO9as4n+PDolkQ4xmXJb+WJIDEqU6z+Fw0LlzZ7Kysti5c2dM2e5du8jas5ce55+LuWFDyMwuCxRkXBzpX05Ow1NUwItfj+R/0yeRXxobBPTp04dnnnmG7t2743CERqlLJxZN02jXrh2KorBy5cqYspzcPNavX8+pHdpxaqcW7Cjw4AkEMZ3gwbgQArPFQmK9NNYvmMNPb7/M8t9/4e8//2DPpti1Slq2bMmLL77IxRdfTEpKSkzZsSKDA6lOE0Jgt9vp0KEDmqaxZMmSmCfc7KwsVqz+m47nnkGzevWwBELT9EJLO5c9/ZxITzuqCqoGqoKimUBR8RYXMHnpPP7zxXtkFcUuFdu0aVMee+wxbrrpJhkYnKCEEGiaRvPmzWnevDmLFy8mOzs70rVXVFTE8uXL6dy8Me1PaoNbs6CYLehCCaVXFifWKRaaomjCZLEQ9PvJ2b2T2d98wexvv2DX2r/J2bUjpn5SUhL/+te/ePLJJ2tNYICcrSAdb5YuXcrNN9/M5s2bY7bHJybyn0ce4dnhz8KGXNiUCT4PQgFFOzFaEUTZVEUs1tC/LDbw+xj+yf/x9i/jcBqWZO7QoQOff/453bp1OybryUu10969e7n//vuZOHFizHaLycTVA/rz0SefUZgYz1973LhdLggGMJ8gLXVCCExmCxa7nbgkK9tXrefTR+5h46K5MXkiwqxWK5999hlXX311rQu+ZcuBdFwIN5E3atQIu91OXl4eu3fvjpT7vF7yS4rwBf0smDaNrLxs2vc5C8XugLyi0KPNcfp4I4RAsVhQHPGsWL+Sb2b8wuJ1K1i98W8WrlnG2Fm/sSc/dgDiOeecw5AhQ7jyyitlqmQJos6xhIQE0tLScDqdbNiwIVIe1HWy9u3DoSnMX7iUNSuW0+vktjRv3Ih9xS6CQhy3YxKEEKiaRnxKKtk7tzFn/Fg2LlzEmtkzWPzLD5HAQFHVULcm0KZNG4YMGcKtt95KYmKi4YjHnmw5kI5Lf/zxB9dff32lg+i69ejOhO+/p2UwHpZvDT1JH6cXLhQFNBPoQf7z2bu89fPXxhoxUlNTGTduHJdccomxSJIi9uzZQ79+/Vi1apWxCICkhAQm/fA97ftczG87cvEEBdpxeoqhKChlmSPnfPcl//vPvcYa5bz++usMGzbMuLnWkC0H0nEjMsCuLJPfWWedxebNm8nMzDRWJScvl0ULF5HepCHtLrsIcoqhsBTMx89TshAi9KSSms6+zO0MGfUq3y+YidvnNVaN6NmzJ++++y69evXCYrEYiyUpIjExkTPPPBOPx1NhgOD1+Vi2dCm6x8NN/S4kaHGwq6gEk2GdjjpPCBLS6uH3evnhjeeY8cXHuEsqfigBaNSoEe+//z7XXnst8fHxxuJaQwYH0nEjfMERZXO0W7Zsia7rbNq0iby8vJi6eiBI5q5deDVByzYtSLfHo9njQomSdD12Ncc6dCET4ffBZEYpS2S0L3M7Y/+awjs/f4PbF1oatqKLc7t27bjvvvu4/vrrZWAgHVQ4EG/YsCFpaWls2LCB7OzsmDUZALJzc8ndt49TWrfEkZCILTGZoKIREBDUgygoden0iqGZzJgtVjSLhfy9mfw98w9+G/kOhVn7jFVJT0+nW7duJCcnc9lll/HEE0/U6sAA2a0gnQiWLFnCVVddxb595U9agNatW/PdhPF0a3cqzFoNTndoJoNSFhjUoSlZAoGiqGC2gCMeigu55e2n+Xr27zH1FEWJGSDVrFkzxo8fzxlnnBFTT5IORU5ODjfffDPTp083FkHZWigfjxzJDbfeyq/ZPvYUO1GCfrSooL6uMVksWO0OVE3jx/97kR/efAFRSZr2W265hXfffTfy79TU1Fr/d8vgQDouRXcxBAIBPvvsM3JyctB1ndGjR5frarhx0K20TG2AvjObgTfeTKcLzwefD7KLYW8BlJYigkGUWtjtIIRAMZvBagebHV/WHj6c8j37C/NAwJd//cb+gtiWE8rS4w4aNAhVVWncuDG33XabnJUgHZbo8+yXX35h+fLlxMfH8+OPPzJ//vyYupec34fTzjqbFfvy6dnnAq6/8Rq2e2BngQuvy4kiRK3NjRAecGh1xGF12PA63cyd8BU7/l6BNS6O1X9OY+fa2K6VSy65hD59+uB2uznvvPPo06dPTHltJ4MD6bgWffEKu/vuu/n0009jtkV76fVXuW/oUEpcTti0D9vG/SSnpGCx2cHnj4w2pmwO9zFZaUZRDvxgVcHn9VBQWkJyXDyLt6zjmtcfJ6e40LgXcXFxxMXFUVhYyKBBgxg9enRMeUXvlyQdTEXfmREjRvD444/jch1YbTDav266gVffept5+T62O/00SEtBVzV80d15gNDFMVvMSVEOzGBSFIVgIICzsACzxYqruJDPHhvKpiWxAVBYWloaI0aM4MYbbzQW1RkyOJBOOPn5+XzzzTfcf//9xiIAmjRrRkajDILBIM7cAurZE3h/5Id0O+NsmL8ZfIFQ7/4xaE0QQqCYTGBzHMjy6Ihn2fwZ3P/Jmzg9bnQhWJ+5Az2c5CnKLbfcwsMPP4zL5SI9PZ127doZq0jSUXO73cyePZvBgweza9cuYzHpaam0aHESu/MK6dm7Nx+NGEFenI1F+/2hTN5KKO15qdOJz+vBoqk1FiAIIVBVFWtcPCaTGSF07AlmMjdu54sn/83eTeuxOBxkbd+K1+U07k7Xrl15++236dGjB3Fx5RdXqitkcCCdMKKfcLKysnjqqafIz88nGAwybdq0g+Y1//d/h3F+l9PxrNiKr8RJcloqfS68gLiEVNifH8q4GG4S9ftDXRLqUeZOMJnBZAr9d/gsNZtx5WUz/e/FFLtcWM1mEuwOpixfwPuTv4veO4bFYuG8887jkUceoW/fvsZiSaoy0efZ888/z9KlS4mLi2Pu3Lns2bPHWJ1WTRsz/JnhFMalsCq7CBUIBgOYNBPn9jyHFu3as6vEgyeooxFqNQsGAni8XlREKJA4HGWzeExWK6qqHWgJLKOZzXhdTtbPn03+vj2YLBZscfFkbdvCxLdfxu/1xNSPduqpp3LXXXdx3333GYvqHBkcSCcsXddRVZWsrCwuv/xyli5daqwSERnhL0AXOo0bN+aHnydxRqsuMGtVaJZDONOiEKHXYV6zyonuOghLSGTxsvlc8cqjZBfloyqhnykQMQMMjc4880wmTJhAkyZNjEWSVG3C5xjAXXfdxf/+9z9jFYha5TH8DQ4P7Pvys/9x/e138NOuInI9fizhAFwIdHF03Q2KopY7vQAcCYnkZu7iw3tvZfOSBQfqCRAVtMaFpaam8v3339e5sQWVkcGBdMKpqI90zpw5fPLJJ4wdOzZme6U0hb79+tE0qR7+PbmgC4J6EJ/Px/U338SA2/4FW7MhuzAUNFRwEaqUyQK6zvdTJjB+/gxsFguaooECNrOFHdn7+H3FAuNe5XTv3p0hQ4ZAWd4HmdRIqikVnWPr16/nm2++4dVXXyUQCMSUVabXmWfQ+uRObCty4wnqqEBpaQnnnH02w4YNI89qYm2uH+0wpkRaHSZyd+/j1xFvsW/rRmxxsVMKTWYL7tISVs+ahsdZGlNmVK9ePR5//HHS09Ox2WxceumltTLb4ZGQwYF0Qou+iC1YsIAhQ4ZQXFxMfHw8qqqyf/9+srOzjbsd1IBbbuKF/z6NeXUmgd05iMMck2A3WwnoQYZ9OYJJi/8yFh9UgwYNSE1Nxel0MmTIEJ588smY8oou2pJUnaK/cwUFBdxyyy2sXr2a+Ph4duzYcdDuvMp063QyH48axT57Cov25qMphz4l0pGQyJ5N6/ls2FBK88vP4vkniYmJNGnShOLiYvr06cPo0aOx2WyR8uPlHJPBgSSV8Xg8ZGVloes6FosFh8PBm2++yauvvmqselDxCQmkpaai+AKIQLB818A/CF1YBDnFheUWQ/onTz31FEOHDsXn85GYmFirVnmTJF3X2bdvHxaLhYKCAgYNGsTChQuN1f6R1WKhQYMGBBQVT9k5dqhnmaKqBPw+inNC5/rhuuKKK3j77bex2WyYzWbq169/XAQDRjI4kKSDRPtLly5lzJgxiLKsiwA2m42cnBy+/fbbSqdqVaf4+Hiuu+466tWrh8/nA8Dn82EymRg0aBCnnXaacRdJOuYqOsfGjBnD3Llzy2ULtFgs+P1+Jk2axPbt22PKasqVV15Ju3btIueYrut4PB769u3LgAEDYupW9LfVdTI4kKQjkJeXx5VXXsn8+fPLLbXq9/vx+/0x246E2Wwul5TI5XJx3nnnMX78eOrXrx9TJknHm3vvvZdRo0ZhtVojq4MqikIgEMDrrXyNkH+iKApWqxVVVcvd2F0uF40aNWL8+PGcc845MfudSGRwIEmVMF40jBYuXEh2dnZkHQKTyYTVamX06NF89dVXxurlKIYUxkaDBw/m+uuvJxgMIkRoNoLP56NBgwYyzbF0Qli3bh1bt27FZDKhlM0YSkxMZPr06QwfPhwOch5Vtp2ylok33niDLl26UFxcjNlsRtM0hBD4/X7i4uLo0aNHuRaNE4kMDiTpMP1T0PDrr79GxilYyxY/CjOZTGRmZrJ+/fqY7RUZPXo0d999t3FzxD/9HpJUV/3Td3vbtm089NBDzJ07l4KCAmNxRLNmzWjTpg2UdQsAFBcX065dO955551/bH37p9/jeCaDA0mqYj6fD4+nfKIUTdOIi4tj1KhR3HvvP6/3PmLECIYOHWrcLElSWffdo48+ygcffGAsinjooYd44403EEJEzkkhBJqm4XA4IvkVpPLkOyNJVUgIgcViITExsdwrnEo1OqXqwZ5KouvJGF6SQsItAGazmYYNGxqLY84pTdMwm80x52RSUlJkqrJUOfnuSFIVOtjNPsxut9OgQQP4h5t+ZmZm5GnnUI4rSSeC8E29sLCwwnUbwueUw+EgLS3NWCwdItmtIEk1zOPxsHbtWoYOHcqiRYugksFTCQkJXHTRRfzvf/8jOTk5sv1E7geVTkzG7/zGjRsZPHgwS5YsiSRRij6H6tevz2effUbv3r3r9OJHx5L23HPPPWfcKElS9RBl+RIaNWqE2Wxm//79ZGZmGqtB2diFLVu2kJycTHZ2Nn///TcNGzaMXOyMF0xJOt6Ev+OKorBjxw4mT57M9u3bmTRpEt98802FaZjbt2/PXXfdxV133YXFYokEDPJcOTyy5UCSjqGlS5dy+eWXk5WVZSyKCD8Rmc1mxo8fz9VXX22sIknHvffee4+HHnoIKmlpC/vqq68YOHCgcbN0mGRwIEk1LPqJ3+PxMHnyZAoKCrDZbMTHxzNjxgxGjBhh3A2ALl26cNttt/Hoo4+CbD2QjlPR32u3280LL7zAhAkT2Lp1q7EqlC0N3aFDBzweDxdddFFkoKI8P46cDA4k6Rip7MK1cuVKBg8ezIoVKypsNm3WrBljxozhnHPOiSRgkqTjkcvl4ueff+b222+vcHqw1WqlT58+fP755zEzFyo7t6RDJ2crSNIxUtnFq2vXrvzyyy/079/fWATArl27GDBgAJ999pmxqNKmVkmqzSr73r700kuVBgYAQ4cOZfz48eWmNFZ2bkmHTrYcSFItEv3EM2XKFH799VcSExNZsGABf/0Vu3xzr169uP7663E6nXTp0oVLL7203DEkqTaL/q4uXbqUadOmYTKZsNvt+P1+Ro8ezYYNG2L2ueqqq2jfvj0ul4tbbrmFHj16lDuWdPRkcCBJdcC4ceO48847K32Cuvjii/n222/lEs1SnSSE4OGHH+a9994zFsVo0KAB33//PT179jQWSVVMditIUh1w1VVX8eOPP9KxY0djEQCzZ89mwIABzJs3z1hUaZOtJB0r0d/JPXv2cMMNN/DFF1/E1DE6//zz+eGHHyItBVL1knkOJKmWE2Upmdu0aYPb7Wb79u3k5+fH1AkEAuzYsQOr1UpaWhrr1q1DCEFqampk2pdscpWOpejvYPj/d+3axRdffMGIESPweDwoZTkNoimKwimnnMIDDzxAv379IqsnGutJVUt2K0hSHTN9+nT69+9PaWmpsSiy7r3L5WLYsGG8/vrrIPtjpVqgou/gTTfdxLfffhuzLRzMhrVs2ZKff/6Zk08+OaaeVL1kcCBJdUD0hbWkpISvvvoKt9tNSUkJ7733XoXL1jZv3pyBAwfy4IMPxqzlYLxAS1J1iv7O+Xw+3nnnHfbt2wfAt99+W2ECsNatW3PPPfcghKBhw4bceuutxipSNZPBgSTVIcabeyAQ4KabbuKHH36IedqKfvoaNWoUd911F5qmRcol6ViYMWMG119/fbluMcrWEklKSqKwsJDbb7+d999/P6bc+N2XqpcMDiSpjsvLy+Pjjz/mqaeegqj+3PCpnZiYyM0338zIkSNj9guTF12pqlX0nXrrrbf4v//7P/bv3x+zPeyuu+7i8ccfx+12k5ycTNOmTY1VpBokByRKUh0VvgA7HA6aNGlCcXExmZmZuFyumHper5fdu3cTHx/P7t27Wbp0KUuXLsXr9dK0adNIK4PxYi5JRyL6uzRt2jQWLFjA2rVr+eSTT9i0aZOxOjabjcsuu4whQ4Zw6qmn0qBBA5KSkqCSIEOqGbLlQJKOI4MHD+aTTz4xbq7Q9ddfzzfffIOqyhnNUtXLy8vjiiuuYMGCBcaiGOeeey6TJk2KWZZcOvZkcCBJdVz009WKFStYs2YNCQkJfPfdd+VGgkdLSkri0ksv5amnnqJTp04gn9SkoxD93Zk5cyZvvfUW06dPx+fzGaty1lln8dBDD+H3+2nUqBF9+vQB+f2rVWRwIEnHgYouqlOmTOHRRx9l48aN6LoeUxY9YHHYsGE8/PDD5fLTS9LhEkKwfft2nnnmGcaNG2csBqBx48YMGzaMBx98MGZ7Rd9h6diRwYEkHce2bdvGLbfcEtO0Gx0YhF188cVMmDCBxMTEyDZ5sZb+ifE7snHjRm644QZWrVoVUy+sQYMGTJgwgV69ehmLpFpGBgeSdByKvmh/9dVXLF68mPj4eKZMmcLKlSuN1bHZbDz00EPUr18fVVUZOHAg9erVgwpuAJIU/Z3YsmULP/74IzabjfXr1zNq1KiYuo0aNeLGG29E13WaNGnCQw89FJlWK79btZcMDiTpBPLKK6/w1FNPYbPZACpcyElVVcaPH88111xjLJKkct555x0eeeQR4+aIW2+9lS+//DJmmwwKaj8ZHEjSCWTnzp1s2rSJpKQkfvjhB9544w1jFSjLrjho0CCef/75mO3yon7iMn72Ho+Hhx56iIkTJ5KdnR1TN+y1115j4MCBNGnSJGa78VhS7SODA0k6AYRP8+gL8qpVq3jiiSeYM2cOTqczqnZIixYteOedd0hJSUFVVc4880zMZrOxmnSci76RFxcXs2TJEqxWK5s3b+aBBx6o8LuTmprKJZdcwjvvvCNTd9dRMjiQpBOY2+3m9ttv57vvvjMWoaoqNpsNl8tF27Zt+eWXX2jbtq2xmnQCmTlzJtdffz15eXnY7XY8Hk+5wa2UzYAJL/ol1U0yOJCkE1D0U9ysWbNYvHgxCQkJTJ06lZ9++slYHYCrrrqKW2+9VY5FOAF5PB6+/vprvv76a/78809jMZqmMWjQILp3705paSkXXXQRXbt2BdliUGfJ4ECSTlAVXbQ/+ugjhg4dGrNNiZr6OGDAAH744YeYcun4V1xcTJ8+fVi+fDlUMB1WVVUmT55M3759I9sq+n5JdYfMmypJJ6iKLtylpaWR/w6XR98E4uPjI/8tnyuOX8bPNjExscLPPvwd0XU95rsTXSbVTXLhJUmSInw+Hy6Xi127dlWY9tZisWC1WmnatCkOh8NYLNVh0U/6iqLgdruZNGkSK1asYP78+cyYMYO8vLxIeVh6ejo33XQTl156qcyyeRyR3QqSJMVwu90MGDCA33//3VgU8dVXXzFw4ECQzcfHnfDnuWTJEi6//PJKpymGDR48mI8//ti4WarjZHAgSRIYbvJz585l9+7dWK1WRowYUW4Q2umnn07btm0pLS1l0KBB9O/fv9wxpLoh+jNbsWJFZJZBXl4e06dPN9Q+wGw28+yzz3LjjTfSqlUrkJ//cUUGB5IkRVR0cf/00095+eWX2bFjR8z2sAEDBvDKK6/Qtm3bcvtKdce+fft49913yyXGUqIGHzocDtq2bYvT6eTkk09mzJgxJCUlQSXfHanuksGBJEn/aMmSJVx77bXs2rXLWARAu3bt+PbbbyPT15A3izqluLiYa6+9lmnTphmLYoKDs846i6+//pq0tDQ8Hg/16tVDVeW49uORHJAoSVKFwjcERVFo3LgxSUlJ5OfnVxgg5OXl4fP52LZtGzNnziQtLY369euDDBJqlYo+i+XLl/POO+/www8/EAwGY8qiXX755dx///2cddZZWK1W4uLiIoGD8ZhS3SdbDiRJOqjoi/+kSZO47bbbcLlc2Gw2nE5nJIiI9sILL/DMM88YN0u1hMvliqyMeP/99/Ppp5/GlNvtdqxWK0IIioqKaNasGRMnTqRbt25QSZAhHV9kcCBJ0kFF3wgKCgpYtWoV8fHxLFu2jPvuuw9d1427kJqaSr9+/fjggw8ifdLIm8oxFf3eP/HEE0yfPp3ExETWrVtHVlZWTN0nnniC66+/npKSEnw+H3a7nW7dumG322PqSccvGRxIknRIjDf2goIC/vOf//DLL7+Qk5MDhsRJZrOZd999l06dOuFyuejRowepqamR/aWaV1BQwLRp0xg2bBg7d+40FhMXF0fv3r159dVX6dy5s7G43HdAOn7J4ECSpKPywgsv8Oyzz4Jh8JqiKFgsFrxeL/Hx8YwbN44rrrjCsLdUk0aMGMEDDzxg3Bxx/fXX8+WXX2K1Wo1F0glGBgeSJB226CfI7du3M27cON59911yc3ONVSMuuugiunTpQmlpKTfccAN9+vQB+TRaLaLf0wkTJjB9+nQSEhKYPXs2S5YsMVYH4IEHHuC2226je/fuID+XE54MDiRJOmLRN5DbbruNX375hZSUFHJyciK59qNbE8LuuOMOXn/9derVqxezXapaO3bsYPDgwRVOUbRYLGRkZFBSUkLHjh0ZP348GRkZIAMDSQYHkiRVlV27duH1elEUhccff5wff/wRKgkOTCYTZ555JmPGjJHZ9apQ9Hs4Z84chgwZwoYNGyocNNq5c2c+++wz6tWrRyAQ4KSTTorMYJAkmedAkqSjEr4hJSUlkZaWRmpqKgkJCRQUFLBt27ZygQFlq/jt2rULXddp0KABjRo1igkMqiNQqI5jHqqKfnZF245E9HHC/z9r1ixGjhzJrFmzKnz/zzjjDO655x6uuOIKkpOTSU1NRVXVKvudpLpPthxIklQtMjMzueyyy1i9enXkiVQIUe4p9rLLLmPChAk4HA6CwWCVPr3quo4QAlVVa8VNLxgMoihKlWcVDL+vmqaxe/du+vXrx+rVq2PqaJpGMBgkOTmZiRMn0rt375hySYomgwNJkqrNtGnTyMrKwmq1kpiYyJIlS8olR0pJSaFPnz74/X5atWrFq6++is1mgyp4uv7kk0+YPXs2w4cPp02bNsbiGlVSUsIzzzxDYmIiw4cPx2QyGascluj3JjMzk6effpqioiL8fj/Tpk2LWXI7KSmJV199lcaNG6PrOhdccAEJCQnljiNJYTI4kCSpylV2w9m7dy+DBw/mzz//xOVyGYuJj49n9OjR9OvXj8TERGPxYbv99tsZM2YMixYtokePHsbiGlVUVESHDh1o0KABK1asMBYfsdzcXMaOHcsjjzxiLIKywGDAgAF8/PHHmM3myPbKPiNJAqjati1JkqSovm+jRo0aMWHCBO6++25jEQClpaXcdttt5VYGpOxmdiii6yUkJOBwOGIy+x3qcapK+OdZrVaSkpJigp5D/V0OVu/RRx8tFxhEv//Dhw/n008/jQkMjHUkyUgOSJQkqUaEn1TNZjONGjVC0zQ2bNgQ0/xN2TiBvLw8SkpKmDFjBnv27KFLly4oh7jIj6Io7N27l88//5yffvqJrKwsSktLcTgctGrV6h/3r2qKorB06VJGjBjBnDlzKCkpoaSkhPT09MjiVAcT/TdPmzaNMWPGMH/+fJYuXcoff/zB+PHjI9NGozVq1CiSuyA5ORlka4F0OIQkSVIN0nVdCCGE1+sV/fr1E4BISUkRFotFAOVenTt3Flu2bDEe5qBmzpxZ7nj9+/c3VqsxTz/9dLm/a8SIEcZqB1VUVCSuueaacseJftlsNpGUlCQAce+990b2Db/nknSoZLeCJEk1KvzkarFYePXVV5k3bx6//fYb5557rrEqAGvXrmXAgAFMnDgxss3YzG78d2JiYrkBfzXdtRD9M+Lj42PKKOvyCKvo94netmrVKq666iomT54cU8fo+uuvZ+bMmcyePbtcV4MkHQ7ZrSBJUo0LN283aNCApk2b0qRJE1RVZdeuXezbt69c3XDXQLNmzSJdEtEURWHHjh3MmTOHvXv3Mnv2bObMmYPf74/USUhIoH79+qSlpREXFxezf3VQFIXS0lIWLVrEpEmTWLt2bUx5eno6DRo0IC0tLTIeILrZP/z/a9asYfTo0UyYMIFAIFCuHMBsNnPuuedy//33c84559C8efPIIleyK0E6IsamBEmSpGNl9erVokWLFuWay8OvJk2aiBUrVhh3E0II8dFHHwlVVQVQrksh/LJareKrr74y7lptFi9eLJo2bVru9wi/OnXqdNAuk4KCAtGrV69y+xlfZ599tsjKyjLuLklHTHYrSJJ0TEU3n3fo0IFXXnmFESNG8N5779GiRYuYupmZmbzwwgs8+OCD3HfffaxatSpSpihKJMFSeJCj8Snb6/XGdDdU1Jx/tKKP6XA4yMvLgwp+F8qWUI7uXqBsauITTzzBfffdx8MPP8yyZctiyo1uueUWXn755cjgxur4m6QTkDFakCRJOhYqGjT34IMPCrvdLhRFKfe0DIjnn39eFBYWiry8PPHss8+WK6/o9frrr4vi4mIRDAaNP65KeTweMWHCBJGamlrudwi/mjdvLqZPny4CgYAQQgifzyfGjh1b6d+bnp4uWrduLVq2bCnS09PFySefLJYtWxb5mRW9h5J0JGQSJEmSai2Xy8WPP/7I/fffT1FRkbGYBg0aRFZ2zM3NJSsry1ilHIfDwcUXX8zIkSNp2LChsbhKBINBHnvsMT7//HOKi4vLpYwO0zSN1NRUnnzySR566CGGDRvG6NGjKS4uNlYF4OWXX+Zf//oXTqcTv9+PyWSiWbNmkYySklRVZLeCJEm1TviZxeFw0KVLFzweD1TQNJ+VlcXatWtZu3ZtJDCobPBdeLvL5WLZsmV4vV5jlSojhGDNmjUUFhai63qFv5OiKASDQXJycti1axeKorBx48ZIYGD8WwGaN29Oo0aNaNOmDR07dqRt27bYbDbZlSBVORkcSJJU60TfEJ1OJ0lJSRAVNBzsZlhZWfT25OTkKl/8yOifMiFGbzOZTPh8vpgWAOPfqigKgUAgUh6touBDko5G9Z4dkiRJR6lTp06MGzeOSy65xFh0xDdFk8kUM9Wvopv3kQgfx2QyYbVajcWV+vnnn7nxxhtZsGCBsQjKBmp+9913XHrppcYiSaoWMs+BJEm1lhACq9VKy5YtAdiyZQstWrTAZrNRUFBgrH7IwqmUGzZsiN1uP+Igw0hRFJxOJ0uWLOGnn35i586dxirlKIpCXl4eGzZsiBlrkJGRQadOnUhISOD6669n6NChxMXFIWTeAqkGyAGJkiTVCS6XC6fTSUpKCp9//jmDBw+GspvrkVzGLBYL//3vf3n22WeNRUdl3LhxPPDAA+Tn5xuLDssjjzzCiy++iNfrRdO0KlmlUpIOlexWkCSp1hNC4HA4SE9Px2Qy0b9/f9577z26du162IFB+Knb5/NRWFgY2X64x4kWva/f748EBkfyhJ+RkcG///1vbrvtNhwOBykpKZHA4Gh+R0k6HDI4kCSp1jPeZOvVq8d9991H165dY7YfiugbrNfrxeVyQQU/43BE7xvd3XEkN/O2bdvy+uuvc8opp5Tb/2h+R0k6HDI4kCSpzpk/fz79+vXjp59+MhYdlnHjxtG/f/9/zEJ4KPbt28egQYN49dVXjUWHRQgRmZUggwHpWJHBgSRJdUL0U3RWVhZTp06lsLDwiG+giqJQVFQUOU6Y8Wm9MsZ6uq4zbdo0srOz4Shv7MaFpSSppsngQJKkOiH6ZqtpWmSNBONN+lCF94uPj4/JeXCoN3VjPV3XSUlJifz7aH6v6NUkJelYkFMZJUmqM5xOJyNHjuTTTz9l165dR3wDjqbrOjt27MDj8dC5c+eYhZn+yZo1a3jppZeYNGkSU6ZMYcWKFZFsjkfK5XKxYcMGkpKSIlM4JammyamMkiTVGfn5+fTq1Yt169bBUUxjDIve/8wzz2TmzJnY7XZjtUpNnjyZyy+/PGbb0fxO0fs+88wzvPDCC8YqklQjZLeCJEm1XviGmZCQELPE8ZHehMOi909ISIgEBgc7rnEfi8VSafnhit73n9IvS1J1kt0KkiTVeoqisHbtWsaMGcOff/5Z4QqNR0vTNPx+P40bNyY5OTmmTERlJVQUBb/fz6xZsxg3bhwrV66sdNXFo6FpGmazmUaNGuFwOIzFklStZLeCJEl1wtNPP83LL79s3FzlXn31VZ544gmEEASDwQrHIBQVFdGvXz/mzZtnLKpSqampTJkyhR49ehiLJKlayW4FSZJqrehnl+iFjIwzBY5W9PE+//xzrrnmGi666CI+/fTTmHph4VUiw6r69wkLBoMxP0s+y0k1RQYHkiTVWoqi4Ha7WbZsGWvWrIlsr+qbZPTxNm3axI8//siMGTP48ssvWbBgAaJs5cZly5axfPlypk2bhtPprHD/quT3+/njjz/YvXt3TNeGJFU32a0gSVKttmjRIq655hr27NljLKoR6enp/PLLL7Rq1YoLLriAdevWkZiYSElJSSQfwdHMUDgUAwcO5IsvvpDJkaQaI4MDSZJqte3bt/Ppp5/icrlikgwdrvClLi4uDqvVGnMzdzgcrFixgv/97394vV4w3PBvuOEG6tevzwcffBDZx1gnNTWVO++8k5YtW+Lz+crVCwaDuFwu/H7/IbUAKIpCIBAgNzeX7t27M2jQoJhkTZJUnWRwIElSrVUdTelCCNxud8zsA5vNxm+//cb1118f011QUYtARdsAmjdvzrfffsuZZ54ZOX64nhACTdNixk0ciep4PySpIjI4kCTphPLOO+/w5ZdfxqRNNpvN5OTksHbtWoLBoHGXQ2Kz2ejYsSNJSUnljlFSUkKTJk344IMPaN68eUyZJNVGMjiQJKnOMz5Rl5aW8tdff+F0OjGbzQDY7XY8Hg8vv/wyS5cujdq75jzzzDOcffbZkZYFXdcJBAJ06NCBzp07G6tL0jEjgwNJko478+bN4+qrryY3NzcSHIQFg8FqSVp0KEwmU0wQEwgEEEIwZMgQPvroI9llINUaMjiQJKnOMbYUUDar4eOPP8ZisbBr1y6mTJkSU/5PWp7ckkcfeZTCZYVsmr4Z1aSiqId+s1YVBYtqYXn2chbuW2gsPqgWLVpwwQUX4PV66dq1K48++qixiiTVKBkcSJJUZ2VnZ1NYWEh8fDzvvfceb7zxhrFKORmNM0iMS6Q0q5SgLwgqFDqLuOryKxk9ejQ503JZ9tUyNIuGoh1OcKBi02zM2DWdsevGEtADWLTQuguqohLQA+R58gjogZj9jAMcW7VqxejRoznrrLMOaxEoSapKMjiQJKlOqKi14Nlnn+Wjjz4iMTGRoqIi8vLyYsor8ubIN7n6nKuZ8cJMCnYUYIkzEwzqJCQm0Cgjg4AziKfIA4ceFwCgoKAoCk6/k0JvISBQyg5iNznIdefw0aqP2O/cb9y1nPT0dF566SUGDx4cs72i90CSqoMMDiRJqjM8Hg+TJ09m//79aJrGqFGjWLVqVUyd6CfxM885k64du7Jn8R7ydudjj7dz34P3cVbHM1n5zSqcWU40m4aqqPh8PkpLS1EsCiarCY7gyigQmFUzNs0W+TeAVbNS7Ctm8rbJ7Cjejk2zYdbMFHmLWJm9ElfABYbfvXfv3lx//fX4fD7atWvHBRdcUG78hCRVFxkcSJJUZ+Tk5NC3b1+WL19uLKrQG+++wWNDHmPmU3+SuSQTS4KFQCCALnRUreYTCmmKFnnyjzPHsaVwC68vfo0sV5axaozLL7+ccePGxSxXLUnVqebPDkmSpMMgytY1oCwLoTFLoKKEmvMrotgUsIZmCaioqIoKOoigOKKWgaOlKiqaEmqpMCkmFBRcAXdMnYr+FpPJJAMDqUbJ4ECSpFotfPMvLi5m8uTJlJaWxpSHg4f0+umc2/tcel/Ym1O7nEqLhBYou1T2Ld1PSWExfsWPL+gDE2gW7bDHFFQFv+7HG/TiC/pwBVyoisrJaR1pkdiCNiltsJlsFWZfzMnJYerUqRQXFxuLJKlayG4FSZJqnYoG3r399ts8/vjjBAIHRvtH99HfctstfPDhB9jibWyds5WF/7cIXJCQkoDf7UcExDEJCCqjoBAUQTxBDxbVgtNfyocrP2R9/npjVQASExMZNWoUN910k7FIkqqcDA4kSapVogODCRMmsHjxYhISEvjll18qzGwYlxrHHXfdwcWdLqZDXEfMVhP5OwvY+edOinOKCRDAZDOFpiXWoqudQESmP1o0C96Al7l757KzeCc2zcqSrCVsLdwas88FF1xAz5498Xg8eL1eUlJSuP3222natGlMPUk6WjI4kCSpVsrMzGTgwIHMnj3bWITFaiE5OZncrFy6de7GDz//gLbRxB8v/YGu65jtZjTzsek6OBoW1YLVZEVVVL7b+B3jN36HXw8tC12Z0aNHM2jQICyWUE4FSaoK2nPPPfeccaMkSVJNi24x+PPPP7n99ttZtmxZhamOTzvzNMZ89Tnn1etNo32NUXYq7P87C0+pB80USl50ONkNa5OgCBIQARrFN6JlUkvW56/HE/QYq0XMnz+f/fv307dv33JdMZJ0pGRwIElSrRC+sc2fP5+RI0cyffp0dF0vNzvh9LNP5+b+N9On1fnYMx3ou3QKM4twFjoxWU2o2uGlPa5NBAJd6AREgFRbKvXs9fAGvRR6Cyj1xw7EDHO73ezcuZO4uDgyMjJITEw0VpGkwya7FSRJqjW2b99Ov379WL++4kF5Kakp/Dr1V9qb2/P7M3/gK/FhspmM1Y4bCgp2k52Zu2fy4coRxuJyXnnlFZ588knjZkk6bDI4kCTpmInuSvj1118ZMWIEf/zxh7EaAH0HXMIdN91JS19L3Gs9bF24FSEEJvuRZTOs7cIDFh0mB3tL97IqZxUBPYBZM2NWzSzct5BlWbEDNFu0aMF1113HE088QWpqakyZJB0OGRxIknTMbd26lX//+99Mnjw5ZnuTZk2walYKdhcw/IXh3H/7/Ux9fhq7l+3GUc8RGnB4nF/BBAKTasamWaEskZJFszB1xx98vf5rctw5MfXNZjOffPIJV199NUlJSTFlknSoZHAgSVKNi24xWLx4MYMGDWLDhg3Gaoz6chR9Op7P1GenYtftpGek48xx4vf4UU0nTg638KJOkX8rCkE9SGZpJqNWjWJn8Y6Y+na7nfvuu4//+7//i9kuSYdKDkiUJKnGKYqC1+tlxowZfPzxx8yaNSumvFWbVtxy8y1c2OFCUvNS8W3x4cv3UZpXCgqo5hMnMAgTUf/ThU68OZ4UawqaquEJeshz50UWegoEAuzbt49gMEh6ejppaWnGw0nSQcmWA0mSjon8/HwuvfRSFi9ebCzi3gfv5aN3PmLhG4tYM2kN1mSrnKZXiSRrEkv2L+H/lr6J27BOA2V5EO6++27jZkk6qBMv/JYk6ZgKP4+kpqaiaVpke/SURY/fAypoJg1dPzaLJNUFCgqaoqELPRIYGLsg4uLiovaQpEMjgwNJkmpEOCgIL6I0adKkmIWEdF0HBTp26Ui7Ju3IXJpJSW4xZodZthpUQiBwB9w4zA661j8Vu8ke6niIahBeunQpa9asqXBBJ0mqjOxWkCSpRkQPQvzggw945JFHYhZRAshonMGkKZNoUNiQ+e/Mx+/0hxIaydigUuGWAl/Qx1frxzJj1wxjFXr27Mn48ePJyMgwFklSheSAREmSaoSiKOzbt4+PP/6Yzz//nP3798eUn3/Z+Tx030O0cLcgb2E+e9fuPWEHHx4OgcCsmom3xBNvScCsmtlVvBNdHEg7vW/fPrKysoiLi6NVq1Yx+0tSRWTLgSRJNWbx4sX06dMHl8sVsz01NZUPRnzADb1v4NfHJ5O9KRt7qj2mjvTPkqxJZLuyeX/Fe/yd83doY1QuiCFDhjBy5MiYfSSpIjIklySpWkU/fyQlJWGz2WLKe57bkx8n/kgbf1v+eG4qpXmlWBLkCoNHwul3YjPZuKvz3QxoMyC0MerxLz4+/sA/JOkgZHAgSVK1UhQFIQR///0333zzTblxBin1Ujjv3PNIIpFdS3YR8AXQLAdmMUiHzq/7UVFpl9KOpgnNjMWsXLmS77//nuzsbGORJMWQwYEkSdVO13Vefvllnn/++ZgZCgBCF5Q4S/AFfVgTrKEpjbKz84goKAgETr8TX9BnLGb69OnceeedLF0auyaDJBnJ4ECSpCpnHMqkaVq5FgNHnINHHn+EwdcMZuWoVWyftwPNqtXZ5ZZrCyEE3qCXDqkdGNxlMC2TWsaUl5aW4nA4YrZJkpEMDiRJqnKKouD3+9myZQtbtmxh9erVOJ3OmDomk4lBdwzisl6XsW3KdrLWZ4VmJsjY4KgIBH7dT9OEpvRtcSmN4xvHlNtsNtasWUNWVhbBYDCmTJLCZHAgSVK1yM7O5t5776VHjx5cccUVzJkzJ6bc5XJR6i7Fp/sw201oJk12J1QRBYWACOIOuPEEPTFlbrebRx99lEcffZSioqKYMkkKk8GBJEnVwufzsX79egoKCti5c2fM9MUuXbvw6EOP4l8XYO2v6xAIOQixigV0P7rQOTPjLLo36I61bMlnIQQ+n49NmzaV6+qRpDAZHEiSVC1UVSUpKcm4GYAB1w/gtVdeI7gyyIpxKxFBIZMdVbGAHrrxX9T8Iq5rez1x5tg1FhITE2VaaqlS8myUJKnGKUpUSmSZh61aGRdikqRDIYMDSZKqhdVa+TLLfr+fgCcQWnnRLLsTqlNAD+AL+vDr/pjtqqqWS0glSWEyOJAkqVqoqlppcCDVPOP0UsItOJJUARkcSJJU5aZOncrjjz/Onj17Ituib0S+gA9TnAnVpMpehWrmC/pIs6dxY/ub6Jh2cmT72rVrGTZsGPPmzYupL0nI4ECSpOrw/fffM2bMGAoKCiJBQfjJNSEhgWR7MsW7i/G7/SiafHqtTl7dS4o1hatbX033Bt0j2/fu3cvIkSOZOXNmTH1JQgYHkiRVB4vlwMJJ0c3ZHU/uyHc/fMdFLS9i1gt/kbs5F7PdFCmXql44pbI/6Ccoyk9dNJnk+y+VJ4MDSZKqnKZVPMgwKSWJ3n160yihEftX7cdb7JUtBzVACEFQBNGFbiyq9LOSTmwyOJAkqcYE/AEK8vPxBryhRZZMcpElSaqNZHAgSVK1ih6IWFxajMlhxmQzI4Soc3GB0AUBTwBvsTf0Kil7FXvxOX0IXdTKtSEURUFBqXClxri42ORIkoQMDiRJqg7RTdXhMQfJKcmcevKpFG0ponB3IYqqUFdm0ulBPZLFMaFxAg27NiSjW0bodWoGjU9vRP2T62OymRCB2hfyhLsV0u3pNHA0QFMPfD4bN25ky5YteL3emH2kE5siKpr8KkmSdJiEEJFWgmHDhvHmm29GyjRN4/1R73N5j8tZ9fHflOwsQQ+W9X/XgQDB7/KjmlQSGiXQtl9b2lzaGs2ihQIfAWaHmcIdhcx+ZQ65G3KxxB8YkFlbhAcm7i3dy6drPmVzwaZIWY8ePRg9ejSnnHJKzD7SiUu2HEiSVCUURWHPnj189NFH/PXXX8ZiWrZqSbNmzXDtdVGaUxoKCmpxYCB0gd/lx+/y0/SsJnS7qxun3NKFlhe2xJpoJW9THttnbGfXvF3snL2TvUv3RoKI2khHJ8maRNOEpthNsZkR169fH7MwliTVzm+xJEl10qpVq3jggQdYvHixsYiSkhLcTjcmhwmzzWwsrnUUTUGzaDjSHLS/ugOdb+xEq4tbYUu2UrijkKWjl/HXS7OZ+/o8Zr3wF0s+Xoo7z43JVjunBobHHDj9ToJ6MKYsOTlZTmmUYsjgQJKkKlXXeyrD3SNmh8Y7syEAABLySURBVJmT+rTgvGfOpckZjQl4Ayx4ZwHTn5jBohGLKc4srrWBgCQdLRkcSJJUZVRVxW63GzfXKUFvEMWk0KhbBq0vbUPDrg0J+oJsnbaNzVO2sHnKZnbN24W3xIvJbkKzaKGXWavV3SSSdDhkcCBJkhQl6AtiibPQ8ZqOZHRtCMCGSRvZ8NMGFFXBUc+BJc6CqskcDdLxSwYHkiRJZQMQhS5I75hOywtaktAoAcqChQZd6tPl5s70GNqDsx4+i+73dKd139aktEwh6A/id/oJ+oKhLhXZeiAdB2RwIEmSBIigQA/qNOjSgFYXtcRkM6EHdXxOH/EN4ml6VlPaXdGW9le14+TrOtLuirY0Oi0DRz0HthQbtmRbqDWhfIZiSapzZHAgSZIE6LpO0KfjSHOQ1CwptJx0UOAp8LDsk2X89dJf7F+5n4AntHhRWps0mvdqTutLWtHuyrY0P7c5ljgLQX/sTABJqotkcCBJ0glP6AKz3UxKiyTiGx5IJxzwBHBmO8ndmMfuBZlsnrKZnHU5kfLExok07NKQxt0bk96xHiabdiC5kyTVYTI4kCTphKcHdGzJNhqd1oj4BvGR7X63H2e2E5M1dNPf8vtW9q/KipQrmkJ8RjxJTZOIrx+PatJC6ytIUh0ngwNJkk54QohQwqN6DsxxUQmaRKhMlP13MBAk4PFHAgDVpGJ2mDHHmzHZTaErqowNpOOADA4kSaoyQgh8vvIr/9V6ItQKYHKY0MxRl8XwzAMBKEoolwEKQV9oXIGiKqiaimpSUTUVRU5VkI4TMjiQJKnKBINBAoHQgL3opZrrAqXsZh8zF1FU0BKgGP42JZSaWJKOJzI4kCSpynTo0IHhw4dz8sknl0ujHBcXh91hJ+gJEvCGAojaQjWpuAs97Fm8l5J9JZHtmlXDlmJDM6uIgB7JhVDW0YAe0PEVe/EUevCV+kLdDbU0ThAIzKoZu9mOqhxYshmguLiYYFDOspAOkMGBJElVQghBq1ateP755+nbt6+xmJzsHPJy87AkW7AmWI3Fx5RqUnHne9g1bxcF2woi2y1xFhIaJWBJsKJoyoHug7KWA5/TR97mfLLXZlOwrYCgLxDKdVALKSi4A27yPfn49diun0aNGmGx1L5lpqVjp3Z+iyVJqtOMrQa6rjP8v8N56o2naHdHWzpd3YmgP4geqD3T/pSy7gJ3nht3Xmj5Ys2ikdg4kfiG8TjSHTjS47AlW9EsoSdvT6GXdT+sY/lnK9g0eTPeYm+krDZRFRWrZmX+3vm8v/w9thdtj5TdfvvtjBkzhnbt2sXsI53YZHAgSVKViO6HD487CG8XQrBrxy5mzZ9FWtc00tulI4KC2rSAo6qpaGaN/K0FbJ+1g5z1uQQ8AcwOMw1PaUjLC1vS8oKTSGuThhCCkr0l7Jy9k5x1ueSsyyF/az4BXxBFq339CqqioikamaWZbCncgjfojZSddtpp9OjRg7i4A/kdJEkGB5IkVavoVoSEhAQCzgABtx9FqV3D+BRNQdEUslZnsXb8Ojb+vIF9K/YB0LxXM067sxun3t6VjG4ZuLJdLBqxmFVfrkI1q9hT7JhsplCAVIsCnrDQdEyBRSvfdeB0Oo2bJEkGB5Ik1ZxQOFAL755RAp4AvlIvAW+gbPZCSGRZZkCzafhKvHiKPaE/p45cSWtTMCbVbnXkKy1J0vFAURRUTQt1NUSN+q9NNLOGZtHQ/TruPDfOHCfu/ND/O3NcuPPdFGeWgKJgdlhCd9za92dI0lGRwYEkSTVG0zQSExIxqxZ8Lj8iWPum/qkmlaBPJ2d9Lmu+W8Ofw2cx4+mZ/Dl8Fn8O/5MZT89k4bsLKd5djNluMu4uSccFGRxIklTlPB5P5L+jByru3bOXjz78iLU5a2l/ZTviG8Sj+2rPjAUItb0LXeAt9lK0q5isNVlkrc4K/X/Zf+duysXn8tfKwYdGAhGZrWBSo1JDl/F6DwxOlKQwGRxIklTl7HZ75L+jByTu3LGTxx55jDk7/+Lsh88i7aTUyBLItYoSakEw2U1YE6zlXpY4C6pWOwcfGiko6ELHE/DgD5ZPbW211q6cE1LtIIMDSZKq3H333cc777xDo0aNIttipjrqQTSrKWbAn1Q9bCYb2e5sPlk9mj93/xnZ3qFDB0aNGsW1114bU1+SkMGBJElVSQiBEIK2bdtyxx13kJaWFlMWZrVYUYKgBwR6sJZ1KxxnrJoVl9/FX5l/keU6sNx08+bNufPOO2nZsmVMfUlCBgeSJFUlRVEiLQRFRUWV5us3mUxgAYKg+2VwUJ00RcOiWXCYHTHb/X4/RUVFMdskKUwGB5IkVYtAIEBJyYFFjKJN+XUKb73xFlpHlZOv7oiiKrUqlfLxQFNDORnm7JnD5G2/4g64Y8pLS0srDd4kSQYHkiRVC5PJREZGBgCJiYmYzQdGys+fM5+nn3sa7RSNU64/BUVVCPrkjaoqmVUzCgp/7prJn7v/xBM4MIMEoEGDBmha7VsHQqodZHAgSVK1SE9PZ8SIEcydO5eJEydyzjnnxJSbNBNJiUnE2eLwO/2h4ECOT6wSAoFJMRFnjsOsxU5ftNvtvPjii7zxxhskJibGlElSmAwOJEmqckIIbDYbp59+Oueccw7nn38+9erVM1bj159+Zc6yOTQ+pzGpLVMRAVEnpgfWdibFRJYri/l755Hrzo0p8/v99Or1/+3dfWxUVRrH8e+5d97amTYFFFrAKlsFTdDU2N1VDK5REhYWFOk2UZNFIoasyCayhhhd8YXEVQMioLIBTeNKQFZFQlQCri+tb2xWFLUKhVqobWGx0A7MtDPt3Dv37B9Dh7kDSAUpbX0+//Wec5uZppn53ee8jWfMmDGuao4QmSQcCCF+dpnLFgGSyaTrpEaOjnk/OP9Blq9dzlX3XkXJ70qwu2y0I+ngTCilCHgCfHOohmXbl1HbVutqNwyDSCTiuiZENgkHQoizzjAM5s2bx9y5cwmFQq62uBVn0OACcgI5dEW7cBxHhhdOk0ZjYBD0BjGUSSJr06Nx48axdOlSSktLXdeFyCbhQAhxVmmtUUpx3XXXcc8997h2TwTo7Oik5tsa2pNRzr/kfEyvKSsXTpNHeXBwaI4209rpHk4AuPbaa7n77ru54IILspuEcJFwIIQ4qzKHGKLRaLqk3X39w6oPueXmW9iTs4cpf59CcFCQzsPumfWiZ0K+PKykxQs1L/D67tdTFzOqMDKcIHrKfPTRRx/NviiEEGdDMplEKcWBAwcIh8MAOI5DOBzG9tqEzgtSXHwhIX+I1u9bQafOOBA/zlAGSin2HK6nurma6uYqupLHDlQyTZNJkyZRXl7OZZdddtycECGyKZ25p6kQQvSCJ598kgceeCD7MqNKRvHm5jcZdGAw7z/+PkkriemTtfin4jW8KKV4+dt/8vbet7ObKS0tZf369bJVsugxieRCiF6R+Rwyc+ZMXnzxRS655BJXn7179zLnz3ez4b9vcM38qym6oih1aqM8wpyURuMxPIS8ofSuiJnuvPNOli9fzqhRo7KbhDgpCQdCiF7RXcrWWlNYWMisWbMYOnRout0wDHDgw/c+YlvdNkpuKKFgRAFW3EZLOjip7oOVag7VHLenAcCECRMYP368DCWIn0TCgRCiV3V/SYXDYeLxY/v9Z1YWgjnB1LWEg7adVOVAvtuOo1AEvUEao4088/kSPt3/aep6RhCQSYjidMiERCHEOaGUoqCggI6ODurr611tXZ1dtB5s5VdjSigZU8IPtT+Q6EjI/IOjNJpcTy6GMvhk/yds+X4Lu8O7XX2KioqYM2cOkyZNorCw0NUmxKnIhEQhRK/r3vsAoLq6mltvvZUDBw5kd2P16y8z+co/8NHjHxNtjoLJsfkHv7BKgsp8wyq1p0FLrIVnv1xOXbgusysAs2fPZuXKldmXhegRCQdCiHPKsiy2b9/O/fffT1VVlattePFwym8uZ8FfFhD9tJ3P135OR6wDbWq8ud5UQBjgn2AajdfwEjADoMDAwGf6+KDpA17b/RrfRxpw9LFNowzDYPHixVRUVDBy5EjX7xKipyQcCCHOmcwKwpo1a1i2bBk1NTV0dh7bBGlE8QiefnYxkW1Rvtv0Hb8Z91vyPHm07GpB2xplDuwSgmmYtMZbaYg0kHSSeA0vXtNLdXM1n+z72NV3+PDhTJw4kSeeeIJhw4a52oT4KSQcCCH6jB07djBt2jTq6o6VyZVSeL1eEokEhUMLeeOtNxhtjmbzI1uwOiw8AY/rdwwkSilyPblUN1fzj69WkEgm8BgeFIqkTroqBgCPPPIIDz/8cGrlhxBnQP6DhBDnVObzSUFBAdFoNP2zYRhorUkkUgcIxZwYg4cPpmDIIKx2C7vLHrBzDzQ6vRrBY3jShyjZjo3lWOlgYKhjH+OGYUgwED8L+S8SQpxTmcvuLMvi8ssvxzRTqxIcx/1kbDomX2/7mj2N9QwZPYTg4CCOdXSp4wDjUR40mqZoEy2xFlcIyNQdEoYNG8Z5552X3SzEaZGljEKIPiM/P58pU6YA8PHHqfH0zPCQ6EqwedNmbL/N7Mdmkwwnafq8CdNvDri5B/n+fGJWjBdrXuDf37+D7diu9sy/y+jRo1m9ejWTJ0/G6/W6+glxOiQcCCH6BK01hmGQk5NDYWEhsViMhoYG1+RErTVdXV0cPNxCcGiIocPOp7j4QhJtCboiXdiWTdJKggOGafS72qjP9BHwBPCZPuoP1/NB0/tUN1e7DlHKVlZWxuzZs6moqJBgIH42MiFRCNEnaa2pqKhg/fr1mKaJ1vq4YYaVL63kT5NnsPn+zbTVtxHID6BQaK3RTv/7aHO0g8fwYCiDNTvX8NaeN13tmXMKbNsmLy+PtWvXpqstQvxcJBwIIfqUzOWNn332GY2NjeTk5PD888+zadMmV9/SX5dy0fCL2LN1L+VTpjPvvr/iD/nY/+V+vl27g9Z9rdjYeHI9qaOf+9CnnUZjKpOAJ0COJ4eYFWN93Xq+OVRDjieXvZG9HIy1uO654447KC8vp6Ojg2QySV5eHuPHj2fQoEGufkKcKQkHQog+JzMgdFu3bh0LFy6ktrbWtcKh200VN7FgwQICeQEatjbwxartjBgyglGjLiLccJhEewJlKmzbxnGc1LBDL09TMJWZfl+mMonbcZrbm9Fa02nHeXnnyzRGGrNvw+PxcMUVV/DUU08xYcKE7OYT/r2EOBMSDoQQ/cbOnTuZPn06tbW12U0EcgLkhfLAgFg0Rlesi0VPL+LeWfdSvbCafdv34wv66OzqxE7amD4TZaheqyYoFF7Tm1p1oCHoDbLnyB6e+WIJDUcayPXmErNiJHWy+4b0a7v++uuprKyUY5dFr5FwIITo8zKfjCsrK6mrq8Pv9/PKK6+we7f7wKFMN069kRuuuYHdm+po+a6FnFAOt8+4ndKLS6l9q5ZYayy10kEprIRFR6wDw2Ng+s3TCg3dWx37TJ/r291n+Gi32qlqqmJf+z78pg+f6edQ/BDvN753LBCcwPTp05k5cyZTp07NbhLirJFwIIToF05UOp8/fz6LFy92XTuVFS89zx+vq2DL394hvDeMN+RFOxqf30d+Xj6O5WB3upcN9pRSikQyQWey03XMdK4nl4Pxgyz7YilN0abs21xM0yQvL4/29nZKSkpYt24dpaWl2d2EOKskHAgh+q1wOMzGjRuZM2cO8Xg8u/mELr7sYoYWDKWtvg2r00YZisiRI/x+yiSWPvMMh6pa+erVrzC8RmpeQg8ZysBv+qlurubV3f/CduyjFQQwlImVTNAUbcJyLPeNGcMHAMXFxSxdupSRI0eilGLs2LEEAoHMO4Q46yQcCCH6ncwqQiwW47777mPXrl3k5+fj8/lobm5m69at2bf9qEuvvJSFjz1G26dhvn1zRyocGD2f5KeUgd/0sfV//6Gq6YPs5h9VVFREWVkZsViMq6++moULF7q2QT5R1USIs0nCgRCiX9NaY9t2egWDz+fj3XffZdq0aXR0dGR3PyllKLye1BCDTurTXsngaOe4A5FOZcaMGaxYsYJgMIht23g8A/cwKdE/SDgQQvRbJ3uiPnLkCBs2bCASieD3+wHw+/0kEgmee+45ampqsm/pFXPnzqWsrCy966PjOFiWRVlZGePGjXP1Pdl7E6I3SDgQQgwop/pSfeihh1i1ahX5+fnp0r1pmkQiEfbv35/d/ScLBoMUFRWlT5QEiEQiFBcXU1lZydixY7NvEaLPkXAghPhFaWlpoa2tLX3yo1KKgoICNm7cyF133ZXd/SebOHEiS5YsIRQKkUgk0Ee3ffZ6vYwYMSJdyRCiL5NwIIT4RThVRWHfvn0sWrSItrY2cnNzs5tPyXEc4vE4kydP5rbbbstuTjvV6xCiL5BwIIQQQgiXni/iFUKIAUqekYRwk3AghPjFkzK/EG4SDoQQQgjhIuFACCGEEC4SDoQQQgjh8n/VDvqliZL+OwAAAABJRU5ErkJggg==;" vertex="1" parent="1">
                    <mxGeometry x="140" y="10" width="519" height="666" as="geometry"/>
                </mxCell>
            </root>
        </mxGraphModel>
    </diagram>
</mxfile>